<?xml version="1.0" encoding="iso-8859-1"?>
<!-- Generator: Adobe Illustrator 19.0.0, SVG Export Plug-In . SVG Version: 6.00 Build 0)  -->
<svg version="1.1" id="Capa_1" xmlns="http://www.w3.org/2000/svg" xmlns:xlink="http://www.w3.org/1999/xlink" x="0px" y="0px"
	 viewBox="0 0 512 512" style="enable-background:new 0 0 512 512;" xml:space="preserve">
<path style="fill:#EF5122;" d="M268.544,33.431c0.981,1.929,1.476,4.062,1.451,6.229c0.026,7.74-6.229,14.029-13.961,14.063
	c-7.74,0.026-14.037-6.229-14.063-13.961c-0.009-2.193,0.503-4.361,1.485-6.323L256,8.343L268.544,33.431z"/>
<rect x="238.933" y="85.143" style="fill:#FFCB5A;" width="34.133" height="68.267"/>
<rect x="349.867" y="102.209" style="fill:#5B5B5B;" width="17.067" height="51.2"/>
<g>
	
		<rect x="334.251" y="68.104" transform="matrix(-0.7071 0.7071 -0.7071 -0.7071 665.9954 -122.5908)" style="fill:#CACACA;" width="48.273" height="17.067"/>
	
		<rect x="349.866" y="52.494" transform="matrix(-0.7071 0.7071 -0.7071 -0.7071 666.0117 -122.6096)" style="fill:#CACACA;" width="17.067" height="48.273"/>
</g>
<rect x="145.067" y="102.209" style="fill:#5B5B5B;" width="17.067" height="51.2"/>
<g>
	
		<rect x="129.462" y="68.072" transform="matrix(-0.7071 0.7071 -0.7071 -0.7071 316.3765 22.1626)" style="fill:#CACACA;" width="48.273" height="17.067"/>
	
		<rect x="145.071" y="52.481" transform="matrix(-0.7071 0.7071 -0.7071 -0.7071 316.3953 22.1789)" style="fill:#CACACA;" width="17.067" height="48.273"/>
</g>
<polygon style="fill:#5B5B5B;" points="486.4,469.143 460.8,503.276 51.2,503.276 25.6,469.143 59.733,469.143 230.4,469.143 
	247.467,469.143 264.533,469.143 281.6,469.143 452.267,469.143 "/>
<path style="fill:#D6EAF1;" d="M469.333,315.543v38.4c0,11.785-9.549,21.333-21.333,21.333s-21.333-9.549-21.333-21.333
	c0,11.785-9.549,21.333-21.333,21.333c-11.785,0-21.333-9.549-21.333-21.333c0,11.785-9.549,21.333-21.333,21.333
	s-21.333-9.549-21.333-21.333c0,11.785-9.549,21.333-21.333,21.333c-11.785,0-21.333-9.549-21.333-21.333
	c0,11.785-9.549,21.333-21.333,21.333S256,365.727,256,353.943c0,11.785-9.549,21.333-21.333,21.333
	c-11.785,0-21.333-9.549-21.333-21.333c0,11.785-9.549,21.333-21.333,21.333c-11.785,0-21.333-9.549-21.333-21.333
	c0,11.785-9.549,21.333-21.333,21.333c-11.785,0-21.333-9.549-21.333-21.333c0,11.785-9.549,21.333-21.333,21.333
	s-21.333-9.549-21.333-21.333c0,11.785-9.549,21.333-21.333,21.333c-1.434-0.009-2.859-0.154-4.267-0.427
	c-9.95-1.997-17.101-10.752-17.067-20.907v-38.4c0-4.71,3.823-8.533,8.533-8.533h409.6
	C465.51,307.009,469.333,310.824,469.333,315.543z"/>
<polygon style="fill:#FFCB5A;" points="452.267,426.476 452.267,469.143 281.6,469.143 264.533,469.143 247.467,469.143 
	230.4,469.143 59.733,469.143 59.733,426.476 "/>
<path style="fill:#AA5634;" d="M452.267,375.276v51.2H59.733v-51.627c1.408,0.273,2.833,0.418,4.267,0.427
	c11.785,0,21.333-9.549,21.333-21.333c0,11.785,9.549,21.333,21.333,21.333S128,365.727,128,353.943
	c0,11.785,9.549,21.333,21.333,21.333c11.785,0,21.333-9.549,21.333-21.333c0,11.785,9.549,21.333,21.333,21.333
	c11.785,0,21.333-9.549,21.333-21.333c0,11.785,9.549,21.333,21.333,21.333c11.785,0,21.333-9.549,21.333-21.333
	c0,11.785,9.549,21.333,21.333,21.333s21.333-9.549,21.333-21.333c0,11.785,9.549,21.333,21.333,21.333
	c11.785,0,21.333-9.549,21.333-21.333c0,11.785,9.549,21.333,21.333,21.333S384,365.727,384,353.943
	c0,11.785,9.549,21.333,21.333,21.333c11.785,0,21.333-9.549,21.333-21.333c-0.034,11.742,9.455,21.299,21.197,21.333
	c0.043,0,0.094,0,0.137,0H452.267z"/>
<path style="fill:#D6EAF1;" d="M426.667,161.943v38.4c0,11.785-9.549,21.333-21.333,21.333c-11.785,0-21.333-9.549-21.333-21.333
	c0,11.785-9.549,21.333-21.333,21.333s-21.333-9.549-21.333-21.333c0,11.785-9.549,21.333-21.333,21.333
	c-11.785,0-21.333-9.549-21.333-21.333c0,11.785-9.549,21.333-21.333,21.333S256,212.127,256,200.343
	c0,11.785-9.549,21.333-21.333,21.333c-11.785,0-21.333-9.549-21.333-21.333c0,11.785-9.549,21.333-21.333,21.333
	c-11.785,0-21.333-9.549-21.333-21.333c0,11.785-9.549,21.333-21.333,21.333c-11.785,0-21.333-9.549-21.333-21.333
	c0,11.785-9.549,21.333-21.333,21.333c-1.434-0.009-2.859-0.154-4.267-0.427c-9.95-1.997-17.101-10.752-17.067-20.907v-38.4
	c0-4.71,3.823-8.533,8.533-8.533h324.267C422.844,153.409,426.667,157.224,426.667,161.943z"/>
<path style="fill:#168DE2;" d="M409.6,264.343v42.667H102.4v-59.733c21.76,0,21.76,17.067,43.605,17.067
	c21.845,0,21.76-17.067,43.605-17.067s21.76,17.067,43.605,17.067s21.76-17.067,43.605-17.067s21.76,17.067,43.605,17.067
	c21.845,0,21.76-17.067,43.605-17.067c21.845,0,21.76,17.067,43.605,17.067H409.6z"/>
<path style="fill:#62BEFF;" d="M409.6,221.676v42.667h-1.963c-21.845,0-21.845-17.067-43.605-17.067
	c-21.76,0-21.845,17.067-43.605,17.067c-21.76,0-21.845-17.067-43.605-17.067c-21.76,0-21.845,17.067-43.605,17.067
	s-21.845-17.067-43.605-17.067s-21.845,17.067-43.605,17.067s-21.845-17.067-43.605-17.067v-26.027
	c1.408,0.273,2.833,0.418,4.267,0.427c11.785,0,21.333-9.549,21.333-21.333c0,11.785,9.549,21.333,21.333,21.333
	c11.785,0,21.333-9.549,21.333-21.333c0,11.785,9.549,21.333,21.333,21.333c11.785,0,21.333-9.549,21.333-21.333
	c0,11.785,9.549,21.333,21.333,21.333c11.785,0,21.333-9.549,21.333-21.333c0,11.785,9.549,21.333,21.333,21.333
	s21.333-9.549,21.333-21.333c0,11.785,9.549,21.333,21.333,21.333c11.785,0,21.333-9.549,21.333-21.333
	c0,11.785,9.549,21.333,21.333,21.333S384,212.127,384,200.343c-0.034,11.742,9.455,21.299,21.197,21.333c0.043,0,0.094,0,0.137,0
	H409.6z"/>
<path d="M44.373,508.396c1.613,2.15,4.139,3.413,6.827,3.413h409.6c2.688,0,5.214-1.263,6.827-3.413l23.04-30.72H512v-17.067h-51.2
	v-79.795c10.385-4.924,17.024-15.377,17.067-26.871v-38.4c0-9.429-7.637-17.067-17.067-17.067h-42.667v-71.262
	c10.385-4.924,17.024-15.377,17.067-26.871v-38.4c0-9.429-7.637-17.067-17.067-17.067h-51.2v-42.667h-17.067v42.667H281.6V85.143
	c0-4.71-3.823-8.533-8.533-8.533h-34.133c-4.71,0-8.533,3.823-8.533,8.533v59.733h-68.267v-42.667h-17.067v42.667h-51.2
	c-9.429,0-17.067,7.637-17.067,17.067v38.4c0.043,11.494,6.682,21.948,17.067,26.871v71.262H51.2
	c-9.429,0-17.067,7.637-17.067,17.067v38.4c0.043,11.494,6.682,21.948,17.067,26.871v79.795H0v17.067h21.333L44.373,508.396z
	 M247.467,93.676h17.067v51.2h-17.067V93.676z M93.867,161.943h324.267v38.4c0,7.066-5.734,12.8-12.8,12.8
	c-7.066,0-12.8-5.734-12.8-12.8h-17.067c0,7.066-5.734,12.8-12.8,12.8s-12.8-5.734-12.8-12.8H332.8c0,7.066-5.734,12.8-12.8,12.8
	c-7.066,0-12.8-5.734-12.8-12.8h-17.067c0,7.066-5.734,12.8-12.8,12.8s-12.8-5.734-12.8-12.8h-17.067c0,7.066-5.734,12.8-12.8,12.8
	c-7.066,0-12.8-5.734-12.8-12.8H204.8c0,7.066-5.734,12.8-12.8,12.8c-7.066,0-12.8-5.734-12.8-12.8h-17.067
	c0,7.066-5.734,12.8-12.8,12.8s-12.8-5.734-12.8-12.8h-17.067c0,7.066-5.734,12.8-12.8,12.8c-7.066,0-12.8-5.734-12.8-12.8V161.943z
	 M391.066,249.094c-15.403-13.798-38.733-13.798-54.135,0c-9.207,8.951-23.876,8.951-33.084,0
	c-15.403-13.798-38.716-13.798-54.118,0c-9.207,8.951-23.876,8.951-33.084,0c-15.403-13.798-38.716-13.798-54.118,0
	c-9.207,8.951-23.868,8.951-33.075,0c-5.282-4.659-11.648-7.927-18.517-9.498v-9.822c6.477-0.905,12.476-3.925,17.067-8.593
	c11.426,11.785,30.242,12.066,42.027,0.64c0.213-0.213,0.427-0.427,0.64-0.64c11.426,11.785,30.242,12.066,42.027,0.64
	c0.213-0.213,0.427-0.427,0.64-0.64c11.426,11.785,30.242,12.066,42.027,0.64c0.213-0.213,0.427-0.427,0.64-0.64
	c11.426,11.785,30.242,12.066,42.027,0.64c0.213-0.213,0.427-0.427,0.64-0.64c11.426,11.785,30.242,12.066,42.027,0.64
	c0.213-0.213,0.427-0.427,0.64-0.64c11.426,11.785,30.242,12.066,42.027,0.64c0.213-0.213,0.427-0.427,0.64-0.64
	c4.591,4.668,10.59,7.689,17.067,8.593v25.097C397.38,253.633,393.975,251.671,391.066,249.094z M401.067,272.347v26.129H110.933
	v-41.054c2.893,1.331,5.581,3.055,8.004,5.12c15.394,13.798,38.707,13.798,54.101,0c9.207-8.951,23.876-8.951,33.084,0
	c15.403,13.798,38.716,13.798,54.118,0c9.216-8.951,23.876-8.951,33.092,0c15.403,13.798,38.716,13.798,54.118,0
	c9.216-8.96,23.885-8.96,33.101,0C386.338,267.662,393.446,271.058,401.067,272.347z M51.2,315.543h409.6v38.4
	c0,7.066-5.734,12.8-12.8,12.8c-7.066,0-12.8-5.734-12.8-12.8h-17.067c0,7.066-5.734,12.8-12.8,12.8c-7.066,0-12.8-5.734-12.8-12.8
	h-17.067c0,7.066-5.734,12.8-12.8,12.8s-12.8-5.734-12.8-12.8H332.8c0,7.066-5.734,12.8-12.8,12.8c-7.066,0-12.8-5.734-12.8-12.8
	h-17.067c0,7.066-5.734,12.8-12.8,12.8s-12.8-5.734-12.8-12.8h-17.067c0,7.066-5.734,12.8-12.8,12.8c-7.066,0-12.8-5.734-12.8-12.8
	H204.8c0,7.066-5.734,12.8-12.8,12.8c-7.066,0-12.8-5.734-12.8-12.8h-17.067c0,7.066-5.734,12.8-12.8,12.8s-12.8-5.734-12.8-12.8
	h-17.067c0,7.066-5.734,12.8-12.8,12.8c-7.066,0-12.8-5.734-12.8-12.8H76.8c0,7.066-5.734,12.8-12.8,12.8
	c-7.066,0-12.8-5.734-12.8-12.8V315.543z M443.733,383.374v41.498c-2.901-1.331-5.598-3.055-8.03-5.12
	c-15.428-13.79-38.75-13.79-54.178,0c-9.225,8.96-23.902,8.96-33.126,0c-15.403-13.798-38.733-13.798-54.135,0
	c-9.207,8.951-23.876,8.951-33.084,0c-15.403-13.798-38.716-13.798-54.118,0c-9.207,8.951-23.876,8.951-33.084,0
	c-15.403-13.798-38.716-13.798-54.118,0c-9.207,8.951-23.868,8.951-33.075,0c-5.282-4.659-11.648-7.919-18.517-9.489v-26.889
	c6.477-0.905,12.476-3.925,17.067-8.593c11.426,11.785,30.242,12.066,42.027,0.64c0.213-0.213,0.427-0.427,0.64-0.64
	c11.426,11.785,30.242,12.066,42.027,0.64c0.213-0.213,0.427-0.427,0.64-0.64c11.426,11.785,30.242,12.066,42.027,0.64
	c0.213-0.213,0.427-0.427,0.64-0.64c11.426,11.785,30.242,12.066,42.027,0.64c0.213-0.213,0.427-0.427,0.64-0.64
	c11.426,11.785,30.242,12.066,42.027,0.64c0.213-0.213,0.427-0.427,0.64-0.64c11.426,11.785,30.242,12.066,42.027,0.64
	c0.213-0.213,0.427-0.427,0.64-0.64c11.426,11.785,30.242,12.066,42.027,0.64c0.213-0.213,0.427-0.427,0.64-0.64
	c11.426,11.785,30.242,12.066,42.027,0.64c0.213-0.213,0.427-0.427,0.64-0.64C431.258,379.449,437.257,382.47,443.733,383.374z
	 M59.733,477.676H230.4v-17.067H68.267v-32.521c2.893,1.331,5.581,3.055,8.004,5.12c15.394,13.798,38.707,13.798,54.101,0
	c9.207-8.951,23.876-8.951,33.084,0c15.403,13.798,38.716,13.798,54.118,0c9.216-8.951,23.876-8.951,33.092,0
	c15.403,13.798,38.716,13.798,54.118,0c9.216-8.96,23.885-8.96,33.101,0c15.42,13.79,38.733,13.79,54.153,0
	c9.233-8.969,23.91-8.969,33.143,0c5.299,4.659,11.674,7.91,18.551,9.481v17.92H281.6v17.067h187.733l-12.8,17.067H55.467
	l-12.8-17.067L59.733,477.676L59.733,477.676z"/>
<path d="M256,62.256c12.45,0.009,22.554-10.078,22.562-22.528c0-3.507-0.819-6.972-2.389-10.112L263.68,4.528
	c-2.517-4.215-7.97-5.598-12.194-3.081c-1.271,0.759-2.33,1.818-3.081,3.081L235.87,29.616
	c-5.572,11.136-1.067,24.678,10.061,30.251C249.062,61.437,252.501,62.248,256,62.256z M251.093,37.254l4.907-9.83l4.907,9.83
	c1.357,2.714,0.256,6.007-2.449,7.364c-2.714,1.357-6.007,0.256-7.364-2.449C250.317,40.616,250.317,38.798,251.093,37.254z"/>
<polygon points="369.434,53.51 358.4,64.543 347.366,53.51 335.3,65.576 346.334,76.609 335.3,87.643 347.366,99.709 358.4,88.676 
	369.434,99.709 381.5,87.643 370.466,76.609 381.5,65.576 "/>
<polygon points="164.634,53.51 153.6,64.543 142.566,53.51 130.5,65.576 141.534,76.609 130.5,87.643 142.566,99.709 153.6,88.676 
	164.634,99.709 176.7,87.643 165.666,76.609 176.7,65.576 "/>
<rect x="247.467" y="460.609" width="17.067" height="17.067"/>
<g>
</g>
<g>
</g>
<g>
</g>
<g>
</g>
<g>
</g>
<g>
</g>
<g>
</g>
<g>
</g>
<g>
</g>
<g>
</g>
<g>
</g>
<g>
</g>
<g>
</g>
<g>
</g>
<g>
</g>
</svg>
