<svg id="Capa_1" enable-background="new 0 0 512 512" height="512" viewBox="0 0 512 512" width="512" xmlns="http://www.w3.org/2000/svg"><g><path d="m446.588 283.919-36.899-15.529v136.743l36.899-15.529c10.116-4.257 16.694-14.163 16.694-25.138v-55.41c0-10.974-6.579-20.88-16.694-25.137z" fill="#e7889d"/><path d="m439.689 281.016-30-12.626v136.743l30-12.626z" fill="#e16e7e"/><path d="m350.475 504.5h-259.333c-16.518 0-29.908-13.39-29.908-29.908v-398.373c0-16.518 13.39-29.908 29.908-29.908h259.333c32.703 0 59.214 26.511 59.214 59.214v339.76c0 32.704-26.511 59.215-59.214 59.215z" fill="#88d37f"/><path d="m91.142 46.311c-16.518 0-29.908 13.39-29.908 29.908v398.373c0 16.518 13.39 29.908 29.908 29.908h171.758c-140.093-79.095-125.112-318.417-124.815-458.189z" fill="#5ec682"/><path d="m350.475 46.311h-97.785v144.7c0 33.532 27.281 60.814 60.813 60.814h96.186v-146.3c0-32.703-26.511-59.214-59.214-59.214z" fill="#5ec682"/><ellipse cx="235.461" cy="198.578" fill="#cde9fa" rx="58.188" ry="58.188" transform="matrix(.973 -.23 .23 .973 -39.325 59.41)"/><ellipse cx="235.461" cy="198.578" fill="#cde9fa" rx="58.188" ry="58.188" transform="matrix(.973 -.23 .23 .973 -39.325 59.41)"/><path d="m252.69 142.985v48.026c0 19.77 9.488 37.36 24.143 48.474 10.394-10.511 16.816-24.957 16.816-40.907 0-26.138-17.234-48.249-40.959-55.593z" fill="#a2ddfd"/><g fill="#59636f"><path d="m81.722 88.903h-40.977c-14.226 0-25.759 11.533-25.759 25.759 0 14.227 11.533 25.759 25.759 25.759h40.977c14.226 0 25.759-11.533 25.759-25.759.001-14.226-11.532-25.759-25.759-25.759z"/><path d="m81.722 196.065h-40.977c-14.226 0-25.759 11.533-25.759 25.759 0 14.227 11.533 25.759 25.759 25.759h40.977c14.226 0 25.759-11.533 25.759-25.759.001-14.226-11.532-25.759-25.759-25.759z"/><path d="m81.722 303.227h-40.977c-14.226 0-25.759 11.533-25.759 25.759 0 14.227 11.533 25.759 25.759 25.759h40.977c14.226 0 25.759-11.533 25.759-25.759.001-14.226-11.532-25.759-25.759-25.759z"/><path d="m81.722 410.389h-40.977c-14.226 0-25.759 11.533-25.759 25.759 0 14.227 11.533 25.759 25.759 25.759h40.977c14.226 0 25.759-11.533 25.759-25.759.001-14.226-11.532-25.759-25.759-25.759z"/></g><path d="m466.2 7.5h-152.696c-17.018 0-30.814 13.796-30.814 30.814v152.697c0 17.018 13.796 30.814 30.814 30.814h152.696c17.018 0 30.814-13.796 30.814-30.814v-152.697c0-17.018-13.796-30.814-30.814-30.814z" fill="#fbf1cf"/><path d="m313.504 7.5c-17.018 0-30.814 13.796-30.814 30.814v152.697c0 17.018 13.796 30.814 30.814 30.814h58.027c-50.398-48.59-48.47-182.838-43.569-214.325z" fill="#fae0bd"/><path d="m455.201 221.824c0-36.091-29.258-65.349-65.349-65.349s-65.349 29.258-65.349 65.349z" fill="#7acefa"/><ellipse cx="389.852" cy="120.212" fill="#a2ddfd" rx="47.228" ry="47.228" transform="matrix(.987 -.16 .16 .987 -14.222 64)"/><path d="m308.282 328.986c0-4.142-3.358-7.5-7.5-7.5h-130.641c-4.142 0-7.5 3.358-7.5 7.5 0 4.143 3.358 7.5 7.5 7.5h130.641c4.142 0 7.5-3.357 7.5-7.5zm-108.022 50.807c-4.142 0-7.5 3.357-7.5 7.5 0 4.142 3.358 7.5 7.5 7.5h70.403c4.142 0 7.5-3.358 7.5-7.5 0-4.143-3.358-7.5-7.5-7.5zm283.729-375.42c-3.668-1.925-8.202-.514-10.126 3.155-1.925 3.667-.513 8.201 3.155 10.126 7.708 4.046 12.497 11.962 12.497 20.659v152.697c0 12.855-10.458 23.314-23.314 23.314h-3.888c-2.311-22.838-15.093-42.932-34.538-54.709 10.348-9.963 16.806-23.939 16.806-39.403 0-30.178-24.551-54.729-54.728-54.729s-54.729 24.551-54.729 54.729c0 15.465 6.458 29.441 16.806 39.403-19.446 11.777-32.227 31.871-34.538 54.709h-3.888c-12.855 0-23.313-10.458-23.313-23.314v-152.697c-.001-12.855 10.457-23.313 23.312-23.313h132.003c4.142 0 7.5-3.357 7.5-7.5s-3.358-7.5-7.5-7.5h-132.003c-21.126 0-38.313 17.188-38.313 38.313v.497h-184.048c-20.627 0-37.408 16.781-37.408 37.408v5.184h-12.989c-18.339 0-33.259 14.92-33.259 33.259 0 18.34 14.92 33.26 33.259 33.26h12.989v40.643h-12.989c-18.339 0-33.259 14.92-33.259 33.259 0 18.34 14.92 33.26 33.259 33.26h12.989v40.644h-12.989c-18.339 0-33.259 14.92-33.259 33.259 0 18.34 14.92 33.26 33.259 33.26h12.989v40.643h-12.989c-18.339 0-33.259 14.92-33.259 33.259 0 18.34 14.92 33.26 33.259 33.26h12.989v5.184c0 20.627 16.781 37.408 37.408 37.408h39.43c4.142 0 7.5-3.357 7.5-7.5s-3.358-7.5-7.5-7.5h-39.43c-12.356 0-22.408-10.053-22.408-22.408v-5.184h12.988c18.339 0 33.26-14.92 33.26-33.26 0-18.339-14.92-33.259-33.26-33.259h-12.988v-40.643h12.988c18.339 0 33.26-14.92 33.26-33.26 0-18.339-14.92-33.259-33.26-33.259h-12.988v-40.644h12.988c18.339 0 33.26-14.92 33.26-33.26 0-18.339-14.92-33.259-33.26-33.259h-12.988v-40.643h12.988c18.339 0 33.26-14.92 33.26-33.26 0-18.339-14.92-33.259-33.26-33.259h-12.988v-5.184c0-12.356 10.052-22.408 22.408-22.408h184.048v92.493c-11.309-8.583-25.254-13.414-39.729-13.414-36.22 0-65.688 29.467-65.688 65.688s29.467 65.688 65.688 65.688c26.468 0 49.904-15.747 60.199-39.365 5.333 2.819 11.403 4.424 17.843 4.424h88.686v175.761.077 40.123c0 28.516-23.199 51.715-51.714 51.715h-183.509c-4.142 0-7.5 3.357-7.5 7.5s3.358 7.5 7.5 7.5h183.509c36.787 0 66.714-29.928 66.714-66.715v-35.171l32.308-13.597c12.93-5.441 21.285-18.022 21.285-32.05v-55.41c0-14.028-8.355-26.609-21.285-32.051l-32.308-13.596v-34.085h49.011c21.126 0 38.314-17.188 38.314-38.314v-152.698c0-14.29-7.865-27.294-20.525-33.94zm-402.267 413.517c10.068 0 18.26 8.191 18.26 18.259s-8.191 18.26-18.26 18.26h-40.977c-10.068 0-18.259-8.191-18.259-18.26 0-10.068 8.191-18.259 18.259-18.259zm0-107.162c10.068 0 18.26 8.19 18.26 18.259 0 10.068-8.191 18.26-18.26 18.26h-40.977c-10.068 0-18.259-8.191-18.259-18.26 0-10.068 8.191-18.259 18.259-18.259zm0-107.163c10.068 0 18.26 8.191 18.26 18.259s-8.191 18.26-18.26 18.26h-40.977c-10.068 0-18.259-8.191-18.259-18.26 0-10.068 8.191-18.259 18.259-18.259zm0-107.162c10.068 0 18.26 8.191 18.26 18.259s-8.191 18.26-18.26 18.26h-40.977c-10.068 0-18.259-8.191-18.259-18.26 0-10.068 8.191-18.259 18.259-18.259zm153.739 152.863c-27.949 0-50.688-22.738-50.688-50.688 0-27.949 22.738-50.688 50.688-50.688 15.466 0 30.14 7.165 39.729 19.258v23.863c0 8.978 3.112 17.238 8.304 23.777-6.882 20.48-26.108 34.478-48.033 34.478zm114.663-129.054c0-21.906 17.822-39.729 39.729-39.729 21.906 0 39.728 17.822 39.728 39.729 0 21.906-17.822 39.728-39.728 39.728-21.907-.001-39.729-17.822-39.729-39.728zm93.555 170.62c7.353 3.094 12.103 10.247 12.103 18.225v55.41c0 7.977-4.75 15.13-12.103 18.224l-26.49 11.148v-114.155zm-111.19-76.508c2.525-19.706 14.902-36.652 33.173-45.038 15.175 7.51 33.082 7.57 48.379 0 18.271 8.385 30.649 25.332 33.173 45.038z"/></g></svg>