<svg id="Capa_1" enable-background="new 0 0 512 512" height="512" viewBox="0 0 512 512" width="512" xmlns="http://www.w3.org/2000/svg"><g><g><path d="m230.953 94.313-195.826 157.27 224.453 217.44 217.294-217.44-195.827-157.27c-14.631-11.751-35.463-11.751-50.094 0z" fill="#e9edf1"/><path d="m407.5 432.5h-303c-11.598 0-12.351-16.402-12.351-28l-.766-365.33c0-11.598 1.519-31.67 13.117-31.67h303c11.598 0 21 9.402 21 21v226.27l-39.574 128.315c0 11.598 30.172 49.415 18.574 49.415z" fill="#f7e365"/><path d="m318.119 348.265c-2.238 1.896-5.519 1.895-7.757-.001l-16.232-13.754c-10.64-9.01-24.18-13.98-38.13-13.98s-27.49 4.97-38.13 13.98l-16.232 13.754c-2.238 1.896-5.519 1.897-7.757.001l-89.259-75.604c-1.346-1.14-2.122-2.815-2.122-4.578v-239.583c0-11.6 9.4-21 21-21h-19c-11.598 0-21 9.402-21 21v226.27 156.73c0 11.598 9.402 21 21 21h19 284c11.598 0 21-9.402 21-21v-156.73z" fill="#f4d242"/><path d="m476.873 251.583c-9.823 0-19.328 3.484-26.824 9.833l-120.332 101.921-32.547 47.578c-17.074 14.461-61.82 11.142-78.894-3.319l-35.994-44.259-120.332-101.921c-7.496-6.349-6.25-8.415-16.074-8.415l-4.376-.577-2.713 236.354c0 6.32 5.124 11.444 11.444 11.444l411.364-.456c6.32 0 15.278-.39 15.278-6.71z" fill="#f7f9fa"/><path d="m476.87 487.98v5.08c0 6.32-5.12 11.44-11.44 11.44h-418.86c-6.32 0-11.44-5.12-11.44-11.44v-5.08l147.15-124.64 44.13 37.38c17.08 14.46 42.1 14.46 59.18 0l44.13-37.38z" fill="#e9edf1"/><path d="m230.147 349.012-183.576 155.488 193.408-10 225.451 10-183.577-155.488c-14.919-12.637-36.787-12.637-51.706 0z" fill="#f7f9fa"/><g fill="#e9edf1"><path d="m465.43 504.5-23.61-20"/><path d="m476.87 484.5v8.56c0 6.32-5.12 11.44-11.44 11.44h-418.86c-6.32 0-11.44-5.12-11.44-11.44v-241.48c7.04 0 13.91 1.79 20 5.15v227.77z"/></g></g><g><path d="m83.5 70.926c4.143 0 7.5-3.357 7.5-7.5v-34.926c0-7.444 6.056-13.5 13.5-13.5h303c7.444 0 13.5 6.056 13.5 13.5v118.415c0 4.143 3.357 7.5 7.5 7.5s7.5-3.357 7.5-7.5v-118.415c0-15.715-12.785-28.5-28.5-28.5h-303c-15.715 0-28.5 12.785-28.5 28.5v34.926c0 4.142 3.357 7.5 7.5 7.5z"/><path d="m484.371 251.539c-.358-1.99.309-2.613-2.802-5.804l-45.569-36.598v-27.372c0-4.143-3.357-7.5-7.5-7.5s-7.5 3.357-7.5 7.5v94.427l-106.759 90.424-27.541-23.327c-17.788-15.067-43.61-15.067-61.4 0l-27.541 23.327-106.759-90.424v-177.916c0-4.143-3.357-7.5-7.5-7.5s-7.5 3.357-7.5 7.5v110.861l-45.569 36.598c-1.298 1.202-2.667 2.636-2.804 5.848v111.587c0 4.143 3.357 7.5 7.5 7.5s7.5-3.357 7.5-7.5v-103.247c5.301 1.2 10.279 3.662 14.476 7.216l129.052 109.306-141.635 119.963c-1.13-.694-1.893-1.932-1.893-3.353v-95.417c0-4.143-3.357-7.5-7.5-7.5s-7.5 3.357-7.5 7.5v95.417c0 10.446 8.498 18.944 18.943 18.944h418.86c10.445 0 18.943-8.498 18.943-18.944v-241.472c0-.015-.002-.029-.002-.044zm-431.896-4.269 23.525-18.894v35.111l-9.203-7.795c-4.286-3.629-9.141-6.46-14.322-8.422zm383.525-18.894 23.525 18.894c-5.182 1.962-10.037 4.793-14.323 8.423l-9.202 7.795zm-201.005 126.358c12.17-10.309 29.84-10.309 42.01 0l83.854 71.024c3.162 2.68 7.894 2.285 10.57-.875 2.678-3.161 2.285-7.894-.875-10.57l-44.71-37.869 129.052-109.304c4.197-3.555 9.176-6.017 14.477-7.217v233.133c0 1.421-.762 2.658-1.893 3.353l-70.216-59.472c-3.161-2.679-7.893-2.285-10.57.875-2.678 3.161-2.285 7.894.875 10.57l57.402 48.618h-377.942z"/><path d="m316.769 76c4.143 0 7.5-3.357 7.5-7.5s-3.357-7.5-7.5-7.5h-121.538c-4.143 0-7.5 3.357-7.5 7.5s3.357 7.5 7.5 7.5z"/><path d="m381.426 123.894h-234.676c-4.143 0-7.5 3.357-7.5 7.5s3.357 7.5 7.5 7.5h234.676c4.143 0 7.5-3.357 7.5-7.5s-3.358-7.5-7.5-7.5z"/><path d="m381.426 153.894h-250.852c-4.143 0-7.5 3.357-7.5 7.5s3.357 7.5 7.5 7.5h250.852c4.143 0 7.5-3.357 7.5-7.5s-3.358-7.5-7.5-7.5z"/><path d="m372.75 191.394c0-4.143-3.357-7.5-7.5-7.5h-234.676c-4.143 0-7.5 3.357-7.5 7.5s3.357 7.5 7.5 7.5h234.676c4.143 0 7.5-3.358 7.5-7.5z"/><path d="m381.426 213.894h-179.235c-4.143 0-7.5 3.357-7.5 7.5s3.357 7.5 7.5 7.5h179.234c4.143 0 7.5-3.357 7.5-7.5s-3.357-7.5-7.499-7.5z"/><path d="m130.574 213.894c-4.143 0-7.5 3.357-7.5 7.5s3.357 7.5 7.5 7.5h41.617c4.143 0 7.5-3.357 7.5-7.5s-3.357-7.5-7.5-7.5z"/><path d="m381.426 262.011h-64.657c-4.143 0-7.5 3.357-7.5 7.5s3.357 7.5 7.5 7.5h64.657c4.143 0 7.5-3.357 7.5-7.5s-3.358-7.5-7.5-7.5z"/></g></g></svg>