<?xml version="1.0" encoding="iso-8859-1"?>
<!-- Generator: Adobe Illustrator 19.0.0, SVG Export Plug-In . SVG Version: 6.00 Build 0)  -->
<svg version="1.1" id="Capa_1" xmlns="http://www.w3.org/2000/svg" xmlns:xlink="http://www.w3.org/1999/xlink" x="0px" y="0px"
	 viewBox="0 0 512 512" style="enable-background:new 0 0 512 512;" xml:space="preserve">
<path style="fill:#78D2FA;" d="M221.322,386.022l-95.339-95.339c-6.805-6.805-7.799-17.49-2.368-25.434l33.437-48.902
	c5.432-7.944,4.436-18.629-2.368-25.434l-76.621-76.621c-7.811-7.811-20.476-7.811-28.287,0l0,0
	c-53.117,53.117-53.117,139.238,0,192.354l155.581,155.581c53.117,53.117,139.238,53.117,192.354,0l0,0
	c7.811-7.811,7.811-20.476,0-28.287l-76.621-76.621c-6.805-6.805-17.49-7.799-25.434-2.368l-48.902,33.437
	C238.811,393.822,228.126,392.827,221.322,386.022z"/>
<g>
	<path style="fill:#C8F5FF;" d="M397.712,433.942l-76.621-76.621c-6.805-6.805-17.49-7.799-25.434-2.368l-37.63,25.73
		l106.139,106.139c12.076-6.267,23.413-14.46,33.545-24.593l0,0C405.523,454.419,405.523,441.753,397.712,433.942z"/>
	<path style="fill:#C8F5FF;" d="M131.323,253.978l25.73-37.63c5.432-7.944,4.436-18.629-2.368-25.434l-76.621-76.621
		c-7.811-7.811-20.476-7.811-28.287,0l0,0c-10.132,10.132-18.326,21.468-24.593,33.545L131.323,253.978z"/>
</g>
<path style="fill:#91E696;" d="M458.489,89.266H327.474c-24.027,0-43.505,19.478-43.505,43.505V268.53
	c0,24.027,19.478,43.505,43.505,43.505h60.327v38.755l39.002-38.755h31.685c24.027,0,43.505-19.478,43.505-43.505V132.771
	C501.994,108.744,482.516,89.266,458.489,89.266z"/>
<path style="fill:#7D9BFF;" d="M442.799,236.804l-18.864-3.518l-57.78,0.013l-18.793,3.505
	c-15.333,2.859-26.449,16.241-26.449,31.838v42.835h66.131v39.314l43.056-39.314h34.977c1.406,0,2.795-0.073,4.17-0.192v-42.643
	C469.248,253.045,458.132,239.664,442.799,236.804z"/>
<path style="fill:#FFCDAC;" d="M395.081,153.442L395.081,153.442c-19.505,0-35.318,15.813-35.318,35.318v22.983
	c0,19.505,15.813,35.318,35.318,35.318l0,0c19.505,0,35.318-15.813,35.318-35.318V188.76
	C430.399,169.255,414.586,153.442,395.081,153.442z"/>
<path d="M129.038,20.002c56.493,0,102.453,47.153,102.453,105.115c0,5.523,4.479,10.001,10.001,10.001s10.001-4.479,10.001-10.001
	C251.494,56.127,196.56,0,129.038,0c-5.523,0-10.001,4.478-10.001,10.001S123.515,20.002,129.038,20.002z"/>
<path d="M129.005,67.45c30.935,0,56.102,25.869,56.102,57.666c0,5.523,4.478,10.001,10.001,10.001
	c5.523,0,10.001-4.479,10.001-10.001c0-42.827-34.141-77.669-76.104-77.669c-5.523,0-10.001,4.478-10.001,10.001
	S123.483,67.45,129.005,67.45z"/>
<path d="M119.198,101.156c0,5.523,4.479,10.001,10.001,10.001c7.227,0,13.105,6.124,13.105,13.652
	c0,5.523,4.479,10.001,10.001,10.001c5.523,0,10.001-4.479,10.001-10.001c0-18.557-14.853-33.654-33.108-33.654
	C123.676,91.155,119.198,95.633,119.198,101.156z"/>
<path d="M458.489,79.265h-22.169c-5.523,0-10.001,4.478-10.001,10.001c0,5.523,4.478,10.001,10.001,10.001h22.169
	c18.474,0,33.504,15.03,33.504,33.504V268.53c0,10.637-4.989,20.124-12.742,26.266v-26.154c0-20.404-14.559-37.929-34.617-41.67
	l-6.465-1.205c1.442-4.419,2.231-9.13,2.231-14.025v-22.982c0-24.989-20.33-45.319-45.319-45.319s-45.318,20.33-45.318,45.319
	v22.982c0,4.895,0.79,9.605,2.231,14.025l-6.465,1.205c-20.059,3.74-34.617,21.265-34.617,41.67v28.993
	c-10.108-5.775-16.941-16.654-16.941-29.105V132.771c0-18.474,15.03-33.504,33.504-33.504h23.836
	c5.523,0,10.001-4.479,10.001-10.001c0-5.523-4.479-10.001-10.001-10.001h-23.836c-29.503,0-53.506,24.003-53.506,53.506V268.53
	c0,29.503,24.003,53.506,53.506,53.506h50.326v28.755c0,4.039,2.43,7.683,6.159,9.233c1.242,0.517,2.546,0.768,3.84,0.768
	c2.592,0,5.141-1.008,7.052-2.906l36.076-35.85h27.561c29.503,0,53.506-24.003,53.506-53.506V132.771
	C511.995,103.267,487.992,79.265,458.489,79.265z M369.764,188.76c0-13.96,11.356-25.317,25.316-25.317s25.317,11.357,25.317,25.317
	v22.982c0,13.96-11.357,25.317-25.317,25.317s-25.316-11.357-25.316-25.317V188.76z M426.803,302.034
	c-2.642,0-5.176,1.045-7.05,2.906l-21.951,21.814v-14.72c0-5.523-4.479-10.001-10.001-10.001h-56.887v-33.392
	c0-10.775,7.689-20.031,18.281-22.007l14.099-2.629c8.186,8.067,19.412,13.055,31.786,13.055s23.601-4.99,31.787-13.056l14.1,2.629
	c10.593,1.976,18.281,11.231,18.281,22.007v33.372c-0.253,0.006-0.504,0.019-0.759,0.019h-31.683V302.034z"/>
<path d="M388.981,99.271c2.63,0,5.211-1.07,7.07-2.93c1.86-1.87,2.931-4.44,2.931-7.071c0-2.64-1.07-5.211-2.931-7.071
	c-1.859-1.87-4.439-2.93-7.07-2.93c-2.63,0-5.211,1.06-7.071,2.93c-1.86,1.851-2.93,4.431-2.93,7.071c0,2.63,1.069,5.211,2.93,7.071
	C383.771,98.2,386.351,99.271,388.981,99.271z"/>
<path d="M178.807,333.507c-2.63,0-5.211,1.07-7.07,2.93c-1.86,1.86-2.931,4.441-2.931,7.071c0,2.64,1.07,5.211,2.931,7.071
	c1.869,1.87,4.439,2.939,7.07,2.939c2.63,0,5.211-1.069,7.071-2.939c1.87-1.86,2.93-4.431,2.93-7.071c0-2.63-1.06-5.211-2.93-7.071
	C184.017,334.577,181.448,333.507,178.807,333.507z"/>
<path d="M328.163,350.249c-10.2-10.2-26.246-11.692-38.15-3.551l-48.902,33.438c-3.969,2.713-9.315,2.216-12.716-1.185
	l-16.171-16.172c-3.904-3.903-10.235-3.904-14.145,0c-3.905,3.905-3.905,10.237,0,14.145l16.171,16.172
	c10.2,10.199,26.244,11.694,38.15,3.551l48.902-33.437c3.967-2.713,9.315-2.217,12.716,1.184l76.621,76.621
	c3.899,3.898,3.898,10.244-0.001,14.145c-49.132,49.132-129.077,49.132-178.209,0L56.848,299.576
	c-23.802-23.801-36.908-55.445-36.908-89.105s13.107-65.305,36.909-89.107c1.889-1.889,4.399-2.928,7.071-2.928
	c2.672,0,5.184,1.04,7.072,2.929l76.62,76.621c3.399,3.399,3.897,8.748,1.185,12.716l-33.436,48.902
	c-8.143,11.905-6.649,27.949,3.55,38.15l24.308,24.308c3.906,3.904,10.237,3.904,14.145,0c3.905-3.905,3.905-10.238,0-14.145
	l-24.308-24.308c-3.399-3.399-3.897-8.747-1.184-12.715l33.437-48.902c8.141-11.906,6.647-27.951-3.552-38.15l-76.62-76.621
	c-11.698-11.698-30.733-11.698-42.433,0c-56.931,56.932-56.931,149.567,0,206.499l155.582,155.581
	C226.752,497.767,264.143,512,301.534,512c37.392-0.001,74.783-14.234,103.249-42.699c11.697-11.698,11.697-30.732,0-42.432
	L328.163,350.249z"/>
<path d="M127.655,262.993c-2.56,0-5.119-0.977-7.072-2.929l-60.627-60.626c-3.905-3.905-3.905-10.238,0-14.145
	c3.906-3.904,10.237-3.904,14.145,0l60.626,60.626c3.905,3.905,3.905,10.238,0,14.145
	C132.774,262.016,130.214,262.993,127.655,262.993z"/>
<path d="M359.688,495.026c-2.56,0-5.119-0.977-7.072-2.929l-63.789-63.789c-3.905-3.905-3.905-10.238,0-14.145
	c3.906-3.904,10.237-3.904,14.145,0l63.789,63.789c3.905,3.905,3.905,10.238,0,14.145
	C364.806,494.049,362.247,495.026,359.688,495.026z"/>
<g>
</g>
<g>
</g>
<g>
</g>
<g>
</g>
<g>
</g>
<g>
</g>
<g>
</g>
<g>
</g>
<g>
</g>
<g>
</g>
<g>
</g>
<g>
</g>
<g>
</g>
<g>
</g>
<g>
</g>
</svg>
