<svg id="Capa_1" enable-background="new 0 0 512 512" height="512" viewBox="0 0 512 512" width="512" xmlns="http://www.w3.org/2000/svg"><g><g><path d="m134.489 154.142v52.473h358.362v-52.473c0-8.13-6.59-14.72-14.72-14.72h-328.922c-8.13-.001-14.72 6.59-14.72 14.72z" fill="#dddaec"/><g><g><g><g><g><path d="m450.836 486.71v-279.739c0-13.92-11.284-25.204-25.204-25.204h-400.428c-13.92 0-25.204 11.284-25.204 25.204v279.739c0 13.92 11.284 25.204 25.204 25.204h400.427c13.92 0 25.205-11.284 25.205-25.204z" fill="#4a80aa"/><path d="m486.796 181.767h-68.891c13.92 0 25.204 11.284 25.204 25.204v279.739c0 13.92-11.284 25.204-25.204 25.204h68.891c13.92 0 25.204-11.284 25.204-25.204v-279.739c0-13.92-11.284-25.204-25.204-25.204z" fill="#407093"/><path d="m134.489 201.309v-33.504c0-18.591-15.071-33.662-33.662-33.662h-26.126c-18.591 0-33.662 15.071-33.662 33.662v33.504c0 5.196.906 10.353 2.677 15.238v.001c1.771 4.885 2.677 10.042 2.677 15.238v135.5c0 5.196-.906 10.353-2.677 15.238-1.771 4.885-2.677 10.042-2.677 15.238v33.504c0 18.591 15.071 33.662 33.662 33.662h26.125c18.591 0 33.662-15.071 33.662-33.662v-33.504c0-5.196-.906-10.353-2.677-15.238-1.771-4.885-2.677-10.042-2.677-15.238v-135.5c0-5.196.906-10.353 2.677-15.238v-.001c1.772-4.886 2.678-10.042 2.678-15.238z" fill="#365e7d"/></g></g></g><path d="m382.333 321.851v-40.067c0-7.002-5.676-12.677-12.677-12.678h-172.748c-7.002 0-12.678 5.676-12.678 12.678v40.067c0 7.002 5.676 12.678 12.678 12.678h172.747c7.002 0 12.678-5.676 12.678-12.678z" fill="#9bc4f9"/><path d="m430.431 269.106h-68.502c7.002 0 12.678 5.676 12.678 12.678v40.067c0 7.002-5.676 12.678-12.678 12.678h68.502c7.002 0 12.678-5.676 12.678-12.678v-40.067c0-7.002-5.676-12.678-12.678-12.678z" fill="#7fb2f9"/><g><path d="m394.383 224.967v-221.211c-3.673-2.37-7.971-3.671-12.41-3.671h-189.473c-12.647 0-22.899 10.252-22.899 22.899v199.342c0 7.467 6.053 13.52 13.52 13.52h205.974c3.216-2.539 5.288-6.464 5.288-10.879z" fill="#fff0af"/><g><path d="m451.031 59.658-52.866-52.866c-2.629-2.629-5.835-4.544-9.318-5.64v221.175c0 7.467-6.053 13.52-13.52 13.52h68.891c7.467 0 13.52-6.053 13.52-13.52v-146.477c0-6.073-2.412-11.897-6.707-16.192z" fill="#ffe07d"/></g><path d="m451.031 59.658-52.866-52.866c-2.619-2.619-5.811-4.527-9.277-5.626v54.711c0 7.212 5.847 13.059 13.059 13.059h54.711c-1.1-3.467-3.008-6.659-5.627-9.278z" fill="#ffc250"/></g></g><g><g><g><g><path d="m215.92 384.193h-17.822c-4.268 0-7.726-3.459-7.726-7.726 0-4.268 3.459-7.726 7.726-7.726h17.822c4.268 0 7.726 3.459 7.726 7.726s-3.459 7.726-7.726 7.726z" fill="#f9f6f9"/></g></g><g><g><path d="m215.92 422.689h-17.822c-4.268 0-7.726-3.459-7.726-7.726 0-4.268 3.459-7.726 7.726-7.726h17.822c4.268 0 7.726 3.459 7.726 7.726s-3.459 7.726-7.726 7.726z" fill="#f9f6f9"/></g></g><g><g><path d="m215.92 461.185h-17.822c-4.268 0-7.726-3.459-7.726-7.726s3.459-7.726 7.726-7.726h17.822c4.268 0 7.726 3.459 7.726 7.726s-3.459 7.726-7.726 7.726z" fill="#f9f6f9"/></g></g></g><g><g><g><path d="m285.552 384.193h-17.822c-4.268 0-7.726-3.459-7.726-7.726 0-4.268 3.459-7.726 7.726-7.726h17.822c4.268 0 7.726 3.459 7.726 7.726.001 4.267-3.458 7.726-7.726 7.726z" fill="#f9f6f9"/></g></g><g><g><path d="m285.552 422.689h-17.822c-4.268 0-7.726-3.459-7.726-7.726 0-4.268 3.459-7.726 7.726-7.726h17.822c4.268 0 7.726 3.459 7.726 7.726.001 4.267-3.458 7.726-7.726 7.726z" fill="#f9f6f9"/></g></g><g><g><path d="m285.552 461.185h-17.822c-4.268 0-7.726-3.459-7.726-7.726s3.459-7.726 7.726-7.726h17.822c4.268 0 7.726 3.459 7.726 7.726s-3.458 7.726-7.726 7.726z" fill="#f9f6f9"/></g></g></g><g><g><g><path d="m355.185 384.193h-17.822c-4.268 0-7.726-3.459-7.726-7.726 0-4.268 3.459-7.726 7.726-7.726h17.822c4.268 0 7.726 3.459 7.726 7.726s-3.458 7.726-7.726 7.726z" fill="#f9f6f9"/></g></g><g><g><path d="m355.185 422.689h-17.822c-4.268 0-7.726-3.459-7.726-7.726 0-4.268 3.459-7.726 7.726-7.726h17.822c4.268 0 7.726 3.459 7.726 7.726s-3.458 7.726-7.726 7.726z" fill="#f9f6f9"/></g></g><g><g><path d="m355.185 461.185h-17.822c-4.268 0-7.726-3.459-7.726-7.726s3.459-7.726 7.726-7.726h17.822c4.268 0 7.726 3.459 7.726 7.726s-3.458 7.726-7.726 7.726z" fill="#f9f6f9"/></g></g></g><g><g><g><path d="m424.818 384.193h-17.823c-4.268 0-7.726-3.459-7.726-7.726 0-4.268 3.459-7.726 7.726-7.726h17.823c4.268 0 7.726 3.459 7.726 7.726s-3.458 7.726-7.726 7.726z" fill="#f9f6f9"/></g></g><g><g><path d="m424.818 422.689h-17.823c-4.268 0-7.726-3.459-7.726-7.726 0-4.268 3.459-7.726 7.726-7.726h17.823c4.268 0 7.726 3.459 7.726 7.726s-3.458 7.726-7.726 7.726z" fill="#f9f6f9"/></g></g><g><g><path d="m424.818 461.185h-17.823c-4.268 0-7.726-3.459-7.726-7.726s3.459-7.726 7.726-7.726h17.823c4.268 0 7.726 3.459 7.726 7.726s-3.458 7.726-7.726 7.726z" fill="#f9f6f9"/></g></g></g></g></g></g></g></svg>