<svg id="Capa_1" enable-background="new 0 0 512 512" height="512" viewBox="0 0 512 512" width="512" xmlns="http://www.w3.org/2000/svg"><g><path d="m173.167 439.467v27.394c0 1.443 1.17 2.613 2.613 2.613h26.637v-30.007z" fill="#ffece4"/><path d="m338.833 439.467v-30.612c0-17.777-14.411-32.188-32.188-32.188h-18.256l-26.469 16.995c-.827.531-1.788.813-2.771.813h-6.3c-.982 0-1.944-.282-2.771-.813l-26.469-16.995h-18.256c-17.777 0-32.188 14.411-32.188 32.188v30.612h29.25v30.007h107.167v-30.007z" fill="#9dc6fb"/><path d="m309.583 439.467v30.007h26.637c1.443 0 2.613-1.17 2.613-2.613v-27.394z" fill="#ffece4"/><path d="m278.753 367.03v-9.653c-7.976 5.456-16.785 8.581-22.753 8.581s-14.776-3.124-22.753-8.581v9.653c0 5.322-4.314 9.636-9.636 9.636l26.469 16.995c.827.531 1.788.813 2.771.813h6.3c.982 0 1.944-.282 2.771-.813l26.469-16.995c-5.324 0-9.638-4.314-9.638-9.636z" fill="#ffddce"/><path d="m472.312 376.666h-18.256l-23.818 15.293c-2.557 1.642-5.532 2.515-8.571 2.515-3.039 0-6.014-.873-8.571-2.515l-23.818-15.293h-18.256c-17.777 0-32.188 14.411-32.188 32.188v58.006c0 1.443 1.17 2.613 2.613 2.613h160.441c1.443 0 2.613-1.17 2.613-2.613v-58.006c-.001-17.776-14.412-32.188-32.189-32.188z" fill="#617881"/><path d="m444.419 367.03v-9.653c-7.976 5.456-16.785 8.581-22.753 8.581s-14.776-3.124-22.753-8.581v9.653c0 5.322-4.314 9.636-9.636 9.636l23.818 15.293c2.557 1.642 5.532 2.515 8.571 2.515 3.039 0 6.014-.873 8.571-2.515l23.818-15.293c-5.321 0-9.636-4.314-9.636-9.636z" fill="#d59b8b"/><path d="m223.611 376.666-8.547 27.664c-.924 2.992 2.184 5.636 4.989 4.243l30.027-14.912z" fill="#bed8fb"/><path d="m288.389 376.666 8.547 27.664c.924 2.992-2.184 5.636-4.989 4.243l-30.027-14.912z" fill="#bed8fb"/><path d="m430.238 391.959c-2.557 1.642-5.532 2.515-8.571 2.515-3.039 0-6.014-.873-8.571-2.515l-23.818-15.293 32.389 92.807 32.389-92.807z" fill="#f1eaf9"/><path d="m90.333 400.857c17.453 0 32.352-10.048 38.215-24.191h-5.826c-5.322 0-9.636-4.314-9.636-9.636v-9.653c-7.976 5.456-16.785 8.581-22.753 8.581s-14.776-3.125-22.753-8.581v9.653c0 5.322-4.314 9.636-9.636 9.636h-5.825c5.863 14.143 20.761 24.191 38.214 24.191z" fill="#ffe4c1"/><path d="m140.978 376.666h-12.43c-5.863 14.143-20.761 24.191-38.215 24.191s-32.352-10.048-38.215-24.191h-12.43c-17.777 0-32.188 14.411-32.188 32.188v58.007c0 1.443 1.17 2.613 2.613 2.613h160.441c1.443 0 2.613-1.17 2.613-2.613v-58.007c0-17.776-14.412-32.188-32.189-32.188z" fill="#e28086"/><path d="m83.157 280.768 2.192 2.192c2.116 2.116 5.546 2.116 7.662 0l1.659-1.659c6.597-6.597 17.293-6.597 23.89 0l15.661 15.661.668-9.072c1.921-26.084-18.886-48.277-45.119-47.955-26.1.32-45.876 22.407-43.959 48.438l.401 5.448 13.053-13.053c6.599-6.597 17.295-6.597 23.892 0z" fill="#617881"/><path d="m118.561 281.301c-6.597-6.597-17.293-6.597-23.89 0l-1.659 1.659c-2.116 2.116-5.546 2.116-7.662 0l-2.192-2.192c-6.597-6.597-17.293-6.597-23.891 0l-13.053 13.053.575 7.812 2.026 27.506c1.602 21.747 28.412 36.818 41.519 36.818s39.917-15.071 41.519-36.818l2.001-27.164.369-5.013z" fill="#fff1dd"/><path d="m243.297 274.072c10.485 10.485 24.706 16.375 39.534 16.375h17.538l.188-2.556c1.921-26.084-18.886-48.277-45.119-47.955-26.1.32-45.876 22.407-43.959 48.438l.97 13.176 27.478-27.478c.93-.931 2.439-.931 3.37 0z" fill="#ffd064"/><path d="m282.83 290.447c-14.828 0-29.049-5.89-39.534-16.375-.931-.93-2.439-.93-3.37 0l-27.478 27.478.006.084 2.026 27.506c1.602 21.747 28.412 36.818 41.519 36.818s39.917-15.071 41.519-36.818l2.001-27.164.849-11.528h-17.538z" fill="#ffece4"/><path d="m421.104 239.935c-26.1.32-45.876 22.407-43.959 48.438l3.002 40.767c1.602 21.747 28.412 36.818 41.519 36.818s39.917-15.071 41.519-36.818l3.038-41.249c1.921-26.084-18.886-48.277-45.119-47.956z" fill="#dfaca0"/><path d="m133.793 274.184c19.201 28.014 47.785 49.091 81.221 58.703-.259-1.225-.439-2.475-.532-3.747l-2.026-27.506-.006-.084-.97-13.176c-1.917-26.031 17.859-48.118 43.959-48.438 26.233-.321 47.04 21.872 45.119 47.955l-.188 2.556-.849 11.528-2.001 27.164c-.094 1.273-.274 2.522-.532 3.748 33.496-9.63 62.121-30.765 81.324-58.854 2.014-8.293 6.29-15.7 12.186-21.474 8.703-18.854 13.559-39.849 13.559-61.979 0-81.768-66.286-148.054-148.054-148.054s-148.057 66.286-148.057 148.054c0 22.16 4.869 43.183 13.595 62.058 5.943 5.805 10.264 13.242 12.252 21.546z" fill="#95d6a4"/><path d="m328.03 61.199c63.309 87.713 36.197 180.737-27.385 225.121-.02.522-.05 1.046-.088 1.571l-.188 2.556-.849 11.528-2.001 27.164c-.094 1.273-.274 2.522-.532 3.748 33.496-9.63 62.121-30.765 81.324-58.854 2.014-8.293 6.29-15.7 12.186-21.474 8.703-18.854 13.559-39.85 13.559-61.979-.002-55.621-30.673-104.078-76.026-129.381z" fill="#78c2a4"/><path d="m213.282 312.862c-19.98-.36-38.993-4.677-56.289-12.202 16.432 14.788 36.192 25.951 58.021 32.227-.259-1.225-.439-2.475-.532-3.748z" fill="#78c2a4"/><path d="m232.976 235.89c-5.242-8.61-16.469-11.34-25.079-6.099s-11.34 16.469-6.099 25.079c3.354 5.509 7.55 10.27 12.371 14.161 4.489-12.146 14.017-21.832 26.243-26.343-3.022-1.469-5.608-3.795-7.436-6.798z" fill="#f1eaf9"/><path d="m248.221 208.83h15.56c9.825 0 17.819 7.994 17.819 17.821 0 7.052-4.118 13.161-10.076 16.048 12.172 4.509 21.793 14.161 26.324 26.223 12.343-9.963 20.252-25.209 20.252-42.271 0-29.953-24.368-54.321-54.319-54.321h-15.56c-9.827 0-17.821-7.994-17.821-17.821 0-9.826 7.994-17.82 17.821-17.82h15.56c6.275 0 11.974 3.207 15.243 8.58 5.242 8.609 16.472 11.34 25.078 6.1 8.61-5.24 11.341-16.469 6.101-25.078-8.095-13.298-21.092-22.234-35.953-25.103v-8.716c0-10.079-8.171-18.25-18.25-18.25s-18.25 8.171-18.25 18.25v8.74c-24.959 4.894-43.85 26.927-43.85 53.297 0 29.953 24.368 54.321 54.321 54.321z" fill="#f1eaf9"/><path d="m90.349 331.624c8.374 0 15.187-6.813 15.187-15.188v-5.492c0-4.143-3.357-7.5-7.5-7.5s-7.5 3.357-7.5 7.5v5.492c0 .104-.084.188-.187.188-4.143 0-7.5 3.357-7.5 7.5s3.357 7.5 7.5 7.5z"/><path d="m256.015 331.624c8.374 0 15.188-6.813 15.188-15.188v-5.492c0-4.143-3.357-7.5-7.5-7.5s-7.5 3.357-7.5 7.5v5.492c0 .104-.084.188-.188.188-4.143 0-7.5 3.357-7.5 7.5s3.357 7.5 7.5 7.5z"/><path d="m472.312 369.166h-18.256c-1.178 0-2.137-.958-2.137-2.136v-5.893c9.77-7.58 17.782-18.352 18.746-31.447 2.329-31.627 1.646-22.353 3.038-41.249 1.07-14.536-4.043-28.963-14.029-39.581-9.985-10.616-24.067-16.609-38.661-16.424-5.512.067-10.857.963-15.899 2.626 4.281-14.337 6.441-29.225 6.441-44.483 0-85.772-69.781-155.554-155.555-155.554-45.24 0-88.162 19.651-117.761 53.916-2.708 3.134-2.361 7.87.773 10.578s7.87 2.364 10.578-.773c26.748-30.962 65.532-48.72 106.41-48.72 77.502 0 140.555 63.052 140.555 140.554 0 20.102-4.147 39.49-12.328 57.648-6.088 6.312-10.563 14.039-12.895 22.712-16.315 23.366-39.353 41.241-65.778 51.209.597-8.108 1.924-26.132 2.483-33.708.427-5.795-.129-11.573-1.585-17.098 12.229-11.651 19.149-27.669 19.149-44.692 0-34.089-27.731-61.821-61.818-61.821h-15.561c-5.691 0-10.321-4.63-10.321-10.32s4.63-10.32 10.321-10.32h15.561c3.636 0 6.938 1.861 8.837 4.981 7.386 12.127 23.257 15.988 35.383 8.605 12.128-7.382 15.99-23.255 8.608-35.385-7.958-13.074-20.443-22.699-34.859-27.064v-2.855c0-14.198-11.552-25.75-25.75-25.75s-25.75 11.552-25.75 25.75v2.89c-25.744 7.818-43.85 31.773-43.85 59.148 0 34.088 27.732 61.82 61.82 61.82h15.561c5.69 0 10.319 4.63 10.319 10.321 0 3.031-1.367 5.895-3.622 7.837-4.873-1.41-9.97-2.117-15.132-2.052-4.79.058-9.453.742-13.902 2.012-.798-.699-1.494-1.526-2.061-2.459-7.385-12.128-23.258-15.987-35.386-8.604-5.875 3.576-10.005 9.228-11.631 15.91-1.625 6.684-.55 13.601 3.026 19.475 2.848 4.68 6.25 8.918 10.146 12.649-1.449 5.601-1.982 11.493-1.539 17.505l.969 13.153c.001.02.007.099.008.108l1.471 19.963c-26.417-9.966-49.455-27.837-65.766-51.193-2.253-8.294-6.576-16.148-12.872-22.651-8.204-18.178-12.362-37.59-12.362-57.724 0-22.278 5.058-43.58 15.033-63.314 1.869-3.697.387-8.209-3.31-10.077-3.697-1.87-8.208-.386-10.077 3.31-11.046 21.853-16.646 45.431-16.646 70.082 0 15.284 2.168 30.197 6.463 44.554-5.504-1.849-11.327-2.784-17.228-2.697-14.555.178-27.94 6.128-37.691 16.753-9.899 10.787-14.749 24.898-13.655 39.733l.4 5.439c0 .004 0 .008.001.011l2.602 35.317c.964 13.095 8.976 23.866 18.745 31.447v5.893c0 1.178-.958 2.136-2.136 2.136h-18.262c-21.884-.001-39.688 17.803-39.688 39.687v12.662c0 4.143 3.357 7.5 7.5 7.5s7.5-3.357 7.5-7.5v-12.662c0-13.613 11.075-24.688 24.688-24.688h7.757c8.258 14.65 24.867 24.191 42.888 24.191s34.631-9.541 42.889-24.191h7.757c13.613 0 24.688 11.075 24.688 24.688v53.119h-14.25v-30.477c0-4.143-3.357-7.5-7.5-7.5s-7.5 3.357-7.5 7.5v30.477h-92.167v-30.477c0-4.143-3.357-7.5-7.5-7.5s-7.5 3.357-7.5 7.5v30.477h-14.25v-5.457c0-4.143-3.357-7.5-7.5-7.5s-7.5 3.357-7.5 7.5v10.345c0 5.576 4.536 10.112 10.112 10.112h160.441c.903 0 1.779-.12 2.613-.343.834.223 1.709.343 2.613.343h160.441c.903 0 1.779-.12 2.613-.343.834.223 1.709.343 2.613.343h160.44c5.576 0 10.113-4.536 10.113-10.112v-58.007c.001-21.884-17.803-39.688-39.687-39.688zm-32.334 7.626-13.794 8.857c-2.701 1.734-6.334 1.735-9.037-.001l-13.793-8.856c1.429-2.055 2.421-4.436 2.838-7.007 5.712 2.399 11.176 3.673 15.474 3.673s9.762-1.275 15.474-3.673c.418 2.571 1.409 4.952 2.838 7.007zm18.864-90.79-3.136 42.587c-1.271 17.256-24.542 29.869-34.039 29.869s-32.769-12.613-34.04-29.869l-3.112-42.258.046-.003c-.437-10.839 3.618-20.921 11.054-28.285.089-.083.175-.167.26-.255 6.769-6.575 15.678-10.235 25.321-10.353 10.508-.106 20.331 4.026 27.551 11.702 6.913 7.351 10.462 16.845 10.072 26.863zm-88.641 10.191 2.467 33.497c.964 13.095 8.976 23.867 18.746 31.447v5.893c0 1.178-.959 2.136-2.137 2.136h-18.256c-13.233 0-24.974 6.51-32.188 16.495-7.215-9.985-18.955-16.495-32.188-16.495h-18.256c-1.178 0-2.136-.958-2.136-2.136v-5.893c7.379-5.726 13.755-13.271 16.849-22.264 25.685-8.156 48.833-22.949 67.099-42.68zm-83.14 101.579-9.959-4.946 7.035-4.517zm-28.607-10.798h-4.909l-15.857-10.182c1.429-2.055 2.421-4.436 2.838-7.007 5.712 2.399 11.176 3.673 15.474 3.673s9.763-1.275 15.474-3.673c.417 2.571 1.408 4.952 2.838 7.007zm-23.556 5.852-9.959 4.946 2.924-9.463zm-12.536-61.447c-.525-2.459-.269-1.911-2.18-26.954l21.573-21.574c11.454 9.771 25.854 15.097 41.075 15.097h9.466l-2.257 30.642c-1.271 17.256-24.542 29.869-34.039 29.869-8.977-.001-30.261-11.271-33.638-27.08zm41.419-130.049h-15.561c-25.816 0-46.82-21.004-46.82-46.82 0-22.324 15.895-41.644 37.793-45.938 3.519-.689 6.057-3.773 6.057-7.359v-8.74c0-5.928 4.822-10.75 10.75-10.75s10.75 4.822 10.75 10.75v8.716c0 3.594 2.549 6.683 6.078 7.364 13.005 2.512 24.003 10.196 30.968 21.638 3.082 5.064 1.47 11.691-3.595 14.773-5.063 3.083-11.688 1.469-14.771-3.591-4.64-7.629-12.733-12.183-21.649-12.183h-15.561c-13.962 0-25.321 11.358-25.321 25.32s11.359 25.32 25.321 25.32h15.561c25.815 0 46.818 21.004 46.818 46.821 0 10.999-3.821 21.448-10.703 29.763-3.956-6.17-9.147-11.41-15.282-15.429 2.858-4.157 4.486-9.145 4.486-14.333.001-13.963-11.358-25.322-25.319-25.322zm19.299 57.807c6.206 6.599 9.701 14.931 10.069 23.811h-10.319c-12.931 0-25.087-5.035-34.229-14.18-1.867-1.866-4.349-2.895-6.988-2.895-2.641 0-5.122 1.028-6.989 2.896l-15.772 15.773c.061-7.61 2.296-12.647 2.516-13.396 9.969-25.898 43.236-31.652 61.712-12.009zm-74.875-8.167c-1.493-2.452-1.941-5.34-1.264-8.13.679-2.79 2.403-5.149 4.856-6.643 5.061-3.082 11.689-1.472 14.771 3.591.238.392.486.776.744 1.153-6.097 4.027-11.326 9.381-15.239 15.493-1.406-1.717-2.698-3.541-3.868-5.464zm-145.165 8.362c6.924-7.545 16.45-11.771 26.823-11.897 9.915-.135 19.23 3.575 26.317 10.451.079.081.161.16.243.238 5.883 5.81 9.599 13.165 10.726 21.161l-3.286-3.286c-9.509-9.509-24.986-9.51-34.498.002l-.186.186-.719-.72c-4.607-4.607-10.733-7.145-17.249-7.145-6.287 0-12.21 2.362-16.756 6.666 1.537-5.799 4.441-11.141 8.585-15.656zm-9.095 37.364 10.625-10.625c1.773-1.774 4.133-2.751 6.642-2.751s4.867.978 6.642 2.752l2.191 2.191c5.037 5.037 13.232 5.037 18.271-.002l1.656-1.657c3.664-3.662 9.624-3.662 13.284 0l13.233 13.233-2.118 28.751c-1.271 17.256-24.542 29.869-34.039 29.869s-32.768-12.613-34.039-29.869zm36.388 96.661c-9.944 0-19.225-4.046-25.467-10.652 5.204-2.307 9.053-7.132 9.993-12.92 5.712 2.399 11.176 3.673 15.474 3.673s9.763-1.275 15.474-3.673c.939 5.788 4.789 10.613 9.993 12.92-6.241 6.607-15.522 10.652-25.467 10.652zm50.646-24.191h-18.256c-1.178 0-2.137-.958-2.137-2.136v-5.893c9.77-7.58 17.781-18.351 18.745-31.447.432-5.861 2.271-30.827 2.467-33.498 18.266 19.73 41.418 34.524 67.1 42.679 3.094 8.993 9.47 16.539 16.849 22.265v5.893c0 1.178-.958 2.136-2.136 2.136h-18.256c-13.233 0-24.974 6.51-32.188 16.495-7.215-9.984-18.955-16.494-32.188-16.494zm39.688 77.801h14.25v15.007h-14.25zm29.25-15.47c0-4.143-3.357-7.5-7.5-7.5s-7.5 3.357-7.5 7.5v.47h-14.25v-23.112c0-13.613 11.075-24.688 24.688-24.688h8.088l-5.546 17.95c-1.308 4.233.027 8.823 3.402 11.693 3.381 2.876 8.132 3.448 12.089 1.48l27.217-13.517c.737.133 1.487.2 2.244.2h6.3c.757 0 1.508-.068 2.245-.2l27.216 13.517c3.998 1.986 8.741 1.367 12.087-1.479 3.376-2.87 4.713-7.46 3.405-11.694l-5.547-17.951h8.089c13.613 0 24.688 11.075 24.688 24.688v23.112h-14.25v-.47c0-4.143-3.357-7.5-7.5-7.5s-7.5 3.357-7.5 7.5v30.477h-92.166v-30.476zm121.416 15.47v15.007h-14.249v-15.007zm15-38.113c0-13.613 11.075-24.688 24.688-24.688h12.93l6.688 19.163c1.364 3.91 5.637 5.973 9.553 4.609 3.91-1.364 5.975-5.642 4.609-9.553l-1.277-3.66 5.52 3.544c7.688 4.937 17.55 4.943 25.246.001l5.521-3.545-18.143 51.986-4.807-13.771c-1.364-3.91-5.64-5.976-9.553-4.609-3.91 1.365-5.975 5.642-4.609 9.553l8.407 24.09h-35.523v-30.477c0-4.143-3.357-7.5-7.5-7.5s-7.5 3.357-7.5 7.5v30.477h-14.25zm150.667 53.12h-14.25v-30.477c0-4.143-3.357-7.5-7.5-7.5s-7.5 3.357-7.5 7.5v30.477h-35.522l27.154-77.808h12.93c13.613 0 24.688 11.075 24.688 24.688z"/><path d="m429.368 303.444c-4.143 0-7.5 3.357-7.5 7.5v5.492c0 .104-.084.188-.187.188-4.143 0-7.5 3.357-7.5 7.5s3.357 7.5 7.5 7.5c8.374 0 15.187-6.813 15.187-15.188v-5.492c0-4.142-3.357-7.5-7.5-7.5z"/><circle cx="256.015" cy="419.474" r="7.5"/><circle cx="256.015" cy="444.474" r="7.5"/></g></svg>