<svg height="512" viewBox="0 0 512 512" width="512" xmlns="http://www.w3.org/2000/svg"><g id="Flat"><rect fill="#348fd9" height="392" rx="24" width="272" x="24" y="24"/><path d="m88 456h224a24 24 0 0 0 24-24v-344a24 24 0 0 0 -24-24h-176l-72 72v296a24 24 0 0 0 24 24z" fill="#60d1e0"/><path d="m136 112v-48l-72 72h48a24 24 0 0 0 24-24z" fill="#8adbe6"/><g fill="#4eb9c7"><path d="m280 160h-160a24.028 24.028 0 0 0 -24 24v208a24.028 24.028 0 0 0 24 24h160a24.028 24.028 0 0 0 24-24v-208a24.028 24.028 0 0 0 -24-24zm8 24v16h-128v-24h120a8.009 8.009 0 0 1 8 8zm-144 72v24h-32v-24zm-32-16v-24h32v24zm32 56v24h-32v-24zm0 40v24h-32v-24zm16 0h128v24h-128zm0-16v-24h128v24zm0-40v-24h128v24zm0-40v-24h128v24zm-40-64h24v24h-32v-16a8.009 8.009 0 0 1 8-8zm-8 216v-16h32v24h-24a8.009 8.009 0 0 1 -8-8zm168 8h-120v-24h128v16a8.009 8.009 0 0 1 -8 8z"/><path d="m160 128h72v16h-72z"/><path d="m160 96h144v16h-144z"/></g><path d="m435.716 432h-167.432a28.284 28.284 0 0 1 -28.284-28.284 28.284 28.284 0 0 1 8.284-20 26.342 26.342 0 0 0 7.716-18.628v-85.088a64 64 0 0 1 64-64h64a64 64 0 0 1 64 64v85.088a26.342 26.342 0 0 0 7.716 18.628 28.284 28.284 0 0 1 8.284 20 28.284 28.284 0 0 1 -28.284 28.284z" fill="#ffb531"/><path d="m400 168h-96l16 48h64z" fill="#fcac1f"/><path d="m384 296v-2.053a21.973 21.973 0 0 0 -21.947-21.947h-2.053v-8h-16v8h-2.053a21.948 21.948 0 0 0 -6.94 42.769l28.926 9.642a5.947 5.947 0 0 1 -1.88 11.589h-20.106a5.954 5.954 0 0 1 -5.947-5.947v-2.053h-16v2.053a21.973 21.973 0 0 0 21.947 21.947h2.053v8h16v-8h2.053a21.948 21.948 0 0 0 6.94-42.769l-28.926-9.642a5.947 5.947 0 0 1 1.88-11.589h20.106a5.954 5.954 0 0 1 5.947 5.947v2.053z" fill="#f98500"/><path d="m299.216 268.012-13.842-8.024a40.249 40.249 0 0 1 14.614-14.614l8.024 13.842a24.229 24.229 0 0 0 -8.796 8.796z" fill="#ffc361"/><path d="m280 280h16v40h-16z" fill="#ffc361"/><path d="m464.577 250.984c-7.627-18.968-20.522-34-36.311-42.339l7.468-14.151c19.135 10.1 34.65 28.043 43.689 50.522z" fill="#b7e7eb"/><path d="m445.762 393.175a54.621 54.621 0 0 0 -30.302-9.175h-.833a54.626 54.626 0 0 0 -38.627 16h-68a20 20 0 0 0 -20 20 19.915 19.915 0 0 0 1.726 8.105l-27.749-23.124a21.526 21.526 0 0 0 -13.757-4.99h-3.149a21.048 21.048 0 0 0 -21.071 21.045v.368a21.537 21.537 0 0 0 8.3 17.064c14.489 11.262 44.093 34.286 57.2 44.481a23.978 23.978 0 0 0 14.735 5.051h151.765v-88z" fill="#fec9a3"/><path d="m456 400h32v88h-32z" fill="#348fd9"/><rect fill="#feb784" height="16" rx="8" width="80" x="296" y="432"/></g></svg>