<svg id="_x33_0" enable-background="new 0 0 64 64" height="512" viewBox="0 0 64 64" width="512" xmlns="http://www.w3.org/2000/svg"><g><g><g><path d="m42 54h4v8h-4z" fill="#969faa"/></g><g><path d="m33 54h9v8h-9z" fill="#aab2bd"/></g><g><path d="m36 14v6h-8.21c-.46-2.4-1.59-4.78-2.23-6z" fill="#ccd1d9"/></g><g><path d="m60 24v29c0 .55-.45 1-1 1h-13-4-9-5l2-2 2.76-2.76c.79-.79 1.24-1.87 1.24-2.99 0-.03 0-.06 0-.09 0-.05 0-.11-.01-.16h.01 20v-22h4z" fill="#ccd1d9"/></g><g><path d="m62 4v18c0 1.1-.9 2-2 2h-2c0-4.42-3.58-8-8-8h-1c2.76 0 5-2.24 5-5s-2.24-5-5-5-5 2.24-5 5 2.24 5 5 5h-1c-4.42 0-8 3.58-8 8h-2c-1.1 0-2-.9-2-2v-2-6-10c0-1.1.9-2 2-2h22c1.1 0 2 .9 2 2z" fill="#e6e9ed"/></g><g><path d="m25.98 26c.01-.16.02-.32.02-.48v-2.52l2-1c0-.65-.08-1.33-.21-2h8.21v2c0 1.1.9 2 2 2h2 8v2.59c0 .78.63 1.41 1.41 1.41.38 0 .74-.15 1-.41l3.59-3.59v22h-20-.01c-.08-2.22-1.91-4-4.17-4h-.15c-1.07 0-2.1.43-2.86 1.19l-1.81 1.81-1.24-2.89c-1.14-2.65-3.18-4.82-5.76-6.11v-4l-.02-.27 2.56-.23c2.93-.27 5.21-2.62 5.44-5.5z" fill="#69d6f4"/></g><g><circle cx="37" cy="31" fill="#ff826e" r="7"/></g><g><path d="m11.34 2.54c-2.11 1.89-3.34 4.59-3.34 7.46v6c-1.1 0-2 .9-2 2v7l-1.81-2.71c-1.43-2.15-2.19-4.66-2.19-7.24 0-5.92 3.94-10.92 9.34-12.51z" fill="#b27946"/></g><g><path d="m19 13.98v.02s-3 0-3 4c0-1.1-.9-2-2-2h-2v-5.17c0-3.62 1.9-6.97 5-8.83h5c1.66 0 3.16.67 4.24 1.76 1.09 1.08 1.76 2.58 1.76 4.24 0 2.18-1.17 4.1-2.92 5.14-.9.55-1.95.86-3.08.86h-2.63c-.13 0-.25-.01-.37-.02z" fill="#b27946"/></g><g><path d="m12 16v12h-2-2c-1.1 0-2-.9-2-2v-1-7c0-1.1.9-2 2-2z" fill="#969faa"/></g><g><path d="m16 18v8c0 1.1-.9 2-2 2h-2v-12h2c1.1 0 2 .9 2 2z" fill="#969faa"/></g><g><path d="m15.05 2h1.95c-3.1 1.86-5 5.21-5 8.83v5.17h-4v-6c0-2.87 1.23-5.57 3.34-7.46 1.17-.35 2.42-.54 3.71-.54z" fill="#ccd1d9"/></g><g><path d="m20 50 4-4 6 6-2 2-6.19 6.19c-1.16 1.16-2.73 1.81-4.36 1.81-1.33 0-2.59-.42-3.61-1.16-1.03-.74-1.83-1.8-2.25-3.06l-5.37-16.12c-.15-.44-.22-.9-.22-1.36 0-1.18.48-2.26 1.26-3.04.71-.71 1.68-1.18 2.74-1.25.1-.01.2-.01.3-.01 1.41 0 2.74.44 3.84 1.22.32.22.62.48.89.76.68.68 1.21 1.5 1.55 2.44z" fill="#b4dd7f"/></g><g><path d="m23.76 42.11 1.24 2.89-1 1-4 4-3.42-9.58c-.34-.94-.87-1.76-1.55-2.44l.01-.01 2.96-1.97c2.58 1.29 4.62 3.46 5.76 6.11z" fill="#b4dd7f"/></g><g><path d="m58 24h-4l-3.59 3.59c-.26.26-.62.41-1 .41-.78 0-1.41-.63-1.41-1.41v-2.59h-8c0-4.42 3.58-8 8-8h1 1c4.42 0 8 3.58 8 8z" fill="#fcd770"/></g><g><circle cx="49" cy="11" fill="#f0d0b4" r="5"/></g><g><path d="m34 46.16v.09c0 1.12-.45 2.2-1.24 2.99l-2.76 2.76-6-6 1-1 1.81-1.81c.76-.76 1.79-1.19 2.86-1.19h.15c2.26 0 4.09 1.78 4.17 4 .01.05.01.11.01.16z" fill="#f0d0b4"/></g><g><path d="m25.98 26c-.23 2.88-2.51 5.23-5.44 5.5l-2.56.23.02.27v4l-2.96 1.97-.01.01c-.27-.28-.57-.54-.89-.76-1.1-.78-2.43-1.22-3.84-1.22-.1 0-.2 0-.3.01v-8.01h2 2c1.1 0 2-.9 2-2v-8c0-4 3-4 3-4v-.02c.12.01.24.02.37.02h2.63c1.13 0 2.18-.31 3.08-.86l.01.01s.19.31.46.85h.01c.64 1.22 1.77 3.6 2.23 6 .13.67.21 1.35.21 2l-2 1v2.52c0 .16-.01.32-.02.48z" fill="#f0d0b4"/></g></g><g><circle cx="23" cy="18" r="1"/><path d="m60 1h-22c-1.654 0-3 1.346-3 3v9h-8.111c1.301-1.272 2.111-3.042 2.111-5 0-3.86-3.141-7-7-7h-6.951c-7.746 0-14.049 6.302-14.049 14.049 0 2.783.815 5.478 2.359 7.793l1.641 2.461v.697c0 1.654 1.346 3 3 3h1v6.181c-2.293.584-4 2.649-4 5.121 0 .572.092 1.137.272 1.677l5.374 16.121c.977 2.931 3.709 4.9 6.8 4.9 1.914 0 3.715-.746 5.068-2.1l5.9-5.9h3.586v6h-4v2h23v-2h-4v-6h12c1.103 0 2-.897 2-2v-28.184c1.161-.414 2-1.514 2-2.816v-18c0-1.654-1.346-3-3-3zm-11 14c-2.206 0-4-1.794-4-4s1.794-4 4-4 4 1.794 4 4-1.794 4-4 4zm1 2c3.519 0 6.432 2.613 6.92 6h-3.334l-3.88 3.879c-.235.237-.706.045-.706-.293v-3.586h-7.92c.488-3.387 3.401-6 6.92-6zm-15.144 28c-.532-2.287-2.582-4-5.035-4h-.149c-1.345 0-2.61.525-3.563 1.479l-.77.77-.656-1.532c-1.146-2.674-3.154-4.885-5.681-6.304v-2.772l1.634-.148c3.627-.331 6.364-3.328 6.364-6.972v-1.902l2-1v-.619c0-.33-.023-.664-.056-1h6.056v1c0 .426.092.83.253 1.198-3.573.8-6.253 3.991-6.253 7.802 0 4.411 3.589 8 8 8s8-3.589 8-8c0-2.39-1.059-4.533-2.726-6h4.726v1.586c0 1.331 1.083 2.414 2.414 2.414.637 0 1.259-.258 1.707-.707l1.879-1.879v18.586zm-4.856 5.586-4.586-4.586 2.107-2.107c.577-.576 1.339-.893 2.15-.893h.149c1.753 0 3.18 1.419 3.18 3.247 0 .863-.337 1.676-.949 2.288zm-11.952-13.416c2.132 1.205 3.826 3.075 4.795 5.334l.972 2.268-3.404 3.404-2.889-8.087c-.246-.69-.596-1.319-1.011-1.894zm24.952-6.17c0 3.309-2.691 6-6 6s-6-2.691-6-6 2.691-6 6-6 6 2.691 6 6zm-8-12h-6.409c-.366-1.478-.918-2.883-1.428-4h7.837zm-24-4h-2v-5c0-2.486 1.039-4.858 2.846-6.554.735-.203 1.496-.339 2.279-.399-1.969 2.077-3.125 4.865-3.125 7.784zm-8 .049c0-4.059 2.023-7.648 5.108-9.832-.714 1.477-1.108 3.107-1.108 4.783v5.184c-1.161.414-2 1.514-2 2.816v3.695c-1.307-1.978-2-4.274-2-6.646zm4 10.951v-8c0-.551.448-1 1-1h3v10h-3c-.552 0-1-.449-1-1zm6-9h1c.552 0 1 .449 1 1v8c0 .551-.448 1-1 1h-1zm1 12c1.654 0 3-1.346 3-3v-8c0-1.654-1.346-3-3-3h-1v-4.169c0-3.163 1.65-6.134 4.309-7.831h4.691c2.757 0 5 2.243 5 5s-2.243 5-5 5h-2.631c-1.306 0-2.369-1.063-2.369-2.369 0-1.089.738-2.035 1.794-2.299l1.448-.362-.484-1.94-1.448.362c-1.95.487-3.31 2.23-3.31 4.239 0 2.409 1.96 4.369 4.369 4.369h2.631c.946 0 1.848-.191 2.673-.533.726 1.381 2.108 4.309 2.304 6.926l-1.977.989v2.618h-.764c-.998 0-1.896-.555-2.342-1.447l-1.789.895c.789 1.574 2.372 2.552 4.131 2.552h.523c-.581 1.892-2.23 3.311-4.307 3.5l-5.543.504.182 1.992 1.909-.173v2.642l-1.892 1.261c-1.16-.938-2.579-1.53-4.108-1.671v-6.055zm7.1 30.486c-.977.977-2.275 1.514-3.655 1.514-2.229 0-4.198-1.42-4.902-3.533l-5.374-16.121c-.112-.337-.169-.688-.169-1.044 0-1.821 1.481-3.302 3.302-3.302 2.389 0 4.533 1.512 5.337 3.761l3.207 8.979-4.553 4.553 1.414 1.414 8.293-8.293 4.586 4.586zm12.9-4.486h7v6h-7zm11 6h-2v-6h2zm-14.586-8 3.051-3.051c.798-.798 1.29-1.813 1.457-2.949h20.078v-22h4v28zm30.586-31c0 .551-.448 1-1 1h-1.059c-.388-3.489-2.778-6.374-5.992-7.494 1.254-1.1 2.051-2.71 2.051-4.506 0-3.309-2.691-6-6-6s-6 2.691-6 6c0 1.796.797 3.406 2.051 4.506-3.214 1.119-5.605 4.005-5.992 7.494h-1.059c-.552 0-1-.449-1-1v-18c0-.551.448-1 1-1h22c.552 0 1 .449 1 1z"/><path d="m41 41h2v2h-2z"/><path d="m45 41h2v2h-2z"/><path d="m37 41h2v2h-2z"/><path d="m49 49h4v2h-4z"/><path d="m45 49h2v2h-2z"/></g></g></svg>