<?xml version="1.0" encoding="iso-8859-1"?>
<!-- Generator: Adobe Illustrator 21.0.0, SVG Export Plug-In . SVG Version: 6.00 Build 0)  -->
<svg xmlns="http://www.w3.org/2000/svg" xmlns:xlink="http://www.w3.org/1999/xlink" version="1.1" id="Capa_1" x="0px" y="0px" viewBox="0 0 512 512" style="enable-background:new 0 0 512 512;" xml:space="preserve" width="512" height="512">
<g>
	<g>
		<path style="fill:#EEE9E8;" d="M391.32,17.277v164.528H120.68V17.277c0-6.03,3.3-11.56,8.61-14.42    c5.31-2.86,11.74-2.57,16.78,0.75l50.27,33.15l51.04-34c2.63-1.75,5.61-2.67,8.62-2.75c3.34-0.1,6.7,0.84,9.61,2.8l50.22,33.909    l50.1-33.1c5.04-3.33,11.47-3.61,16.78-0.75S391.32,11.247,391.32,17.277z"/>
		<path style="fill:#E2D7D5;" d="M391.32,17.277v164.528H256V0.007c3.34-0.1,6.7,0.84,9.61,2.8l50.22,33.909l50.1-33.1    c5.04-3.33,11.47-3.61,16.78-0.75S391.32,11.247,391.32,17.277z"/>
		<path style="fill:#55696E;" d="M305.59,87.166c0,8.28-6.72,15-15,15h-69.18c-8.28,0-15-6.72-15-15c0-8.29,6.72-15,15-15h69.18    C298.87,72.166,305.59,78.876,305.59,87.166z"/>
		<path style="fill:#55696E;" d="M456.92,152.005H55.08c-30.37,0-55.08,24.71-55.08,55.079v249.836C0,487.29,24.71,512,55.08,512    h401.84c30.37,0,55.08-24.71,55.08-55.079V207.084C512,176.715,487.29,152.005,456.92,152.005z"/>
		<path style="fill:#323C3C;" d="M512,207.084v249.836C512,487.29,487.29,512,456.92,512H256V152.005h200.92    C487.29,152.005,512,176.715,512,207.084z"/>
		<path style="fill:#FFD844;" d="M60.215,212.367c-8.284,0-15,6.716-15,15v209.271c0,8.284,6.716,15,15,15s15-6.716,15-15V227.367    C75.215,219.083,68.499,212.367,60.215,212.367z"/>
		<path style="fill:#FFFFFF;" d="M390.86,227.874v207.747c0,8.83-7.19,16.02-16.02,16.02h-238.6c-8.84,0-16.03-7.19-16.03-16.02    V227.874c0-8.83,7.19-16.02,16.03-16.02h238.6C383.67,211.854,390.86,219.044,390.86,227.874z"/>
		<path style="fill:#EEE9E8;" d="M390.86,227.874v207.747c0,8.83-7.19,16.02-16.02,16.02H256V211.854h118.84    C383.67,211.854,390.86,219.044,390.86,227.874z"/>
		<path style="fill:#2680FF;" d="M451.349,212.367c-8.284,0-15,6.716-15,15v35.699c0,8.284,6.716,15,15,15s15-6.716,15-15v-35.699    C466.349,219.083,459.633,212.367,451.349,212.367z"/>
		<path style="fill:#00C200;" d="M451.349,299.153c-8.284,0-15,6.716-15,15v35.698c0,8.284,6.716,15,15,15s15-6.716,15-15v-35.698    C466.349,305.869,459.633,299.153,451.349,299.153z"/>
		<path style="fill:#FFBF00;" d="M451.349,385.94c-8.284,0-15,6.716-15,15v35.698c0,8.284,6.716,15,15,15s15-6.716,15-15V400.94    C466.349,392.655,459.633,385.94,451.349,385.94z"/>
		<path style="fill:#FFD844;" d="M184.036,388.07h48.27c8.9,0,16.142-7.241,16.142-16.141v-77.856c0-8.9-7.241-16.141-16.142-16.141    h-48.27c-8.9,0-16.141,7.241-16.141,16.141v77.856C167.895,380.829,175.135,388.07,184.036,388.07z M197.895,307.93h20.553v50.14    h-20.553V307.93z"/>
		<path style="fill:#FFBF00;" d="M274.739,388.07c8.284,0,15-6.716,15-15v-8.957c0-8.284-6.716-15-15-15s-15,6.716-15,15v8.957    C259.739,381.354,266.455,388.07,274.739,388.07z"/>
		<path style="fill:#FFBF00;" d="M316.127,388.07c8.284,0,15-6.716,15-15V292.93c0-8.284-6.716-15-15-15s-15,6.716-15,15v80.139    C301.127,381.354,307.843,388.07,316.127,388.07z"/>
	</g>
	<path style="fill:#323C3C;" d="M305.59,87.166c0,8.28-6.72,15-15,15H256v-30h34.59C298.87,72.166,305.59,78.876,305.59,87.166z"/>
</g>















</svg>
