<svg height="512" viewBox="0 0 64 64" width="512" xmlns="http://www.w3.org/2000/svg"><g id="Giftbox-Hands-Purchase-Buy-Commerce"><path d="m18 9h28v6h-28z" fill="#ee8700"/><path d="m46 15v14a2.006 2.006 0 0 1 -2 2h-24a2.006 2.006 0 0 1 -2-2v-14z" fill="#ff9811"/><path d="m53 31.4v-9.4a3 3 0 0 1 6 0v24l-4 5v2h-12v-8l7-12.12a2.982 2.982 0 0 1 2.6-1.5c.13 0 .27.01.4.02z" fill="#ffc477"/><path d="m57 53v8h-16v-8h2 12z" fill="#3d9ae2"/><path d="m42 3 4 6h-11-6-11l4-6z" fill="#ff9811"/><path d="m38 43h-3v8h-6v-8h-3l6-6z" fill="#ff5023"/><path d="m35 15v4l-3-2-3 2v-4-6h6z" fill="#e6e7e8"/><path d="m24 53v8h-16v-8h2 12z" fill="#3d9ae2"/><path d="m12 31.4c.13-.01.27-.02.4-.02a2.982 2.982 0 0 1 2.6 1.5l7 12.12v8h-12v-2l-4-5v-24a3 3 0 0 1 6 0z" fill="#ffc477"/><path d="m46.83 8.45-4-6a1 1 0 0 0 -.83-.45h-20a1 1 0 0 0 -.83.45l-4 6a.967.967 0 0 0 -.17.55v20a3.009 3.009 0 0 0 3 3h24a3.009 3.009 0 0 0 3-3v-20a.967.967 0 0 0 -.17-.55zm-24.29-4.45h18.92l2.67 4h-24.26zm11.46 6v7.13l-1.45-.96a.963.963 0 0 0 -1.1 0l-1.45.96v-7.13zm-15 0h9v4h-9zm26 19a1 1 0 0 1 -1 1h-24a1 1 0 0 1 -1-1v-13h9v3a.984.984 0 0 0 .53.88.963.963 0 0 0 1.02-.05l2.45-1.63 2.45 1.63a1 1 0 0 0 1.55-.83v-3h9zm0-15h-9v-4h9z"/><path d="m32.707 36.293a1 1 0 0 0 -1.414 0l-6 6a1 1 0 0 0 .707 1.707h2v7h2v-8a1 1 0 0 0 -1-1h-.586l3.586-3.586 3.586 3.586h-.586a1 1 0 0 0 -1 1v12h2v-11h2a1 1 0 0 0 .707-1.707z"/><path d="m51 4h2v6h-2z"/><path d="m51 12h2v2h-2z"/><path d="m57 7h2v4h-2z"/><path d="m57 13h2v2h-2z"/><path d="m11 4h2v6h-2z"/><path d="m11 12h2v2h-2z"/><path d="m5 7h2v4h-2z"/><path d="m5 13h2v2h-2z"/><path d="m44 56h2v2h-2z"/><path d="m56 18a4 4 0 0 0 -4 4v8.44a3.354 3.354 0 0 0 -.44.07 4 4 0 0 0 -2.43 1.87l-7 12.12a1.063 1.063 0 0 0 -.13.5v7h-1a1 1 0 0 0 -1 1v8a1 1 0 0 0 1 1h16a1 1 0 0 0 1-1v-8a1 1 0 0 0 -1-1h-1v-.65l3.78-4.73a.977.977 0 0 0 .22-.62v-24a4 4 0 0 0 -4-4zm0 42h-14v-6h14zm2-14.35-3.78 4.73a.977.977 0 0 0 -.22.62v1h-10v-6.73l6.87-11.89a2 2 0 1 1 3.46 2l-5 8.66 1.73 1 5-8.66a4.008 4.008 0 0 0 -1.46-5.47 4.592 4.592 0 0 0 -.6-.27v-8.64a2 2 0 0 1 4 0z"/><path d="m24 52h-1v-7a1.063 1.063 0 0 0 -.13-.5l-7-12.12a3.994 3.994 0 0 0 -2.87-1.94v-8.44a4 4 0 0 0 -8 0v24a.977.977 0 0 0 .22.62l3.78 4.73v.65h-1a1 1 0 0 0 -1 1v8a1 1 0 0 0 1 1h16a1 1 0 0 0 1-1v-8a1 1 0 0 0 -1-1zm-17-6.35v-23.65a2 2 0 0 1 4 0v8.64a5.279 5.279 0 0 0 -.6.27 4 4 0 0 0 -1.46 5.47l5 8.66 1.73-1-5-8.66a2 2 0 1 1 3.46-2l6.87 11.89v6.73h-10v-1a.977.977 0 0 0 -.22-.62zm16 14.35h-14v-6h14z"/><path d="m19 56h2v2h-2z"/><path d="m34 57h2v2h-2z"/><path d="m28 53h2v2h-2z"/></g></svg>