<?xml version="1.0"?>
<svg xmlns="http://www.w3.org/2000/svg" xmlns:xlink="http://www.w3.org/1999/xlink" xmlns:svgjs="http://svgjs.com/svgjs" version="1.1" width="512" height="512" x="0" y="0" viewBox="0 0 512 512" style="enable-background:new 0 0 512 512" xml:space="preserve" class=""><g>
<g xmlns="http://www.w3.org/2000/svg">
	<g>
		<path d="M492.381,104.546c-19.646-27.033-54.051-51.433-96.876-68.703C352.91,18.667,303.454,9.168,256.245,9.101    c-47.213-0.118-96.73,9.283-139.386,26.325c-42.9,17.141-77.386,41.435-97.104,68.404C0.817,129.732-4.641,157.651,3.97,184.569    c5.587,17.461,21.882,29.211,40.558,29.238l63.951,0.06c0.022,0,0.043,0,0.064,0c12.752-0.001,24.733-5.583,32.875-15.322    c8.056-9.635,11.392-22.227,9.156-34.549c-0.066-0.362-0.145-0.721-0.236-1.078l-3.365-13.082    c18.634-8.891,60.854-26.069,109.075-25.796c48.186,0.247,90.377,17.415,109.033,26.31l-3.419,13.008    c-0.097,0.369-0.18,0.739-0.248,1.112c-2.271,12.315,1.03,24.916,9.057,34.574c8.129,9.78,20.118,15.398,32.903,15.417    l63.951,0.06c0.022,0,0.043,0,0.064,0c18.641-0.001,34.941-11.696,40.569-29.121C516.651,158.489,511.265,130.531,492.381,104.546    z" fill="#b3b3b3" data-original="#000000" style="" class=""/>
	</g>
</g>
<g xmlns="http://www.w3.org/2000/svg">
	<g>
		<path d="M400.596,279.807l-47.69-50.075c-2.884-3.028-6.882-4.741-11.063-4.741h-30.82v-20.823c0-8.437-6.84-15.278-15.278-15.278    c-8.438,0-15.278,6.84-15.278,15.278v20.823h-48.922v-20.823c0-8.437-6.84-15.278-15.278-15.278s-15.278,6.84-15.278,15.278    v20.823h-30.819c-4.181,0-8.18,1.714-11.063,4.741l-47.69,50.075c-37.392,39.262-57.985,90.744-57.985,144.962v62.853    c0,8.438,6.84,15.278,15.278,15.278h374.592c8.438,0,15.278-6.84,15.278-15.278v-62.853    C458.581,370.551,437.988,319.07,400.596,279.807z M256.006,447.054c-44.09,0-79.959-35.87-79.959-79.96    c0-44.089,35.87-79.959,79.959-79.959s79.959,35.87,79.959,79.959C335.965,411.184,300.095,447.054,256.006,447.054z" fill="#b3b3b3" data-original="#000000" style="" class=""/>
	</g>
</g>
<g xmlns="http://www.w3.org/2000/svg">
	<g>
		<path d="M256.006,317.691c-27.242,0-49.403,22.162-49.403,49.403c0,27.242,22.162,49.404,49.403,49.404    s49.403-22.162,49.403-49.404C305.409,339.854,283.247,317.691,256.006,317.691z" fill="#b3b3b3" data-original="#000000" style="" class=""/>
	</g>
</g>
<g xmlns="http://www.w3.org/2000/svg">
</g>
<g xmlns="http://www.w3.org/2000/svg">
</g>
<g xmlns="http://www.w3.org/2000/svg">
</g>
<g xmlns="http://www.w3.org/2000/svg">
</g>
<g xmlns="http://www.w3.org/2000/svg">
</g>
<g xmlns="http://www.w3.org/2000/svg">
</g>
<g xmlns="http://www.w3.org/2000/svg">
</g>
<g xmlns="http://www.w3.org/2000/svg">
</g>
<g xmlns="http://www.w3.org/2000/svg">
</g>
<g xmlns="http://www.w3.org/2000/svg">
</g>
<g xmlns="http://www.w3.org/2000/svg">
</g>
<g xmlns="http://www.w3.org/2000/svg">
</g>
<g xmlns="http://www.w3.org/2000/svg">
</g>
<g xmlns="http://www.w3.org/2000/svg">
</g>
<g xmlns="http://www.w3.org/2000/svg">
</g>
</g></svg>
