<?xml version="1.0" encoding="iso-8859-1"?>
<!-- Generator: Adobe Illustrator 19.0.0, SVG Export Plug-In . SVG Version: 6.00 Build 0)  -->
<svg version="1.1" id="Capa_1" xmlns="http://www.w3.org/2000/svg" xmlns:xlink="http://www.w3.org/1999/xlink" x="0px" y="0px"
	 viewBox="0 0 512 512" style="enable-background:new 0 0 512 512;" xml:space="preserve">
<polygon style="fill:#4398D1;" points="256,8.509 8.533,145.042 8.533,503.442 51.2,503.442 51.2,196.242 460.8,196.242 
	460.8,503.442 503.467,503.442 503.467,153.575 "/>
<g>
	<path style="fill:#3E8CC7;" d="M460.8,503.442h42.667V226.45c-14.054,9.899-28.271,19.371-42.667,28.416V503.442z"/>
	<path style="fill:#3E8CC7;" d="M8.533,503.442H51.2v-79.275c-14.677,3.584-28.902,6.827-42.667,9.728V503.442z"/>
</g>
<rect x="51.2" y="196.242" style="fill:#E5E5E5;" width="409.6" height="68.267"/>
<rect x="51.2" y="221.842" style="fill:#CFCFCF;" width="409.6" height="17.067"/>
<rect x="213.333" y="127.975" style="fill:#E5E5E5;" width="85.333" height="34.133"/>
<rect x="324.267" y="298.642" style="fill:#FDB62F;" width="102.4" height="102.4"/>
<rect x="358.4" y="298.642" style="fill:#FD7B2F;" width="34.133" height="34.133"/>
<path style="fill:#FFA230;" d="M324.267,401.042h102.4v-69.035c-29.44,24.704-64.674,41.532-102.4,48.896V401.042z"/>
<rect x="324.267" y="401.042" style="fill:#FDB62F;" width="102.4" height="102.4"/>
<rect x="358.4" y="401.042" style="fill:#FD7B2F;" width="34.133" height="34.133"/>
<path style="fill:#FFA230;" d="M324.267,503.442h102.4v-69.035c-29.44,24.704-64.674,41.532-102.4,48.896V503.442z"/>
<rect x="221.867" y="401.042" style="fill:#FDB62F;" width="102.4" height="102.4"/>
<rect x="256" y="401.042" style="fill:#FD7B2F;" width="34.133" height="34.133"/>
<path style="fill:#FFA230;" d="M221.867,503.442h102.4v-69.035c-29.44,24.704-64.674,41.532-102.4,48.896V503.442z"/>
<rect x="213.333" y="162.109" style="fill:#3E8CC7;" width="85.333" height="17.067"/>
<path d="M507.819,146.237L260.352,1.17c-2.637-1.527-5.897-1.527-8.533,0L4.352,137.703c-2.654,1.493-4.318,4.292-4.352,7.339v358.4
	c0,4.71,3.823,8.533,8.533,8.533H51.2c4.71,0,8.533-3.823,8.533-8.533v-230.4h392.533v230.4c0,4.71,3.823,8.533,8.533,8.533h42.667
	c4.71,0,8.533-3.823,8.533-8.533V153.575C512,150.563,510.413,147.773,507.819,146.237z M452.267,221.842H59.733v-17.067h392.533
	V221.842z M59.733,255.975v-17.067h392.533v17.067H59.733z M494.933,494.909h-25.6V196.242c0-4.71-3.823-8.533-8.533-8.533H51.2
	c-4.71,0-8.533,3.823-8.533,8.533v298.667h-25.6V150.077L256,18.322l238.933,140.117V494.909z"/>
<path d="M324.267,511.975h102.4c4.71,0,8.533-3.823,8.533-8.533v-204.8c0-4.71-3.823-8.533-8.533-8.533h-102.4
	c-4.71,0-8.533,3.823-8.533,8.533v93.867h-93.867c-4.71,0-8.533,3.823-8.533,8.533v102.4c0,4.71,3.823,8.533,8.533,8.533H324.267z
	 M418.133,494.909H332.8v-85.333h17.067v25.6c0,4.71,3.823,8.533,8.533,8.533h34.133c4.71,0,8.533-3.823,8.533-8.533v-25.6h17.067
	V494.909z M366.933,409.576H384v17.067h-17.067V409.576z M366.933,307.176H384v17.067h-17.067V307.176z M332.8,307.176h17.067v25.6
	c0,4.71,3.823,8.533,8.533,8.533h34.133c4.71,0,8.533-3.823,8.533-8.533v-25.6h17.067v85.333H332.8V307.176z M264.533,409.576H281.6
	v17.067h-17.067V409.576z M230.4,409.576h17.067v25.6c0,4.71,3.823,8.533,8.533,8.533h34.133c4.71,0,8.533-3.823,8.533-8.533v-25.6
	h17.067v85.333H230.4V409.576z"/>
<path d="M204.8,127.975v34.133c0,4.71,3.823,8.533,8.533,8.533h85.333c4.71,0,8.533-3.823,8.533-8.533v-34.133
	c0-4.71-3.823-8.533-8.533-8.533h-85.333C208.623,119.442,204.8,123.265,204.8,127.975z M221.867,136.509h68.267v17.067h-68.267
	V136.509z"/>
<g>
</g>
<g>
</g>
<g>
</g>
<g>
</g>
<g>
</g>
<g>
</g>
<g>
</g>
<g>
</g>
<g>
</g>
<g>
</g>
<g>
</g>
<g>
</g>
<g>
</g>
<g>
</g>
<g>
</g>
</svg>
