<svg id="Capa_1" enable-background="new 0 0 512 512" height="512" viewBox="0 0 512 512" width="512" xmlns="http://www.w3.org/2000/svg"><g><g><path d="m331.12 244.54v32.3h-323.62v-22.3c0-5.53 4.48-10 10-10z" fill="#ccf49f"/><path d="m331.12 276.84v107.636l-299.992.851c-11.51 0-20.84-9.33-20.84-20.83l2.457-87.657z" fill="#5f6c75"/><path d="m24.5 244.54v32.3h-17v-22.3c0-5.53 4.48-10 10-10z" fill="#b3e59f"/><path d="m303.12 244.54h28v32.3h-28z" fill="#b3e59f"/><path d="m303.12 276.84v91.48c0 1.657-1.343 3-3 3h-124.372c-1.325 0-2.503-.868-2.871-2.141-8.322-28.816-34.936-49.949-66.397-49.949s-58.068 21.133-66.388 49.949c-.368 1.274-1.545 2.141-2.871 2.141h-8.881c-2.12 0-3.84-1.72-3.84-3.83v-90.65h-17v31.255l6.606 14.125-6.606 17.133v28.137c0 11.5 9.33 20.83 20.84 20.83h9.05 138.19 127.54 28v-17-94.48z" fill="#4e5a61"/><path d="m58.277 388.323c0-14.162 1.761-27.003 10.93-36.394 9.46-9.688 22.666-15.703 37.276-15.703 28.772 0 52.096 23.324 52.096 52.096 0 11.434-3.684 22.008-9.929 30.599-9.47 13.027-24.83 17.553-42.167 17.553-28.772.001-48.206-19.379-48.206-48.151z" fill="#5f6c75"/><path d="m151.87 413.91c-8.94 15.83-25.91 26.51-45.39 26.51-28.77 0-52.09-23.32-52.09-52.1 0-16.98 8.13-32.07 20.7-41.57-4.27 7.55-6.7 16.27-6.7 25.57 0 28.78 23.32 52.1 52.09 52.1 11.79 0 22.66-3.91 31.39-10.51z" fill="#4e5a61"/><circle cx="106.483" cy="388.323" fill="#f5fcff" r="20.839"/><path d="m126.08 395.39c-2.9 8.02-10.59 13.77-19.6 13.77-11.49 0-20.84-9.35-20.84-20.84 0-9.55 6.45-17.61 15.23-20.06-.8 2.21-1.23 4.58-1.23 7.06 0 11.49 9.35 20.84 20.84 20.84 1.94 0 3.82-.27 5.6-.77z" fill="#e0f5fc"/><path d="m35.009 308.095h-27.509l4.819 15.63-4.819 15.628h27.509c5.523 0 10-4.477 10-10v-11.258c0-5.523-4.477-10-10-10z" fill="#df646e"/><path d="m7.5 308.1h17v31.25h-17z" fill="#dc4955"/><path d="m281.59 71.58h-90.179l-28.539 8.725-25.662-8.725h-78.678l-8.681 7.193c-5.523 0-6.638 2.647-6.638 8.17l-3.924 157.607h252.301v-162.97c0-5.523-4.477-10-10-10z" fill="#f2d1a5"/><path d="m63.29 226.54c-3.866 0-7-3.134-7-7v-137.96c0-5.52 4.48-10 10-10h-17c-5.523 0-10 4.477-10 10v162.97h252.3v-18.01z" fill="#f2bb88"/><path d="m188.411 114.692h-33.201l-13.21-3.068c-1.657 0-3-1.343-3-3l-1.79-37.044 10.173 5.661 7.827-5.661h36.201v40.112c0 1.657-1.343 3-3 3z" fill="#855b51"/><path d="m155.21 71.58v43.11h-15c-1.66 0-3-1.34-3-3v-40.11z" fill="#724d44"/><path d="m187.468 244.55h-47.106l-.638-27.649c0-1.657 1.343-3 3-3l11.553-2.463h34.134c1.657 0 3 1.343 3 3v12.102z" fill="#855b51"/><path d="m158.21 226.54c-1.657 0-3-1.343-3-3v-9.1c0-1.66 1.34-3 3-3h-18c-1.657 0-3 1.343-3 3v12.1 18.01h18 36.2v-18.01z" fill="#724d44"/><g><path d="m162.439 181.697h-86.594c-1.657 0-3-1.343-3-3v-31.264c0-1.657 1.343-3 3-3h86.594c1.657 0 3 1.343 3 3v31.264c0 1.657-1.343 3-3 3z" fill="#f5fcff"/><path d="m96.17 168.55v13.15h-20.32c-1.66 0-3-1.35-3-3v-31.27c0-1.65 1.34-3 3-3h9.73c.8 9.26 4.67 17.64 10.59 24.12z" fill="#e0f5fc"/><path d="m122.58 181.7h-11.41v-2.75c3.58 1.43 7.41 2.38 11.41 2.75z" fill="#f5fcff"/><path d="m168.02 187.59c.46-.29.89-.61 1.3-.98-.41.36-.85.68-1.3.98z" fill="#5f6c75"/></g><path d="m483.661 388.323h-10.091l-51.208-18.486-86.982 18.486h-14.259v-229.643c0-5.523 4.477-10 10-10h36.887l58.038 5.455c7.967 0 15.236 4.542 18.729 11.702l48.821 100.34c2.027 4.155 8.155 6.193 9.216 10.662 1.118 4.714 1.689 9.557 1.689 14.432v16.823l-4.436 18.678 4.436 12.58v28.132c-.001 11.51-9.331 20.839-20.84 20.839z" fill="#5f6c75"/><path d="m502.81 276.84h-113.96c-11.51 0-20.84-9.33-20.84-20.84v-107.32l10.437 5.923 9.563-5.923h40.95c7.97 0 15.24 4.54 18.73 11.7l47.056 96.462-11.363 9.847c2.03 4.159 18.367 5.681 19.427 10.151z" fill="#f5fcff"/><path d="m502.81 276.84h-113.96c-11.51 0-20.84-9.33-20.84-20.84v-107.32h20v98.16c0 5.5 4.5 10 10 10h96.74l3.42 7.02c2.03 4.16 3.58 8.51 4.64 12.98z" fill="#e0f5fc"/><path d="m473.57 388.32h-138.19c0-38.1 31-69.09 69.09-69.09 38.1 0 69.1 30.99 69.1 69.09z" fill="#4e5a61"/><path d="m358.021 386.943c0-14.333.145-25.934 9.511-35.353 9.436-9.489 22.503-15.364 36.943-15.364 28.772 0 52.096 23.324 52.096 52.096 0 11.143-3.498 21.468-9.456 29.939-9.427 13.401-25.011 15.915-42.64 15.915-28.772.001-46.454-18.461-46.454-47.233z" fill="#5f6c75"/><circle cx="404.475" cy="388.323" fill="#f5fcff" r="20.839"/><path d="m449.86 413.9c-8.93 15.84-25.91 26.52-45.39 26.52-28.77 0-52.09-23.32-52.09-52.1 0-16.98 8.13-32.07 20.7-41.57-4.27 7.55-6.7 16.27-6.7 25.57 0 28.78 23.32 52.1 52.09 52.1 11.79 0 22.66-3.91 31.39-10.52z" fill="#4e5a61"/><path d="m424.08 395.38c-2.9 8.03-10.59 13.78-19.61 13.78-11.49 0-20.83-9.35-20.83-20.84 0-9.55 6.46-17.62 15.24-20.06-.81 2.21-1.24 4.58-1.24 7.06 0 11.49 9.34 20.84 20.83 20.84 1.94 0 3.82-.27 5.61-.78z" fill="#e0f5fc"/><path d="m478.57 338.475 9.068.877h16.862v-31.258h-16.266l-9.664 1.135c-5.523 0-10 4.477-10 10v9.246c0 5.523 4.477 10 10 10z" fill="#f9af38"/><path d="m491.99 339.35h-15c-5.52 0-10-4.47-10-10v-11.25c0-5.53 4.48-10 10-10h15c-5.52 0-10 4.47-10 10v11.25c0 5.53 4.48 10 10 10z" fill="#f48931"/></g><g><path d="m504.912 260.575-16.904-34.652c-1.814-3.721-6.302-5.269-10.028-3.453-3.723 1.816-5.269 6.306-3.452 10.029l16.903 34.651c.35.719.671 1.452.989 2.186h-103.574c-7.354 0-13.338-5.983-13.338-13.338v-99.818h53.456c5.063 0 9.769 2.94 11.987 7.491l18.193 37.296c1.816 3.722 6.304 5.27 10.029 3.453 3.723-1.816 5.269-6.306 3.453-10.029l-18.193-37.295c-4.716-9.668-14.713-15.915-25.47-15.915h-97.843c-9.649 0-17.5 7.851-17.5 17.5v78.357h-15.659v-155.458c0-9.649-7.851-17.5-17.5-17.5h-232.301c-9.649 0-17.5 7.851-17.5 17.5v55.209c0 4.142 3.358 7.5 7.5 7.5s7.5-3.358 7.5-7.5v-55.209c0-1.378 1.122-2.5 2.5-2.5h81.55v32.612c0 5.79 4.71 10.5 10.5 10.5h48.202c5.79 0 10.5-4.71 10.5-10.5v-32.612h81.55c1.379 0 2.5 1.122 2.5 2.5v155.457h-84.05v-22.599c0-5.79-4.71-10.5-10.5-10.5h-48.202c-5.79 0-10.5 4.71-10.5 10.5v22.599h-84.05v-65.248c0-4.142-3.358-7.5-7.5-7.5s-7.5 3.358-7.5 7.5v65.248h-13.16c-9.649 0-17.5 7.851-17.5 17.5v112.948c0 15.626 12.712 28.338 28.338 28.338h19.037c3.702 29.332 28.788 52.097 59.108 52.097s55.406-22.765 59.108-52.097h155.529 24.246c3.702 29.332 28.788 52.097 59.108 52.097 4.83 0 9.638-.581 14.29-1.726 4.022-.991 6.479-5.054 5.489-9.076s-5.058-6.479-9.075-5.49c-3.48.857-7.081 1.292-10.704 1.292-24.591 0-44.597-20.006-44.597-44.597 0-24.59 20.006-44.596 44.597-44.596s44.597 20.006 44.597 44.596c0 8.891-2.606 17.474-7.539 24.821-2.309 3.439-1.392 8.099 2.048 10.407s8.099 1.392 10.407-2.047c5.196-7.741 8.453-16.505 9.606-25.681h20.068c15.626 0 28.339-12.712 28.339-28.338v-76.213c0-10.576-2.451-21.191-7.088-30.697zm-321.001-153.383h-39.202v-28.112h39.202zm313.089 224.661h-20.01c-1.379 0-2.5-1.122-2.5-2.5v-11.258c0-1.378 1.121-2.5 2.5-2.5h20.01zm-352.291-112.915h39.202v18.099h-39.202zm-129.709 96.657h20.009c1.378 0 2.5 1.122 2.5 2.5v11.258c0 1.378-1.122 2.5-2.5 2.5h-20.009zm0 51.89v-20.632h20.009c9.649 0 17.5-7.851 17.5-17.5v-11.258c0-9.649-7.851-17.5-17.5-17.5h-20.009v-16.258h218.191c4.142 0 7.5-3.358 7.5-7.5s-3.358-7.5-7.5-7.5h-218.191v-14.8c0-1.378 1.122-2.5 2.5-2.5h20.408c.084.003.167.013.252.013s.167-.01.252-.013h98.547c.084.003.167.013.252.013s.167-.01.252-.013h53.698c.084.003.167.013.252.013s.167-.01.252-.013h98.547c.084.003.167.013.252.013s.167-.01.252-.013h22.908v17.3h-45.429c-4.143 0-7.5 3.358-7.5 7.5s3.357 7.5 7.5 7.5h45.429v96.486h-148.033c-3.702-29.331-28.788-52.096-59.108-52.096s-55.406 22.765-59.108 52.096h-19.037c-7.355 0-13.338-5.983-13.338-13.338zm91.483 65.435c-24.591 0-44.597-20.006-44.597-44.597 0-24.59 20.006-44.596 44.597-44.596 24.59 0 44.596 20.006 44.596 44.596.001 24.591-20.005 44.597-44.596 44.597zm377.178-52.097h-20.078c-3.702-29.331-28.788-52.096-59.108-52.096s-55.406 22.765-59.108 52.096h-16.747v-222.143c0-1.378 1.121-2.5 2.5-2.5h29.388v99.819c0 15.626 12.712 28.338 28.338 28.338h107.694c.295 2.302.46 4.619.46 6.935v9.323h-20.01c-9.649 0-17.5 7.851-17.5 17.5v11.258c0 9.649 7.851 17.5 17.5 17.5h20.01v20.632c0 7.355-5.983 13.338-13.339 13.338z"/><path d="m404.475 359.985c-15.626 0-28.338 12.712-28.338 28.338s12.712 28.339 28.338 28.339 28.339-12.713 28.339-28.339-12.713-28.338-28.339-28.338zm0 41.677c-7.354 0-13.338-5.984-13.338-13.339s5.983-13.338 13.338-13.338 13.339 5.983 13.339 13.338-5.984 13.339-13.339 13.339z"/><path d="m106.483 359.985c-15.626 0-28.339 12.712-28.339 28.338s12.713 28.339 28.339 28.339 28.338-12.713 28.338-28.339-12.712-28.338-28.338-28.338zm0 41.677c-7.355 0-13.339-5.984-13.339-13.339s5.984-13.338 13.339-13.338 13.338 5.983 13.338 13.338-5.983 13.339-13.338 13.339z"/><path d="m199.88 155.885h55.896c4.143 0 7.5-3.358 7.5-7.5s-3.357-7.5-7.5-7.5h-55.896c-4.142 0-7.5 3.358-7.5 7.5s3.358 7.5 7.5 7.5z"/><path d="m199.88 185.245h33.312c4.142 0 7.5-3.358 7.5-7.5s-3.358-7.5-7.5-7.5h-33.312c-4.142 0-7.5 3.358-7.5 7.5s3.358 7.5 7.5 7.5z"/><path d="m162.439 189.197c5.79 0 10.5-4.71 10.5-10.5v-31.264c0-5.79-4.71-10.5-10.5-10.5h-86.594c-5.79 0-10.5 4.71-10.5 10.5v31.264c0 5.79 4.71 10.5 10.5 10.5zm-51.267-15v-22.264h15.828v22.264zm46.767 0h-15.939v-22.264h15.94v22.264zm-77.594-22.264h15.827v22.264h-15.827z"/></g></g></svg>