<svg height="512pt" viewBox="-61 0 512 512" width="512pt" xmlns="http://www.w3.org/2000/svg"><path d="m45 512c-8.289062 0-15-6.710938-15-15v-62c0-8.289062 6.710938-15 15-15s15 6.710938 15 15v62c0 8.289062-6.710938 15-15 15zm0 0" fill="#beebfa"/><path d="m345 512c-8.289062 0-15-6.710938-15-15v-62c0-8.289062 6.710938-15 15-15s15 6.710938 15 15v62c0 8.289062-6.710938 15-15 15zm0 0" fill="#7ed8f6"/><path d="m360 315v60c0 8.398438-6.597656 15-15 15s-15-6.601562-15-15v-45h-120v45c0 8.398438-6.597656 15-15 15s-15-6.601562-15-15v-45h-120v45c0 8.398438-6.597656 15-15 15s-15-6.601562-15-15v-60c0-8.402344 6.597656-15 15-15h135v-45c0-8.402344 6.597656-15 15-15s15 6.597656 15 15v45h135c8.402344 0 15 6.597656 15 15zm0 0" fill="#beebfa"/><path d="m360 315v60c0 8.398438-6.597656 15-15 15s-15-6.601562-15-15v-45h-120v45c0 8.398438-6.597656 15-15 15v-150c8.402344 0 15 6.597656 15 15v45h135c8.402344 0 15 6.597656 15 15zm0 0" fill="#7ed8f6"/><path d="m210 435v62c0 8.398438-6.597656 15-15 15s-15-6.601562-15-15v-62c0-8.402344 6.597656-15 15-15s15 6.597656 15 15zm0 0" fill="#beebfa"/><path d="m210 435v62c0 8.398438-6.597656 15-15 15v-92c8.402344 0 15 6.597656 15 15zm0 0" fill="#7ed8f6"/><path d="m75 450h-60c-8.289062 0-15-6.710938-15-15v-60c0-8.289062 6.710938-15 15-15h60c8.289062 0 15 6.710938 15 15v60c0 8.289062-6.710938 15-15 15zm0 0" fill="#beebfa"/><path d="m225 360h-60c-8.402344 0-15 6.597656-15 15v60c0 8.398438 6.597656 15 15 15h60c8.402344 0 15-6.601562 15-15v-60c0-8.402344-6.597656-15-15-15zm0 0" fill="#beebfa"/><path d="m240 375v60c0 8.398438-6.597656 15-15 15h-30v-90h30c8.402344 0 15 6.597656 15 15zm0 0" fill="#7ed8f6"/><path d="m375 450h-60c-8.289062 0-15-6.710938-15-15v-60c0-8.289062 6.710938-15 15-15h60c8.289062 0 15 6.710938 15 15v60c0 8.289062-6.710938 15-15 15zm0 0" fill="#7ed8f6"/><path d="m195 0c-74.398438 0-135 60.597656-135 135 0 46.5 23.699219 87.898438 60 112.199219l75 22.800781 75-22.800781c36.300781-24.300781 60-65.699219 60-112.199219 0-74.402344-60.601562-135-135-135zm0 0" fill="#0b799d"/><path d="m330 135c0 46.5-23.699219 87.898438-60 112.199219l-75 22.800781v-270c74.398438 0 135 60.597656 135 135zm0 0" fill="#07485e"/><path d="m195 60c-24.902344 0-45 20.097656-45 45 0 24.898438 20.097656 45 45 45s45-20.101562 45-45c0-24.902344-20.097656-45-45-45zm0 0" fill="#fff5f5"/><path d="m240 105c0 24.898438-20.097656 45-45 45v-90c24.902344 0 45 20.097656 45 45zm0 0" fill="#e1ebf0"/><path d="m270 225v22.199219c-21.597656 14.398437-47.101562 22.800781-75 22.800781s-53.402344-8.402344-75-22.800781v-22.199219c0-41.398438 33.601562-75 75-75s75 33.601562 75 75zm0 0" fill="#fff5f5"/><path d="m270 225v22.199219c-21.597656 14.398437-47.101562 22.800781-75 22.800781v-120c41.398438 0 75 33.601562 75 75zm0 0" fill="#e1ebf0"/></svg>