<svg id="Layer_5" enable-background="new 0 0 64 64" height="512" viewBox="0 0 64 64" width="512" xmlns="http://www.w3.org/2000/svg"><g><g><g><path d="m58 56h2c1.1 0 2 .9 2 2v2c0 1.1-.9 2-2 2h-20c.55 0 1.05-.22 1.41-.59.37-.36.59-.86.59-1.41 0-1.1-.9-2-2-2h-2v-2h8 4 4 2z" fill="#fcd770"/></g><g><path d="m58 44h2c1.1 0 2 .9 2 2v2c0 1.1-.9 2-2 2h-4-2-4-4-2c-1.1 0-2-.9-2-2v-2c0-1.1.9-2 2-2h2 4 .5.86 2.64z" fill="#fcd770"/></g><g><path d="m54 50h2c1.1 0 2 .9 2 2v2c0 1.1-.9 2-2 2h-2-4-4-8v-6h4 2 2 4z" fill="#ffc729"/></g><g><path d="m6 6h32v6h-32z" fill="#e6e9ed"/></g><g><path d="m33.12 36.51c-1.77 4.39-6.08 7.49-11.12 7.49s-9.35-3.1-11.12-7.49c-3 2.91-4.88 6.98-4.88 11.49v10h1c3.17-3.8 7.86-6 12.81-6h2.19 2.19c4.95 0 9.64 2.2 12.81 6h1v-2-6-2c0-4.51-1.88-8.58-4.88-11.49z" fill="#e6e9ed"/></g><g><path d="m37 58h-30c3.17-3.8 7.86-6 12.81-6h2.19 2.19c4.95 0 9.64 2.2 12.81 6z" fill="#69d6f4"/></g><g><path d="m38 12v4c0 4.51-1.88 8.58-4.88 11.49-1.77-4.39-6.08-7.49-11.12-7.49s-9.35 3.1-11.12 7.49c-3-2.91-4.88-6.98-4.88-11.49v-4z" fill="#69d6f4"/></g><g><path d="m40 2c1.1 0 2 .9 2 2 0 .55-.22 1.05-.59 1.41-.36.37-.86.59-1.41.59h-2-32-2c-1.1 0-2-.9-2-2 0-.55.22-1.05.59-1.41.36-.37.86-.59 1.41-.59z" fill="#969faa"/></g><g><path d="m40 58c1.1 0 2 .9 2 2 0 .55-.22 1.05-.59 1.41-.36.37-.86.59-1.41.59h-2-34c-1.1 0-2-.9-2-2 0-.55.22-1.05.59-1.41.36-.37.86-.59 1.41-.59h2 1 30 1z" fill="#969faa"/></g><g><path d="m60.08 27.25c1.25 1.79 1.92 3.92 1.92 6.11 0 5.87-4.77 10.64-10.64 10.64h-.86c-2.88-.04-5.49-1.22-7.38-3.12-1.93-1.92-3.12-4.58-3.12-7.52 0-2.19.67-4.32 1.92-6.11l5.08-7.25h8z" fill="#cf9e76"/></g><g><path d="m58 11-3 9h-8l-3-8 6-1 2 3 2-4z" fill="#d3a06c"/></g><g><path d="m33.12 27.49c.57 1.39.88 2.91.88 4.51s-.31 3.12-.88 4.51c-1.77 4.39-6.08 7.49-11.12 7.49s-9.35-3.1-11.12-7.49c-.57-1.39-.88-2.91-.88-4.51s.31-3.12.88-4.51c1.77-4.39 6.08-7.49 11.12-7.49s9.35 3.1 11.12 7.49z" fill="#ff826e"/></g></g><g><path d="m26 33c-1.654 0-3 1.346-3 3s1.346 3 3 3 3-1.346 3-3-1.346-3-3-3zm0 4c-.552 0-1-.448-1-1s.448-1 1-1 1 .448 1 1-.448 1-1 1z"/><path d="m18 31c1.654 0 3-1.346 3-3s-1.346-3-3-3-3 1.346-3 3 1.346 3 3 3zm0-4c.552 0 1 .448 1 1s-.448 1-1 1-1-.448-1-1 .448-1 1-1z"/><path d="m13.515 31h16.971v2h-16.971z" transform="matrix(.707 -.707 .707 .707 -16.184 24.929)"/><path d="m21 47h2v2h-2z"/><path d="m25 46h2v2h-2z"/><path d="m17 46h2v2h-2z"/><path d="m52 37c1.654 0 3-1.346 3-3s-1.346-3-3-3h-2c-.552 0-1-.448-1-1s.448-1 1-1h3v1h2v-3h-3v-2h-2v2c-1.654 0-3 1.346-3 3s1.346 3 3 3h2c.552 0 1 .448 1 1s-.448 1-1 1h-3v-1h-2v3h3v2h2z"/><path d="m60 43h-2.127c3.091-2.096 5.127-5.637 5.127-9.645 0-2.401-.728-4.71-2.104-6.678l-4.788-6.839 3.182-9.547-5.826-1.457-1.588 3.177-1.402-2.104-7.837 1.306 3.242 8.646-4.774 6.819c-1.377 1.968-2.105 4.276-2.105 6.677 0 4.008 2.036 7.549 5.127 9.645h-.127c-1.654 0-3 1.346-3 3v2c0 .352.072.686.184 1h-2.184v-1c0-4.417-1.688-8.549-4.736-11.729.468-1.34.736-2.773.736-4.271s-.268-2.931-.736-4.271c3.048-3.18 4.736-7.312 4.736-11.729v-9h1c1.654 0 3-1.346 3-3s-1.346-3-3-3h-36c-1.654 0-3 1.346-3 3s1.346 3 3 3h1v9c0 4.417 1.688 8.549 4.736 11.729-.468 1.34-.736 2.773-.736 4.271s.268 2.931.736 4.271c-3.048 3.18-4.736 7.312-4.736 11.729v9h-1c-1.654 0-3 1.346-3 3s1.346 3 3 3h34 2 20c1.654 0 3-1.346 3-3v-2c0-1.654-1.346-3-3-3h-1.184c.112-.314.184-.648.184-1v-2c0-.352-.072-.686-.184-1h1.184c1.654 0 3-1.346 3-3v-2c0-1.654-1.346-3-3-3zm-10.474-30.907 2.598 3.896 2.412-4.823 2.174.543-2.43 7.291h-6.586l-2.33-6.213zm-8.526 21.262c0-1.989.603-3.901 1.743-5.531l4.778-6.824h6.959l4.777 6.824c1.14 1.63 1.743 3.542 1.743 5.531 0 5.319-4.326 9.645-9.645 9.645h-.711c-5.318 0-9.644-4.326-9.644-9.645zm-30-1.355c0-6.065 4.935-11 11-11s11 4.935 11 11-4.935 11-11 11-11-4.935-11-11zm-8-28c0-.552.448-1 1-1h36c.552 0 1 .448 1 1s-.448 1-1 1h-36c-.552 0-1-.448-1-1zm34 3v4h-30v-4zm-30 9v-3h30v3c0 3.619-1.276 7.026-3.612 9.742-2.215-4.015-6.488-6.742-11.388-6.742s-9.173 2.727-11.388 6.742c-2.336-2.716-3.612-6.123-3.612-9.742zm3.612 22.258c2.215 4.015 6.488 6.742 11.388 6.742s9.173-2.727 11.388-6.742c2.336 2.716 3.612 6.123 3.612 9.742v8.534c-3.331-3.517-7.928-5.534-12.811-5.534h-4.379c-4.883 0-9.48 2.017-12.811 5.534v-8.534c.001-3.619 1.277-7.026 3.613-9.742zm24.008 18.742h-25.24c2.853-2.554 6.539-4 10.43-4h4.379c3.891 0 7.578 1.446 10.431 4zm3.38 4h-34c-.552 0-1-.448-1-1s.448-1 1-1h36c.552 0 1 .448 1 1s-.448 1-1 1zm23-3v2c0 .552-.448 1-1 1h-17.184c.112-.314.184-.648.184-1 0-1.654-1.346-3-3-3h5v2h2v-2h2v2h2v-2h2v2h2v-2h1 1v2h2v-2h1c.552 0 1 .448 1 1zm-4-6v2c0 .552-.448 1-1 1h-17v-4h2v2h2v-2h1 1v2h2v-2h2v2h2v-2h2v2h2v-2h1c.552 0 1 .448 1 1zm4-4c0 .552-.448 1-1 1h-4-12c-.552 0-1-.448-1-1v-2c0-.552.448-1 1-1h1v2h2v-2h2v2h2v-2h.355 1.645v2h2v-2h2v2h2v-2h1c.552 0 1 .448 1 1z"/></g></g></svg>