<svg height="512" viewBox="0 0 512 512" width="512" xmlns="http://www.w3.org/2000/svg"><g id="Filled_outline" data-name="Filled outline"><path d="m288 24-232 232 26.58 26.58 117.42 117.42 232-232v-144zm96 64a16 16 0 1 1 16-16 15.954 15.954 0 0 1 -16 16z" fill="#348fd9"/><path d="m409.7 24q-9.03 17.415-18.87 33.53a16 16 0 1 1 -17.3 26.57c-75.86 109.06-180.53 169.63-290.95 198.48l117.42 117.42 232-232v-144z" fill="#3086cd"/><path d="m360.1 152c14.868-9.829 7.3-32.3-10.715-31.821 6.042-16.386-13.769-30.275-28.051-19.667-5.093-16.683-29.581-16.683-34.674 0-14.282-10.608-34.093 3.281-28.051 19.667-18.009-.479-25.58 21.992-10.709 31.821-14.868 9.829-7.3 32.3 10.715 31.821-6.042 16.386 13.769 30.275 28.051 19.667 5.093 16.683 29.581 16.683 34.674 0 14.282 10.608 34.093-3.281 28.051-19.667 18.009.479 25.58-21.992 10.709-31.821z" fill="#ffb531"/><path d="m104 64a54.973 54.973 0 0 0 40-40 54.973 54.973 0 0 0 40 40 54.973 54.973 0 0 0 -40 40 54.973 54.973 0 0 0 -40-40z" fill="#ffb531"/><path d="m416 344h72v144h-72z" fill="#4d5e78"/><path d="m416 368v120h-248.89a63.874 63.874 0 0 1 -28.62-6.76l-98.17-49.08a29.524 29.524 0 0 1 13.43-55.93l3.44.02a29.52 29.52 0 0 1 12.91 3.09l89.9 44.66h32a32 32 0 0 1 0-64h69.33l15.84-8.91a117.521 117.521 0 0 1 125.27 6.34c1.96 1.38 3.87 2.82 5.75 4.32z" fill="#fec9a3"/><path d="m416 368v120h-212.67c75.39-23.68 145.47-64.83 199.11-130.57 1.96 1.38 3.87 2.82 5.75 4.32z" fill="#fec093"/><path d="m146.343 357.657 11.314-11.314-90.343-90.343 224-224h132.686v32h-17.376a24 24 0 1 0 0 16h17.376v84.686l-157.657 157.657 11.314 11.314 160-160a8 8 0 0 0 2.343-5.657v-40h24a32 32 0 0 0 0-64h-24v-40a8 8 0 0 0 -8-8h-144a8 8 0 0 0 -5.657 2.343l-232 232a8 8 0 0 0 0 11.314zm229.657-285.657a8.009 8.009 0 0 1 8-8v16a8.009 8.009 0 0 1 -8-8zm88 8a16 16 0 0 1 0 32h-24v-32z"/><path d="m233.186 173.854a25.5 25.5 0 0 0 16.32 16.591 24.815 24.815 0 0 0 10.238 19.39 26.346 26.346 0 0 0 23.474 4.22 26.687 26.687 0 0 0 41.564 0 26.347 26.347 0 0 0 23.474-4.22 24.815 24.815 0 0 0 10.238-19.39 25.5 25.5 0 0 0 16.32-16.591 24.469 24.469 0 0 0 -3.325-21.854 24.469 24.469 0 0 0 3.325-21.854 25.5 25.5 0 0 0 -16.32-16.591 24.815 24.815 0 0 0 -10.238-19.39 26.343 26.343 0 0 0 -23.474-4.22 26.687 26.687 0 0 0 -41.564 0 26.347 26.347 0 0 0 -23.474 4.22 24.816 24.816 0 0 0 -10.238 19.39 25.5 25.5 0 0 0 -16.32 16.591 24.469 24.469 0 0 0 3.325 21.854 24.469 24.469 0 0 0 -3.325 21.854zm19.123-28.527a8.829 8.829 0 0 1 -3.864-10.369 9.694 9.694 0 0 1 9.953-6.782 8 8 0 0 0 7.72-10.765 8.87 8.87 0 0 1 3.215-10.438 10.207 10.207 0 0 1 12.56-.039 8 8 0 0 0 12.421-4.086c1.542-5.048 6.015-6.848 9.686-6.848s8.144 1.8 9.686 6.848a8 8 0 0 0 12.421 4.086 10.2 10.2 0 0 1 12.56.039 8.87 8.87 0 0 1 3.215 10.438 8 8 0 0 0 7.72 10.765 9.715 9.715 0 0 1 9.953 6.782 8.829 8.829 0 0 1 -3.864 10.369 8 8 0 0 0 0 13.346 8.829 8.829 0 0 1 3.864 10.369 9.7 9.7 0 0 1 -9.953 6.782 8 8 0 0 0 -7.72 10.765 8.87 8.87 0 0 1 -3.215 10.438 10.207 10.207 0 0 1 -12.56.039 8 8 0 0 0 -12.421 4.086c-1.542 5.048-6.015 6.848-9.686 6.848s-8.144-1.8-9.686-6.848a8 8 0 0 0 -12.421-4.086 10.209 10.209 0 0 1 -12.56-.039 8.87 8.87 0 0 1 -3.215-10.438 8 8 0 0 0 -7.72-10.765 9.684 9.684 0 0 1 -9.953-6.782 8.829 8.829 0 0 1 3.864-10.369 8 8 0 0 0 0-13.346z"/><path d="m86.059 232h67.882v16h-67.882z" transform="matrix(.707 -.707 .707 .707 -134.558 155.147)"/><path d="m110.059 256h67.882v16h-67.882z" transform="matrix(.707 -.707 .707 .707 -144.5 179.147)"/><path d="m134.059 280h67.882v16h-67.882z" transform="matrix(.707 -.707 .707 .707 -154.441 203.147)"/><path d="m158.059 304h67.882v16h-67.882z" transform="matrix(.707 -.707 .707 .707 -164.382 227.147)"/><path d="m211.029 316h33.941v16h-33.941z" transform="matrix(.707 -.707 .707 .707 -162.323 256.118)"/><path d="m193.75 171.961h16v27.577h-16z" transform="matrix(.707 -.707 .707 .707 -72.254 197.064)"/><path d="m239 195.645h16v70.711h-16z" transform="matrix(.707 -.707 .707 .707 -90.997 242.314)"/><path d="m102.06 71.761a46.891 46.891 0 0 1 34.179 34.179 8 8 0 0 0 15.522 0 46.891 46.891 0 0 1 34.179-34.179 8 8 0 0 0 0-15.522 46.891 46.891 0 0 1 -34.179-34.179 8 8 0 0 0 -15.522 0 46.891 46.891 0 0 1 -34.179 34.179 8 8 0 0 0 0 15.522zm41.94-27.581a62.788 62.788 0 0 0 19.82 19.82 62.788 62.788 0 0 0 -19.82 19.82 62.788 62.788 0 0 0 -19.82-19.82 62.788 62.788 0 0 0 19.82-19.82z"/><path d="m331.505 265.833h85.324v16h-85.324z" transform="matrix(.707 -.707 .707 .707 -84.038 344.78)"/><path d="m412.686 216h22.627v16h-22.627z" transform="matrix(.707 -.707 .707 .707 -34.205 365.421)"/><path d="m488 336h-72a8 8 0 0 0 -8 8v7.582a125.48 125.48 0 0 0 -134.75-7.464l-14.012 7.882h-67.238a39.983 39.983 0 0 0 -33.013 62.564l-85.328-42.392a37.755 37.755 0 0 0 -16.408-3.918l-3.439-.026a37.525 37.525 0 0 0 -17.068 71.088l98.165 49.084a72.352 72.352 0 0 0 32.2 7.6h320.891a8 8 0 0 0 8-8v-144a8 8 0 0 0 -8-8zm-345.936 138.088-98.164-49.083a21.525 21.525 0 0 1 9.622-40.778h.169l3.437.026a21.668 21.668 0 0 1 9.412 2.247l89.9 44.664a8.012 8.012 0 0 0 3.56.836h104a8 8 0 0 0 0-16h-72a24 24 0 0 1 0-48h69.333a8 8 0 0 0 3.922-1.027l15.839-8.91a109.506 109.506 0 0 1 122.095 9.937l4.811 3.845v108.155h-240.892a56.285 56.285 0 0 1 -25.044-5.912zm337.936 5.912h-56v-128h56z"/><path d="m452 456a12 12 0 1 0 -12-12 12.013 12.013 0 0 0 12 12z"/><path d="m200 194.745h16v90.51h-16z" transform="matrix(.707 -.707 .707 .707 -108.784 217.373)"/></g></svg>