<?xml version="1.0" encoding="iso-8859-1"?>
<!-- Generator: Adobe Illustrator 19.0.0, SVG Export Plug-In . SVG Version: 6.00 Build 0)  -->
<svg version="1.1" id="Capa_1" xmlns="http://www.w3.org/2000/svg" xmlns:xlink="http://www.w3.org/1999/xlink" x="0px" y="0px"
	 viewBox="0 0 512 512" style="enable-background:new 0 0 512 512;" xml:space="preserve">
<circle style="fill:#D6D6D8;" cx="427.443" cy="256.358" r="77.052"/>
<path style="fill:#C2C2C4;" d="M370.389,256.357c0-39.165,29.227-71.482,67.055-76.388c-46.448-6.024-87.056,30.104-87.056,76.388
	c0,46.208,40.536,82.421,87.056,76.388C399.616,327.839,370.389,295.522,370.389,256.357z"/>
<path style="fill:#E85454;" d="M450.168,217.69c1.385,0.895,3.225,0.037,3.443-1.598c1.226-9.21,2.404-25.766-3.008-33.243
	c-27.487-8.651-58.471-1.417-79.319,20.78C386.176,196.824,419.581,197.932,450.168,217.69z"/>
<path style="fill:#D84848;" d="M371.283,203.628c4.918-2.247,12.877-4.056,23.722-3.695c11.454-10.642,26.145-17.852,42.439-19.965
	C411.934,176.661,387.729,186.122,371.283,203.628z"/>
<g>
	<path style="fill:#E85454;" d="M479.303,242.805c-0.131,0.878,0.1,1.766,0.637,2.474c9.507,12.526,18.465,29.452,16.502,45.384
		c5.148-10.333,8.058-21.977,8.058-34.306c0-23.943-10.922-45.335-28.055-59.469C482.181,208.251,481.188,230.174,479.303,242.805z"
		/>
	<path style="fill:#E85454;" d="M469.236,283.851c-0.841-1.102-2.56-0.964-3.195,0.268c-13.295,25.81-34.152,44.176-51.005,48.285
		c24.568,3.978,48.71-3.997,65.939-20.651C482.253,303.531,474.407,290.624,469.236,283.851z"/>
</g>
<path style="fill:#D84848;" d="M423.161,329.472c-2.776,1.306-5.498,2.293-8.123,2.933c7.255,1.175,14.738,1.335,22.407,0.341
	C432.521,332.106,427.748,330.994,423.161,329.472z"/>
<path style="fill:#E85454;" d="M439.453,255.609c1.361,0.988,1.843,2.81,1.151,4.343c-14.678,32.505-38.645,59.461-54.181,61.622
	c-29.158-18.38-42.552-53.631-32.981-86.682c2.955-1.945,9.489-4.786,19.16-4.786C395.874,230.106,420.706,241.997,439.453,255.609z
	"/>
<path style="fill:#D84848;" d="M370.389,256.357c0-9.206,1.633-18.025,4.594-26.207c-10.074-0.339-17.35,1.983-21.542,4.741
	c0,0.002-0.001,0.004-0.002,0.006c-9.586,33.108,3.922,68.358,32.982,86.676c3.708-0.516,7.898-2.458,12.325-5.536
	C381.448,301.913,370.389,280.436,370.389,256.357z"/>
<path d="M220.813,217.896c-20.864,0-34.711,15.518-34.711,35.271c0,20.886,14.036,35.244,34.711,35.244
	c20.279,0,34.639-15.003,34.639-35.259C255.452,232.897,241.091,217.896,220.813,217.896z M220.823,275.513
	c-12.151,0-16.832-10.512-16.832-22.358c0-11.841,4.68-22.348,16.832-22.348c12.147,0,16.724,10.507,16.724,22.348
	C237.546,264.999,232.97,275.513,220.823,275.513z"/>
<path d="M102.032,217.945c-18.545,0-34.242,14.788-34.242,35.628c0,22.003,14.189,34.908,36.196,34.908
	c8.877,0,19.603-3.35,24.201-6.193c1.609-0.995,2.114-1.422,1.696-3.048l-2.872-8.133c-0.332-1.334-1.814-1.675-3.015-1.078
	c-5.441,2.675-11.3,5-17.579,5c-13.043,0-19.551-6.895-20.556-16.177h45.499c1.656,0,2.392-1.145,2.392-3.079
	c0-2.532,0.036-6.193-0.207-8.88C131.863,228.467,119.977,217.945,102.032,217.945z M117.242,246.617c0,0-19.741,0-31.404,0
	c1.362-9.2,7.793-15.749,16.766-15.749C111.121,230.867,117.242,236.306,117.242,246.617z"/>
<path d="M185.468,218.92c-2.379-0.563-6.17-0.909-9.257-0.909c-13.137,0-21.161,3.013-26.309,9.651
	c-3.945,5.09-4.657,10.784-4.657,22.961c0,3.906,0,33.432,0,33.432c0.18,2.383,1.14,3.496,3.366,3.496h10.394
	c2.405,0,3.387-1.254,3.387-3.496c0,0,0-32.293,0-34.054c0-8.809-1.002-18.967,14.756-18.967c1.295,0,4.395,0.341,5.478,0.474
	c0.409,0.051,0.743,0.082,0.918,0.082c1.127,0,1.519-0.41,1.88-1.841l1.56-7.663C187.274,220.513,187.034,219.29,185.468,218.92z"/>
<path d="M43.009,252.036c5.596-5.975,15.741-17.516,20.176-30.692c0.653-1.938-0.553-2.422-1.553-2.422H50.448
	c-1.356,0-2.262,0.474-3.264,2.422c-6.024,11.357-11.445,18.056-13.779,20.47c-3.679-4.366-8.516-12.223-12.05-20.47
	c-0.769-1.788-1.581-2.422-3.136-2.422H3.831c-1.13,0-1.944,0.901-1.478,2.422c3.097,10.118,10.952,22.134,19.098,31.993
	c-10.379,9.35-17.639,21.791-21.281,31.784c-0.536,1.468,0.296,2.43,1.114,2.43h12.248c1.764,0,2.572-0.626,3.38-2.418
	c3.31-7.315,8.225-15.757,14.674-22.602c5.909,5.692,11.083,14.346,14.397,22.602c0.928,2.282,2.002,2.418,3.39,2.418h13.354
	c2.555,0,2.783-1.384,2.322-2.593C59.959,271.528,49.121,257.825,43.009,252.036z"/>
<path d="M300.499,252.036c5.593-5.975,15.74-17.516,20.172-30.692c0.655-1.938-0.554-2.422-1.556-2.422h-11.178
	c-1.357,0-2.266,0.474-3.268,2.422c-6.022,11.357-11.443,18.056-13.775,20.47c-3.682-4.366-8.518-12.223-12.055-20.47
	c-0.768-1.788-1.583-2.422-3.136-2.422h-14.387c-1.127,0-1.942,0.901-1.478,2.422c3.097,10.118,10.951,22.134,19.1,31.993
	c-10.378,9.35-17.637,21.791-21.28,31.784c-0.538,1.468,0.3,2.43,1.115,2.43h12.246c1.763,0,2.57-0.626,3.377-2.418
	c3.311-7.315,8.225-15.757,14.676-22.602c5.913,5.692,11.084,14.346,14.395,22.602c0.936,2.282,2.009,2.418,3.393,2.418h13.354
	c2.555,0,2.781-1.384,2.324-2.593C317.441,271.528,306.602,257.825,300.499,252.036z"/>
<path d="M512,256.002V256v-0.001v-0.001c0-47.402-38.621-84.554-84.554-84.554h-0.002h-0.001c-0.001,0-0.002,0-0.003,0
	c-46.574,0.002-84.555,37.94-84.553,84.559c0.002,47.866,39.046,84.547,84.545,84.553c0.003,0,0.007,0,0.01,0h0.001h0.001
	C474.155,340.556,511.998,302.529,512,256.002z M484.942,295.091c-2.3-5.203-5.609-10.732-9.742-16.149
	c-4.183-5.48-12.668-4.744-15.824,1.385c-12.942,25.124-31.871,40.178-44.677,44.036c-3.79-0.705-7.479-1.702-11.027-2.997
	c16.69-11.952,33.656-36.29,43.77-58.687c2.147-4.756,0.642-10.432-3.58-13.497c-6.108-4.436-12.448-8.444-18.846-11.914
	c-3.642-1.975-8.194-0.625-10.168,3.017c-1.975,3.641-0.625,8.193,3.016,10.169c4.91,2.663,9.791,5.68,14.545,8.99
	c-13.375,28.175-32.996,49.599-44.536,53.709c-23.535-16.346-34.846-45.388-28.011-73.553c8.018-3.476,18.808-2.538,27.329-0.79
	c4.057,0.833,8.021-1.782,8.854-5.84c0.832-4.058-1.783-8.021-5.84-8.854c-7.478-1.534-16.161-2.384-23.747-1.52
	c2.589-4.708,5.708-9.085,9.275-13.052c3.485-1.308,9.129-2.536,15.933-2.536c23.72,0,42.694,9.04,54.437,16.626
	c6.006,3.879,14.004,0.176,14.947-6.909c0.876-6.589,1.383-14.49,0.916-21.072c2.95,1.694,5.764,3.597,8.423,5.69
	c4.036,10.148,3.156,28.9,1.499,39.994c-0.427,2.855,0.332,5.814,2.081,8.116c9.462,12.467,15.34,26.087,15.34,35.545
	c0,0.805-0.064,1.936-0.168,3.063C487.871,290.491,486.476,292.841,484.942,295.091z M444.91,323.333
	c8.574-7.553,16.638-17.194,23.262-28.056c3.106,5.247,4.825,9.794,5.302,12.806C465.395,315.231,455.658,320.543,444.91,323.333z
	 M445.512,188.839c1.877,4.939,1.761,12.558,1.446,17.831c-14.951-8.281-31.087-13.172-47.401-14.37
	C414.065,185.923,430.248,184.726,445.512,188.839z M486.971,241.799c0.869-6.373,1.309-12.864,1.309-19.325
	c0-0.048,0-0.096,0-0.144c5.975,10.753,9.036,22.876,8.668,35.683C494.28,252.637,490.931,247.175,486.971,241.799z"/>
<g>
</g>
<g>
</g>
<g>
</g>
<g>
</g>
<g>
</g>
<g>
</g>
<g>
</g>
<g>
</g>
<g>
</g>
<g>
</g>
<g>
</g>
<g>
</g>
<g>
</g>
<g>
</g>
<g>
</g>
</svg>
