<svg height="512" viewBox="0 0 64 64" width="512" xmlns="http://www.w3.org/2000/svg"><g id="Send_package" data-name="Send package"><path d="m37.5 44.126a1.989 1.989 0 0 0 -1 .008l-15.921 4.266a2.987 2.987 0 0 0 -2.094 2.061l-10.675-6.161a3 3 0 0 0 -3 5.2l17.726 10.232a2 2 0 0 0 1 .268h16.992a2 2 0 0 0 .894-.211l3.578-1.789v-12z" fill="#ffbcab"/><path d="m5 11h14l2-8h-12z" fill="#a97c50"/><path d="m41 11-4-8h-12l2 8z" fill="#a97c50"/><path d="m53 43h-8v3 12 3h8v-2-14z" fill="#006df0"/><path d="m53 45h8v14h-8z" fill="#2488ff"/><path d="m5 11h36v28h-36z" fill="#bc9977"/><path d="m23 21 4 2v-12h-8v12z" fill="#ff9811"/><path d="m27 11-2-8h-4l-2 8z" fill="#ee8700"/><path d="m39 11v18a6 6 0 0 1 -6 6h-28v4h36v-28z" fill="#b38b63"/><path d="m53 45h3v14h-3z" fill="#005ece"/><g fill="#231f20"><path d="m61 44h-7v-1a1 1 0 0 0 -1-1h-8a1 1 0 0 0 -1 1v1.719l-6.256-1.564a3.012 3.012 0 0 0 -1.5.013l-15.924 4.266a3.964 3.964 0 0 0 -2.259 1.629l-9.753-5.63a4 4 0 0 0 -4 6.933l17.727 10.234a3 3 0 0 0 1.5.4h16.993a3.014 3.014 0 0 0 1.341-.316l2.131-1.066v1.382a1 1 0 0 0 1 1h8a1 1 0 0 0 1-1v-1h7a1 1 0 0 0 1-1v-14a1 1 0 0 0 -1-1zm-20.025 14.9a1.016 1.016 0 0 1 -.447.1h-16.992a1 1 0 0 1 -.5-.134l-17.724-10.231a2.007 2.007 0 0 1 -.724-2.735 2.034 2.034 0 0 1 2.722-.731l10.074 5.816a3.982 3.982 0 0 0 5.007 4.179l11.925-3.195a1 1 0 0 0 -.517-1.932l-11.926 3.2a2 2 0 1 1 -1.035-3.863l15.922-4.274a1 1 0 0 1 .5 0l6.74 1.681v10.6zm11.025 1.1h-6v-16h6zm8-2h-6v-12h6z"/><path d="m41.9 10.553-4-8a1 1 0 0 0 -.9-.553h-28a1 1 0 0 0 -.895.553l-4 8a1.78 1.78 0 0 0 -.105.447v28a1 1 0 0 0 1 1h36a1 1 0 0 0 1-1v-28a1.78 1.78 0 0 0 -.1-.447zm-2.518-.553h-11.602l-1.5-6h10.1zm-19.382 2h6v9.382l-2.553-1.277a1 1 0 0 0 -.894 0l-2.553 1.277zm4.219-8 1.5 6h-5.438l1.5-6zm-14.601 0h10.1l-1.5 6h-11.6zm30.382 34h-34v-26h12v11a1 1 0 0 0 1.447.895l3.553-1.777 3.553 1.782a1 1 0 0 0 1.447-.9v-11h12z"/></g></g></svg>