<svg id="Capa_1" enable-background="new 0 0 512 512" height="512" viewBox="0 0 512 512" width="512" xmlns="http://www.w3.org/2000/svg"><g><g><path d="m431.492 254.641 4.161 33.14c.572 4.554.757 9.077.569 13.524-1.597 38.973-31.211 72.342-71.177 77.36l-213.107 26.758c-39.966 5.018-76.91-19.994-88.093-57.362-1.281-4.263-2.22-8.691-2.792-13.245l-4.161-33.14c-1.375-10.954 6.399-20.96 17.353-22.336 10.964-1.377 20.96 6.399 22.336 17.353l4.161 33.14c.588 4.683 1.938 9.089 3.923 13.103 7.576 15.386 24.331 25.054 42.29 22.799l213.107-26.758c17.959-2.255 31.804-15.765 35.341-32.546.932-4.38 1.15-8.983.562-13.666l-4.161-33.14c-1.375-10.954 6.389-20.959 17.353-22.336 10.953-1.376 20.96 6.398 22.335 17.352z" fill="#ffe07d"/><g fill="#ffd064"><path d="m100.743 329.832c.588 4.683 1.938 9.089 3.923 13.103l-40.82 5.125c-1.281-4.263-2.22-8.691-2.792-13.245l-4.161-33.14c-1.375-10.954 6.399-20.96 17.353-22.336 10.964-1.377 20.96 6.399 22.336 17.353z"/><path d="m431.492 254.641 4.161 33.14c.572 4.554.757 9.077.569 13.524l-40.82 5.125c.932-4.38 1.15-8.983.562-13.666l-4.161-33.14c-1.375-10.954 6.389-20.959 17.353-22.336 10.954-1.375 20.961 6.399 22.336 17.353z"/><g><path d="m415.1 290.365-4.161-33.14c-.94-7.489 2.393-14.525 8.093-18.673-3.035-1.209-6.407-1.696-9.878-1.26-10.96 1.376-18.729 11.376-17.353 22.336l4.161 33.14c2.842 22.636-13.261 43.363-35.897 46.206l19.137-2.403c22.637-2.843 38.74-23.57 35.898-46.206z"/><path d="m80.194 332.416-4.161-33.14c-.94-7.489 2.393-14.525 8.093-18.673-3.035-1.209-6.407-1.696-9.878-1.26-10.96 1.376-18.729 11.376-17.353 22.336l4.161 33.14c5.59 44.52 46.357 76.192 90.877 70.602l19.137-2.403c-44.519 5.59-85.286-26.082-90.876-70.602z"/></g></g><g><path d="m143.845 45.538c-9.198 0-17.229 4.976-21.564 12.379-10.146-15.862-27.902-26.386-48.128-26.386-31.539 0-57.107 25.568-57.107 57.107v66.266h101.823v14.007h49.952v-98.397c0-13.794-11.182-24.976-24.976-24.976z" fill="#6c6570"/><path d="m100.086 37.768c-5.35 2.73-10.22 6.28-14.43 10.49-10.34 10.34-16.73 24.61-16.73 40.38v66.27h-51.88v-66.27c0-15.77 6.39-30.04 16.73-40.38 10.33-10.33 24.61-16.72 40.38-16.72 9.34 0 18.16 2.24 25.93 6.23z" fill="#545058"/><path d="m158.249 188.064h-131.611c-10.568 0-19.136-8.567-19.136-19.136 0-10.568 8.567-19.136 19.136-19.136h131.611c10.568 0 19.136 8.567 19.136 19.136 0 10.569-8.567 19.136-19.136 19.136z" fill="#eaac9d"/><path d="m147.845 125.276v68.859c0 30.547-24.432 55.867-54.978 56.095-30.79.23-55.824-24.662-55.824-55.399v-69.554c0-.152.001-.304.002-.456.14-17.387 18.955-28.06 34.163-19.632 6.292 3.487 13.533 5.472 21.236 5.472 17.24 0 32.161-9.943 39.324-24.41 9.935 10.009 16.077 23.798 16.077 39.025z" fill="#ffddce"/><path d="m108.729 247.757c-5.016 1.573-10.338 2.43-15.861 2.475-30.79.231-55.826-24.663-55.826-55.401v-70.009c.134-16.837 17.784-27.376 32.713-20.378v90.387c.001 24.879 16.398 45.92 38.974 52.926z" fill="#ffcbbe"/></g><path d="m130.068 328.572h-85.671c-20.377 0-36.897-16.519-36.897-36.897v-16.975h159.464v16.975c0 20.377-16.519 36.897-36.896 36.897z" fill="#ffe07d"/><path d="m103.58 328.575h-59.19c-20.37 0-36.89-16.52-36.89-36.9v-16.97h59.19v16.97c0 20.38 16.52 36.9 36.89 36.9z" fill="#ffd064"/><path d="m467.603 289.358h-85.671c-20.377 0-36.897-16.519-36.897-36.897v-16.975h159.465v16.975c0 20.378-16.519 36.897-36.897 36.897z" fill="#ffe07d"/><path d="m441.116 289.361h-59.19c-20.37 0-36.89-16.52-36.89-36.9v-16.97h59.19v16.97c0 20.38 16.52 36.9 36.89 36.9z" fill="#ffd064"/><path d="m256 301.366c-12.672 0-22.945 10.273-22.945 22.945v134.679h45.891v-134.679c-.001-12.672-10.274-22.945-22.946-22.945z" fill="#ffe07d"/><path d="m265.645 303.49c-7.85 3.65-13.3 11.6-13.3 20.82v134.68h-19.29v-134.68c0-12.67 10.27-22.94 22.94-22.94 3.45 0 6.72.76 9.65 2.12z" fill="#ffd064"/><circle cx="256" cy="372.197" fill="#a77d73" r="38.66"/><circle cx="256" cy="372.197" fill="#ffe07d" r="12.938"/><path d="m301.405 443.028h-90.81c-19.937 0-36.947 14.426-40.203 34.095l-3.181 19.217h177.577l-3.181-19.217c-3.255-19.669-20.265-34.095-40.202-34.095z" fill="#ffe07d"/><path d="m262.721 443.03c-19.94 0-36.95 14.42-40.2 34.09l-3.18 19.22h-52.13l3.18-19.22c3.26-19.67 20.27-34.09 40.21-34.09z" fill="#ffd064"/><g><g><path d="m485.183 135.394h-132.836c-10.667 0-19.314-8.647-19.314-19.314 0-10.667 8.647-19.314 19.314-19.314h132.835c10.667 0 19.314 8.647 19.314 19.314 0 10.666-8.647 19.314-19.313 19.314z" fill="#eaac9d"/><path d="m418.765 215.899c-30.883 0-55.918-25.035-55.918-55.918v-87.956c0-30.883 25.035-41.829 55.918-41.829 30.883 0 55.918 10.946 55.918 41.829v87.955c0 30.883-25.035 55.919-55.918 55.919z" fill="#ffddce"/><path d="m433.117 214.044c-4.58 1.217-9.381 1.859-14.348 1.859-30.887 0-55.922-25.035-55.922-55.922v-87.949c0-30.887 25.035-46.576 55.922-46.576 4.967 0 9.768-.878 14.348.339-23.94 6.339-41.574 20.317-41.574 46.237v87.949c.001 25.919 17.635 47.724 41.574 54.063z" fill="#ffcbbe"/><path d="m495.228 79.701c0 11.976-8.952 21.869-20.544 23.328v-13.872l-8.787 1.369c-2.934.459-5.853.677-8.749.677-23.396 0-44.805-14.541-53.088-37.072 0 15.474-12.548 28.022-28.022 28.022h-13.195v20.876c-5.311-.67-10.065-3.107-13.661-6.703-4.25-4.25-6.883-10.133-6.883-16.625 0-12.54 9.817-22.786 22.184-23.478-2.249-2.136-4.085-4.724-5.356-7.613-1.264-2.889-1.971-6.078-1.971-9.433 0-12.992 10.524-23.516 23.516-23.516h76.182c6.5 0 12.375 2.633 16.633 6.883 4.25 4.258 6.883 10.133 6.883 16.633 0 6.71-2.821 12.766-7.327 17.046 6.184.346 11.728 3.084 15.73 7.297 4.003 4.212 6.455 9.914 6.455 16.181z" fill="#a77d73"/><path d="m385.178 39.176c0 3.355.707 6.545 1.971 9.433 1.271 2.889 3.107 5.477 5.356 7.613-12.367.692-22.184 10.938-22.184 23.478 0 .827.045 1.647.128 2.452h-7.605v20.876c-5.311-.67-10.065-3.107-13.661-6.703-4.25-4.25-6.883-10.133-6.883-16.625 0-12.54 9.817-22.786 22.184-23.478-2.249-2.136-4.085-4.724-5.356-7.613-1.264-2.889-1.971-6.078-1.971-9.433 0-12.992 10.524-23.516 23.516-23.516h28.022c-12.992 0-23.517 10.524-23.517 23.516z" fill="#98695e"/></g></g></g><g><path d="m26.638 195.56h2.923c.188 16.616 6.758 32.188 18.573 43.916 11.873 11.785 27.589 18.256 44.304 18.256.161 0 .323 0 .484-.001 33.948-.253 61.633-28.012 62.387-62.17h2.941c7.121 0 13.812-2.77 18.84-7.798s7.797-11.715 7.797-18.829c0-7.719-3.304-14.679-8.567-19.548v-78.876c0-17.91-14.57-32.48-32.48-32.48-7.867 0-15.386 2.895-21.209 7.909-8.359-9.506-19.323-16.371-31.662-19.691-3.998-1.074-8.114 1.294-9.191 5.294-1.076 4 1.294 8.115 5.294 9.191 11.928 3.209 22.188 10.745 28.89 21.22 1.407 2.198 3.852 3.51 6.467 3.456 2.61-.052 5.005-1.458 6.324-3.711 3.128-5.347 8.91-8.668 15.087-8.668 9.639 0 17.48 7.841 17.48 17.48v71.968c-1.008-.116-2.031-.182-3.07-.182h-2.905v-17.019c0-16.714-6.483-32.45-18.254-44.31-1.707-1.718-4.136-2.511-6.525-2.119-2.39.388-4.445 1.905-5.519 4.075-6.181 12.483-18.673 20.237-32.603 20.237-6.164 0-12.25-1.567-17.601-4.532-9.564-5.299-20.9-5.18-30.325.32-9.289 5.422-14.887 15.071-14.974 25.824v17.523h-2.906c-.704 0-1.403.035-2.098.089v-53.754c0-13.248 5.161-25.705 14.533-35.077 6.145-6.144 13.805-10.577 22.152-12.82 4-1.075 6.372-5.188 5.297-9.189s-5.188-6.373-9.189-5.297c-10.884 2.924-20.866 8.699-28.867 16.7-12.204 12.205-18.926 28.428-18.926 45.683v59.874c-.599.503-1.182 1.03-1.742 1.589-5.028 5.028-7.798 11.719-7.798 18.84 0 14.682 11.95 26.627 26.638 26.627zm131.612-38.265c6.417 0 11.637 5.221 11.637 11.638 0 3.107-1.209 6.027-3.404 8.222s-5.12 3.404-8.233 3.404h-2.905v-23.264zm-113.707-32.019.001-.396c.044-5.478 2.791-10.208 7.535-12.978 2.451-1.431 5.158-2.147 7.87-2.147 2.61 0 5.225.664 7.623 1.993 7.57 4.195 16.17 6.412 24.872 6.412 15.886 0 30.447-7.14 40.062-19.172 5.101 7.742 7.839 16.808 7.839 26.289v68.859c0 26.6-21.324 48.4-47.535 48.595-12.862.087-24.981-4.841-34.109-13.901-9.13-9.062-14.158-21.136-14.158-33.999zm-14.999 32.019v23.264h-2.906c-6.417 0-11.638-5.216-11.638-11.626 0-3.114 1.209-6.038 3.405-8.234 2.195-2.195 5.119-3.404 8.233-3.404z"/><path d="m92.444 200.778c9.386 0 18.776-3.574 25.922-10.72 2.929-2.929 2.929-7.677 0-10.606-2.929-2.93-7.678-2.929-10.606 0-8.446 8.444-22.187 8.444-30.631 0-2.929-2.929-7.678-2.929-10.606 0-2.929 2.929-2.929 7.678 0 10.606 7.146 7.148 16.532 10.72 25.921 10.72z"/><path d="m77.988 164.164c4.142 0 7.5-3.358 7.5-7.5v-11.191c0-4.142-3.358-7.5-7.5-7.5s-7.5 3.358-7.5 7.5v11.191c0 4.142 3.358 7.5 7.5 7.5z"/><path d="m106.9 164.164c4.142 0 7.5-3.358 7.5-7.5v-11.191c0-4.142-3.358-7.5-7.5-7.5s-7.5 3.358-7.5 7.5v11.191c0 4.142 3.358 7.5 7.5 7.5z"/><path d="m504.5 227.986h-159.464c-4.142 0-7.5 3.358-7.5 7.5v16.975c0 24.48 19.917 44.397 44.397 44.397h6.829c.556 17.264-12.158 32.48-29.636 34.68l-69.81 8.759c-.916-.956-1.871-1.874-2.866-2.749v-13.238c0-16.785-13.66-30.44-30.45-30.44s-30.45 13.655-30.45 30.44v13.239c-3.878 3.412-7.178 7.46-9.739 11.984l-69.788 8.756c-16.024 2.017-30.882-7.578-36.119-22.212h20.163c24.48 0 44.397-19.916 44.397-44.396v-16.975c0-4.142-3.358-7.5-7.5-7.5h-159.464c-4.142 0-7.5 3.358-7.5 7.5v16.975c0 24.48 19.916 44.396 44.396 44.396h9.266c3.023 23.387 14.953 44.244 33.634 58.756 15.777 12.257 34.746 18.735 54.364 18.735 3.719 0 7.464-.233 11.213-.704l69.813-8.766c.915.956 1.87 1.872 2.864 2.747v28.683h-14.955c-23.71 0-43.73 16.978-47.602 40.37l-3.181 19.217c-.36 2.174.254 4.396 1.679 6.076s3.517 2.649 5.72 2.649h177.577c2.203 0 4.295-.969 5.72-2.649s2.039-3.902 1.679-6.076l-3.181-19.216c-3.872-23.392-23.892-40.37-47.602-40.37h-14.954v-28.683c3.875-3.41 7.174-7.456 9.734-11.977l69.804-8.758c8.245-1.04 16.251-3.201 23.797-6.423 3.809-1.627 5.579-6.034 3.952-9.843-1.627-3.81-6.034-5.58-9.843-3.952-6.265 2.676-12.92 4.471-19.778 5.335l-62.47 7.837c.336-2.242.513-4.535.513-6.869 0-6.358-1.293-12.421-3.628-17.938l62.466-7.837c25.062-3.155 43.341-24.858 42.778-49.563h25.002c.322 20.284-7.67 39.698-22.473 54.083-2.971 2.887-3.039 7.635-.152 10.605 1.471 1.513 3.424 2.273 5.379 2.273 1.884 0 3.769-.705 5.226-2.121 17.747-17.246 27.348-40.511 27.02-64.841h23.827c24.48 0 44.396-19.917 44.396-44.397v-16.975c0-4.141-3.358-7.499-7.5-7.499zm-263.95 96.324c0-8.514 6.931-15.44 15.45-15.44s15.45 6.926 15.45 15.44v4.395c-4.834-1.722-10.033-2.668-15.45-2.668s-10.617.946-15.45 2.668zm-225.55-32.63v-9.475h144.464v9.475c0 16.209-13.188 29.396-29.397 29.396h-85.671c-16.209.001-29.396-13.186-29.396-29.396zm136.004 106.301c-19.542 2.456-38.901-2.871-54.505-14.994-15.016-11.666-24.77-28.261-27.673-46.911h25.451c5.249 21.927 25.005 37.48 47.483 37.48 2.024 0 4.075-.126 6.134-.385l62.459-7.837c-.335 2.24-.513 4.53-.513 6.862 0 6.36 1.293 12.423 3.63 17.941zm183.204 80.367 1.737 10.492h-159.89l1.737-10.492c2.668-16.12 16.464-27.819 32.803-27.819h22.426c.01 0 .019.001.029.001h45.9c.01 0 .019-.001.029-.001h22.426c16.339-.001 30.135 11.699 32.803 27.819zm-62.758-42.82h-30.9v-19.84c4.834 1.723 10.033 2.668 15.45 2.668s10.617-.946 15.45-2.668zm-15.45-32.171c-17.182 0-31.16-13.979-31.16-31.16s13.978-31.16 31.16-31.16 31.16 13.978 31.16 31.16-13.978 31.16-31.16 31.16zm241-150.896c0 16.209-13.187 29.397-29.396 29.397h-85.671c-16.209 0-29.397-13.188-29.397-29.397v-9.475h144.464z"/><path d="m256 351.759c-11.27 0-20.438 9.168-20.438 20.438s9.168 20.438 20.438 20.438 20.438-9.168 20.438-20.438c0-11.269-9.168-20.438-20.438-20.438zm0 25.876c-2.999 0-5.438-2.439-5.438-5.438 0-2.998 2.439-5.438 5.438-5.438s5.438 2.439 5.438 5.438c0 2.998-2.439 5.438-5.438 5.438z"/><path d="m352.349 142.888h2.994v17.093c0 34.968 28.452 63.417 63.424 63.417 34.968 0 63.417-28.449 63.417-63.417v-17.093h2.997c7.172 0 13.909-2.786 18.968-7.846 5.063-5.063 7.852-11.797 7.852-18.96 0-9.424-4.944-17.856-12.488-22.646 2.061-4.159 3.216-8.829 3.216-13.734 0-7.985-3.025-15.566-8.517-21.347-2.622-2.761-5.68-4.983-9.023-6.597 1.748-3.933 2.683-8.222 2.683-12.581 0-8.28-3.223-16.068-9.084-21.94-5.863-5.853-13.651-9.076-21.932-9.076h-76.182c-17.103 0-31.016 13.914-31.016 31.016 0 4.312.875 8.498 2.606 12.454.02.045.04.09.06.135-10.405 5.034-17.523 15.698-17.523 27.936 0 4.85 1.113 9.526 3.204 13.747-1.662 1.051-3.22 2.269-4.616 3.668-5.067 5.057-7.857 11.793-7.857 18.966-.002 14.779 12.029 26.805 26.817 26.805zm0-15c-6.517 0-11.819-5.296-11.819-11.806 0-3.161 1.227-6.126 3.465-8.361 1.165-1.167 2.525-2.056 4.018-2.638 2.264 1.585 4.736 2.85 7.331 3.784v19.021zm114.835 32.093c0 26.697-21.72 48.417-48.417 48.417-26.701 0-48.424-21.72-48.424-48.417v-70.328h5.695c12.586 0 23.665-6.58 29.976-16.48 11.918 15.75 30.781 25.53 51.134 25.53 3.32 0 6.654-.258 9.904-.767l.132-.021zm26.358-35.545c-2.226 2.226-5.196 3.452-8.361 3.452h-2.997v-18.992c2.626-.942 5.081-2.227 7.316-3.798 4.42 1.733 7.501 6.046 7.501 10.984-.001 3.156-1.23 6.123-3.459 8.354zm-128.639-60.726c2.987-.167 5.59-2.094 6.621-4.903s.294-5.962-1.875-8.023c-1.54-1.463-2.804-3.259-3.65-5.182-.89-2.035-1.342-4.197-1.342-6.427 0-8.831 7.185-16.016 16.016-16.016h76.182c4.278 0 8.304 1.666 11.325 4.682 3.025 3.03 4.691 7.055 4.691 11.333 0 4.428-1.773 8.551-4.992 11.608-2.17 2.061-2.907 5.214-1.875 8.023s3.634 4.736 6.621 4.903c4.077.228 7.881 1.995 10.712 4.975 2.832 2.98 4.392 6.893 4.392 11.015 0 4.798-2.134 9.162-5.544 12.119v-2.663c0-2.191-.958-4.272-2.622-5.697s-3.867-2.054-6.033-1.714l-8.791 1.37c-2.49.389-5.043.587-7.59.587-20.472 0-38.977-12.924-46.048-32.16-1.254-3.412-4.775-5.432-8.354-4.796-3.579.637-6.186 3.749-6.186 7.384 0 11.316-9.207 20.522-20.522 20.522h-13.195c-4.142 0-7.5 3.358-7.5 7.5v9.669c-.293-.255-.58-.521-.857-.799-3.022-3.022-4.687-7.043-4.687-11.322-.001-8.49 6.633-15.513 15.103-15.988z"/><path d="m434.272 148.272c-8.55 8.552-22.463 8.551-31.014 0-2.929-2.929-7.678-2.929-10.606 0-2.929 2.929-2.929 7.678 0 10.606 7.2 7.2 16.657 10.799 26.114 10.799s18.914-3.6 26.113-10.799c2.929-2.929 2.929-7.678 0-10.606-2.929-2.929-7.678-2.929-10.607 0z"/><path d="m404.174 127.604c4.142 0 7.5-3.358 7.5-7.5v-11.296c0-4.142-3.358-7.5-7.5-7.5s-7.5 3.358-7.5 7.5v11.296c0 4.142 3.358 7.5 7.5 7.5z"/><path d="m433.355 127.604c4.142 0 7.5-3.358 7.5-7.5v-11.296c0-4.142-3.358-7.5-7.5-7.5s-7.5 3.358-7.5 7.5v11.296c0 4.142 3.358 7.5 7.5 7.5z"/></g></g></svg>