<svg id="_x33_0" enable-background="new 0 0 64 64" height="512" viewBox="0 0 64 64" width="512" xmlns="http://www.w3.org/2000/svg"><g><g><g><path d="m10 58v4h-4c-1.1 0-2-.9-2-2 0-.55.22-1.05.59-1.41.36-.37.86-.59 1.41-.59z" fill="#cf9e76"/></g><g><path d="m15.41 58.59c.37.36.59.86.59 1.41 0 1.1-.9 2-2 2h-4v-4h4c.55 0 1.05.22 1.41.59z" fill="#cf9e76"/></g><g><path d="m10 58h-4c-1.1 0-2-.9-2-2v-12c2.21 0 4-1.79 4-4h8v4 12c0 1.1-.9 2-2 2z" fill="#969faa"/></g><g><path d="m4 40h4c0 2.21-1.79 4-4 4z" fill="#e6e9ed"/></g><g><path d="m16 34v6h-8-4v-15c0 4.97 4.03 9 9 9z" fill="#b4dd7f"/></g><g><path d="m16 30h2c.55 0 1.05.22 1.41.59.37.36.59.86.59 1.41 0 1.1-.9 2-2 2h-2-3c-4.97 0-9-4.03-9-9v-1.17c0-1.81.72-3.55 2-4.83v-1l2.6 3.47c.25.33.65.53 1.07.53.73 0 1.33-.6 1.33-1.33v-1.67c1.22.3 2.28.96 3.1 1.84.81.88 1.38 2 1.58 3.23l.32 1.93z" fill="#b4dd7f"/></g><g><path d="m14 6h-4.22c-.46 0-.86.31-.97.76l-.81 3.24h-2-4v-4c0-2.21 1.79-4 4-4h4c2.21 0 4 1.79 4 4z" fill="#fcd770"/></g><g><path d="m18 7v2c0 .55-.45 1-1 1h-3-6l.81-3.24c.11-.45.51-.76.97-.76h4.22 3c.55 0 1 .45 1 1z" fill="#ffc729"/></g><g><path d="m6 10v8c-2.45-1.23-4-3.73-4-6.47v-1.53z" fill="#656d78"/></g><g><path d="m8 10h6v5c0 1.66-1.34 3-3 3v1 1.67c0 .73-.6 1.33-1.33 1.33-.42 0-.82-.2-1.07-.53l-2.6-3.47v-8z" fill="#f0d0b4"/></g><g><path d="m24 26v5c0 .55-.45 1-1 1h-1-2c0-.55-.22-1.05-.59-1.41-.36-.37-.86-.59-1.41-.59h-2v-4-3c0-.55.45-1 1-1h6c.55 0 1 .45 1 1z" fill="#e6e9ed"/></g><g><path d="m17 22c-.55 0-1 .45-1 1v3l-.32-1.93c-.2-1.23-.77-2.35-1.58-3.23-.82-.88-1.88-1.54-3.1-1.84v-1h11 18 4 18v3c0 .55-.45 1-1 1h-38z" fill="#aab2bd"/></g><g><path d="m62 40v3c0 .55-.45 1-1 1h-45v-4h6 18 4z" fill="#aab2bd"/></g><g><path d="m61 48h-16c-.55 0-1 .45-1 1v13h17c.55 0 1-.45 1-1v-12c0-.55-.45-1-1-1z" fill="#d3a06c"/></g><g><path d="m61 26h-16c-.55 0-1 .45-1 1v13h18v-13c0-.55-.45-1-1-1z" fill="#d3a06c"/></g><g><path d="m39 26h-15v5c0 .55-.45 1-1 1h-1v8h18v-13c0-.55-.45-1-1-1z" fill="#d3a06c"/></g><g><path d="m39 4h-16c-.55 0-1 .45-1 1v13h18v-13c0-.55-.45-1-1-1z" fill="#d3a06c"/></g><g><path d="m50 48h6v4h-6z" fill="#b27946"/></g><g><path d="m39 48h-16c-.55 0-1 .45-1 1v13h17c.55 0 1-.45 1-1v-12c0-.55-.45-1-1-1z" fill="#d3a06c"/></g><g><path d="m28 48h6v4h-6z" fill="#b27946"/></g><g><path d="m50 26h6v4h-6z" fill="#b27946"/></g><g><path d="m28 26h6v4h-6z" fill="#b27946"/></g><g><path d="m28 4h6v4h-6z" fill="#b27946"/></g><g><path d="m61 4h-16c-.55 0-1 .45-1 1v13h18v-13c0-.55-.45-1-1-1z" fill="#d3a06c"/></g><g><path d="m50 4h6v4h-6z" fill="#b27946"/></g></g><path d="m61 23c1.103 0 2-.897 2-2v-16c0-1.103-.897-2-2-2h-16c-1.103 0-2 .897-2 2v12h-2v-12c0-1.103-.897-2-2-2h-16c-1.103 0-2 .897-2 2v12h-6.546c.343-.59.546-1.27.546-2v-4h2c1.103 0 2-.897 2-2v-2c0-1.103-.897-2-2-2h-2.101c-.465-2.279-2.485-4-4.899-4h-4c-2.757 0-5 2.243-5 5v5.528c0 2.923 1.525 5.556 4 7.04v.034c-1.275 1.427-2 3.308-2 5.226v1.172 31c0 .771.301 1.468.78 2-.479.532-.78 1.229-.78 2 0 1.654 1.346 3 3 3h55c1.103 0 2-.897 2-2v-12c0-1.103-.897-2-2-2h-16c-1.103 0-2 .897-2 2v12h-2v-12c0-1.103-.897-2-2-2h-16c-1.103 0-2 .897-2 2v12h-4.184c.112-.314.184-.648.184-1 0-.771-.301-1.468-.78-2 .48-.532.78-1.229.78-2v-11h44c1.103 0 2-.897 2-2v-16c0-1.103-.897-2-2-2h-16c-1.103 0-2 .897-2 2v12h-2v-12c0-1.103-.897-2-2-2h-14v-2zm-10 26h4v2h-4zm-6 0h4v4h8v-4h4v12h-16zm-28-28c-.465 0-.888.166-1.229.434-.57-.979-1.362-1.813-2.312-2.434h47.541v2zm34-16h4v2h-4zm-6 0h4v4h8v-4h4v12h-16zm-16 0h4v2h-4zm-6 0h4v4h8v-4h4v12h-16zm-10 10c0 1.103-.897 2-2 2h-1v2 .78.887c0 .288-.428.429-.601.2l-2.399-3.2v-6.667h6zm4-6h-7.719l.5-2h7.219zm-11-6h4c1.302 0 2.402.839 2.816 2h-3.035c-.92 0-1.718.623-1.94 1.516l-.622 2.484h-4.219v-3c0-1.654 1.346-3 3-3zm-3 8.528v-.528h2v5.107c-1.261-1.16-2-2.802-2-4.579zm3.337 8.588 1.463 1.95c.438.585 1.136.934 1.867.934 1.286 0 2.333-1.047 2.333-2.333v-.201c1.407.767 2.42 2.137 2.691 3.766l.309 1.85v2.918h-2c-2.206 0-4-1.794-4-4h-2c0 3.309 2.691 6 6 6h5c.552 0 1 .448 1 1s-.448 1-1 1h-5c-4.411 0-8-3.589-8-8v-1.172c0-1.35.483-2.674 1.337-3.712zm14.479 12.884h.184v6h-4v-4h1c1.302 0 2.402-.839 2.816-2zm-7.816 2h2v4h-10v-8.026c1.825 2.438 4.727 4.026 8 4.026zm1 22h-3v-12h-2v12h-3c-.552 0-1-.448-1-1v-11.101c1.956-.399 3.5-1.943 3.899-3.899h6.101v15c0 .552-.448 1-1 1zm-9-16h1.816c-.302.847-.969 1.514-1.816 1.816zm0 19c0-.552.448-1 1-1h3v2h-3c-.552 0-1-.448-1-1zm24-11h4v2h-4zm-6 0h4v4h8v-4h4v12h-16zm-12 12v-2h3c.552 0 1 .448 1 1s-.448 1-1 1zm6-18v-2h44v2zm34-16h4v2h-4zm-6 0h4v4h8v-4h4v12h-16zm-16 0h4v2h-4zm-2 0v4h8v-4h4v12h-16v-6c1.103 0 2-.897 2-2v-4zm-4 4h-2.184c-.414-1.161-1.514-2-2.816-2h-1v-6h6z"/></g></svg>