<svg height="512" viewBox="0 0 256 256" width="512" xmlns="http://www.w3.org/2000/svg"><path d="m128 209.373a87.25 87.25 0 1 1 87.25-87.25 87.349 87.349 0 0 1 -87.25 87.25zm0-164.5a77.25 77.25 0 1 0 77.25 77.25 77.338 77.338 0 0 0 -77.25-77.25z" fill="#f46275"/><circle cx="210.25" cy="122.123" fill="#9e9e9e" r="25.375"/><path d="m210.25 96.748a25.3 25.3 0 0 0 -9.25 1.747 25.374 25.374 0 0 1 0 47.256 25.375 25.375 0 1 0 9.25-49z" fill="#cecece"/><circle cx="45.75" cy="122.123" fill="#9e9e9e" r="25.375"/><path d="m38.875 122.123a25.378 25.378 0 0 1 16.125-23.628 25.375 25.375 0 1 0 0 47.256 25.378 25.378 0 0 1 -16.125-23.628z" fill="#707070"/><circle cx="128" cy="39.873" fill="#63bce7" r="25.375"/><path d="m121.125 39.873a25.378 25.378 0 0 1 16.125-23.628 25.375 25.375 0 1 0 0 47.256 25.377 25.377 0 0 1 -16.125-23.628z" fill="#6377e7"/><circle cx="128" cy="204.373" fill="#f8af23" r="25.375"/><path d="m121.125 204.373a25.378 25.378 0 0 1 16.125-23.628 25.375 25.375 0 1 0 0 47.256 25.378 25.378 0 0 1 -16.125-23.628z" fill="#f87023"/><circle cx="128" cy="86.63" fill="#9e9e9e" r="10.989"/><path d="m125.215 97.618h5.569a12.369 12.369 0 0 1 12.369 12.369v16.413a0 0 0 0 1 0 0h-30.307a0 0 0 0 1 0 0v-16.412a12.369 12.369 0 0 1 12.369-12.369z" fill="#63bce7"/><circle cx="104.877" cy="122.999" fill="#9e9e9e" r="10.989"/><path d="m102.092 133.987h5.569a12.369 12.369 0 0 1 12.369 12.369v16.414a0 0 0 0 1 0 0h-30.307a0 0 0 0 1 0 0v-16.413a12.369 12.369 0 0 1 12.369-12.369z" fill="#63bce7"/><circle cx="151.123" cy="122.999" fill="#9e9e9e" r="10.989"/><path d="m148.339 133.987h5.569a12.369 12.369 0 0 1 12.369 12.369v16.414a0 0 0 0 1 0 0h-30.307a0 0 0 0 1 0 0v-16.413a12.369 12.369 0 0 1 12.369-12.369z" fill="#63bce7"/><g fill="#3f3679"><path d="m25.89 240h-18.5a1.5 1.5 0 1 0 0 3h18.5a1.5 1.5 0 1 0 0-3z"/><path d="m248.61 240h-18.5a1.5 1.5 0 0 0 0 3h18.5a1.5 1.5 0 0 0 0-3z"/><path d="m215.337 240h-174.674a1.5 1.5 0 0 0 0 3h174.674a1.5 1.5 0 0 0 0-3z"/><path d="m7.39 231.248h7.943a1.5 1.5 0 1 0 0-3h-7.943a1.5 1.5 0 1 0 0 3z"/><path d="m240.667 231.248h7.943a1.5 1.5 0 0 0 0-3h-7.943a1.5 1.5 0 0 0 0 3z"/><path d="m43.384 148.888a88.742 88.742 0 0 0 57.851 57.854 26.915 26.915 0 0 0 14.449 21.506h-89.794a1.5 1.5 0 0 0 0 3h204.22a1.5 1.5 0 0 0 0-3h-89.795a26.916 26.916 0 0 0 14.449-21.506 88.78 88.78 0 0 0 57.854-57.854 26.869 26.869 0 0 0 0-53.529 88.793 88.793 0 0 0 -57.853-57.859 26.869 26.869 0 0 0 -53.529 0 88.773 88.773 0 0 0 -57.854 57.858 26.869 26.869 0 0 0 0 53.53zm3.179.09a26.754 26.754 0 0 0 7.006-1.143 79.235 79.235 0 0 0 48.719 48.72 26.752 26.752 0 0 0 -1.143 7 85.741 85.741 0 0 1 -54.582-54.577zm81.437-82.23a26.912 26.912 0 0 0 24.677-16.24 76.18 76.18 0 0 1 46.939 46.938 26.868 26.868 0 0 0 0 49.354 76.2 76.2 0 0 1 -46.939 46.938 26.868 26.868 0 0 0 -49.354 0 76.22 76.22 0 0 1 -46.938-46.938 26.868 26.868 0 0 0 0-49.353 76.18 76.18 0 0 1 46.939-46.938 26.912 26.912 0 0 0 24.676 16.239zm0 161.5a23.875 23.875 0 1 1 23.875-23.875 23.9 23.9 0 0 1 -23.875 23.875zm26.854-24.691a26.754 26.754 0 0 0 -1.143-7 79.216 79.216 0 0 0 48.721-48.719 26.745 26.745 0 0 0 7 1.143 85.778 85.778 0 0 1 -54.578 54.576zm79.271-81.434a23.875 23.875 0 1 1 -23.875-23.875 23.9 23.9 0 0 1 23.875 23.875zm-24.691-26.854a26.753 26.753 0 0 0 -7 1.143 79.2 79.2 0 0 0 -48.72-48.72 26.75 26.75 0 0 0 1.143-7 85.791 85.791 0 0 1 54.577 54.577zm-81.434-79.269a23.875 23.875 0 1 1 -23.875 23.875 23.9 23.9 0 0 1 23.875-23.875zm-26.854 24.69a26.755 26.755 0 0 0 1.143 7 79.2 79.2 0 0 0 -48.72 48.719 26.747 26.747 0 0 0 -7-1.143 85.77 85.77 0 0 1 54.577-54.578zm-55.4 57.56a23.875 23.875 0 1 1 -23.875 23.875 23.9 23.9 0 0 1 23.879-23.877z"/><path d="m137.866 53.246a1.5 1.5 0 0 0 2.244-1.992l-10.61-11.954v-15.925a1.5 1.5 0 0 0 -3 0v16.5a1.5 1.5 0 0 0 .378 1z"/><path d="m208.75 105.717v16.5a1.5 1.5 0 0 0 .378 1l10.988 12.377a1.5 1.5 0 0 0 2.244-1.991l-10.61-11.952v-15.934a1.5 1.5 0 1 0 -3 0z"/><path d="m129.5 203.823v-15.928a1.5 1.5 0 1 0 -3 0v16.5a1.5 1.5 0 0 0 .378 1l10.988 12.377a1.5 1.5 0 0 0 2.244-1.992z"/><path d="m55.616 135.506a1.5 1.5 0 0 0 2.244-1.992l-10.61-11.951v-15.928a1.5 1.5 0 1 0 -3 0v16.5a1.5 1.5 0 0 0 .378 1z"/><path d="m89.723 164.271h30.307a1.5 1.5 0 0 0 1.5-1.5v-16.415a13.886 13.886 0 0 0 -9.485-13.148 12.556 12.556 0 0 0 4.315-5.307h23.28a12.554 12.554 0 0 0 4.315 5.307 13.886 13.886 0 0 0 -9.485 13.148v16.414a1.5 1.5 0 0 0 1.5 1.5h30.308a1.5 1.5 0 0 0 1.5-1.5v-16.414a13.885 13.885 0 0 0 -9.485-13.148 12.472 12.472 0 0 0 -13.639-20.872v-2.349a13.886 13.886 0 0 0 -9.485-13.148 12.488 12.488 0 1 0 -14.336 0 13.886 13.886 0 0 0 -9.485 13.148v2.349a12.473 12.473 0 0 0 -13.639 20.872 13.885 13.885 0 0 0 -9.485 13.148v16.414a1.5 1.5 0 0 0 1.499 1.501zm64.186-28.783a10.882 10.882 0 0 1 10.869 10.869v14.914h-27.308v-14.915a10.882 10.882 0 0 1 10.869-10.869zm6.7-12.489a9.489 9.489 0 1 1 -9.489-9.489 9.5 9.5 0 0 1 9.492 9.49zm-42.1-36.369a9.488 9.488 0 1 1 9.491 9.489 9.5 9.5 0 0 1 -9.488-9.489zm6.7 12.489h5.568a10.882 10.882 0 0 1 10.869 10.869v4.891a12.228 12.228 0 0 0 -2.846 10.021h-21.6a12.228 12.228 0 0 0 -2.858-10.022v-4.892a10.882 10.882 0 0 1 10.874-10.867zm-29.821 23.881a9.489 9.489 0 1 1 9.489 9.489 9.5 9.5 0 0 1 -9.489-9.489zm-4.165 23.358a10.882 10.882 0 0 1 10.869-10.869h5.569a10.882 10.882 0 0 1 10.869 10.869v14.914h-27.307z"/></g></svg>