<?xml version="1.0" encoding="iso-8859-1"?>
<!-- Generator: Adobe Illustrator 19.0.0, SVG Export Plug-In . SVG Version: 6.00 Build 0)  -->
<svg version="1.1" id="Layer_1" xmlns="http://www.w3.org/2000/svg" xmlns:xlink="http://www.w3.org/1999/xlink" x="0px" y="0px"
	 viewBox="0 0 512.001 512.001" style="enable-background:new 0 0 512.001 512.001;" xml:space="preserve">
<path style="fill:#FED9A8;" d="M299.474,278.713c-6.009,3.649-12.292,6.404-18.642,7.981l-0.975,0.242
	c-21.348,5.3-27.59,5.264-48.92-0.106c-6.288-1.583-12.508-4.322-18.46-7.942l-7.416,25.244l-27.863,14.923
	c45.501,38.208,112.106,38.208,157.608,0l-27.863-14.923L299.474,278.713z"/>
<path style="fill:#FB0125;" d="M494.438,404.163c-2.694-31.01-24.31-56.917-53.935-64.643l-99.564-25.964l0,0
	c-47.467,45.549-122.412,45.549-169.879,0l0,0L71.497,339.52c-29.625,7.726-51.24,33.633-53.935,64.643l-7.384,84.982
	c-0.703,8.092,5.676,15.05,13.799,15.05h230.976h2.091h230.976c8.123,0,14.503-6.958,13.799-15.05L494.438,404.163z"/>
<path style="fill:#CC111E;" d="M501.822,489.145l-7.384-84.982c-2.694-31.01-24.31-56.917-53.934-64.643l-99.564-25.964
	c0,0-4.338,4.012-6.586,5.88l77.015,20.084c29.624,7.726,51.24,33.633,53.934,64.643l7.384,84.982
	c0.703,8.093-5.676,15.05-13.799,15.05h29.135C496.145,504.196,502.524,497.238,501.822,489.145z"/>
<path style="fill:#FE9901;" d="M319.305,224.296h-126.61c-23.374,0-42.322-18.948-42.322-42.322v-68.027
	c0-38.188,30.958-69.146,69.146-69.146h72.963c38.188,0,69.146,30.958,69.146,69.146v68.027
	C361.628,205.348,342.68,224.296,319.305,224.296z"/>
<path style="fill:#FED9A8;" d="M167.054,144.349v60.79c0,33.854,31.052,73.427,63.881,81.692l0,0
	c21.331,5.37,27.572,5.407,48.92,0.106l0.975-0.242c32.943-8.18,64.115-47.807,64.115-81.75v-60.595L167.054,144.349
	L167.054,144.349z"/>
<g>
	<path style="fill:#4D4D4D;" d="M205.566,179.902c-4.31,0-7.804-3.494-7.804-7.804v-6.254c0-4.31,3.494-7.804,7.804-7.804
		s7.804,3.494,7.804,7.804v6.254C213.37,176.408,209.876,179.902,205.566,179.902z"/>
	<path style="fill:#4D4D4D;" d="M306.325,179.902c-4.31,0-7.804-3.494-7.804-7.804v-6.254c0-4.31,3.494-7.804,7.804-7.804
		s7.804,3.494,7.804,7.804v6.254C314.129,176.408,310.634,179.902,306.325,179.902z"/>
</g>
<path style="fill:#FED9A8;" d="M167.054,144.349v60.79c0,33.854,31.052,73.427,63.881,81.692l0,0
	c21.331,5.37,27.572,5.407,48.92,0.106l0.975-0.242c32.943-8.18,64.115-47.807,64.115-81.75v-60.595L167.054,144.349
	L167.054,144.349z"/>
<g>
	<rect x="167.057" y="144.352" style="fill:#F4C08E;" width="177.889" height="17.98"/>
	<path style="fill:#F4C08E;" d="M280.831,304.384c7.907-1.963,15.707-5.753,23.003-10.826l-4.361-14.844
		c-6.009,3.649-12.292,6.404-18.642,7.981l-0.975,0.242c-21.349,5.3-27.59,5.264-48.92-0.106c-6.288-1.583-12.508-4.322-18.46-7.942
		l-4.359,14.838c7.24,5.043,14.976,8.82,22.819,10.793c21.331,5.37,27.572,5.407,48.92,0.106L280.831,304.384z"/>
	<path style="fill:#F4C08E;" d="M316.02,144.349v60.595c0,33.943-31.172,73.572-64.115,81.75l-0.975,0.242
		c-3.676,0.913-6.898,1.664-9.832,2.26c13.879,2.844,21.228,2.092,38.759-2.26l0.975-0.242c32.943-8.18,64.115-47.807,64.115-81.75
		v-60.595H316.02z"/>
</g>
<g>
	<path style="fill:#FED9A8;" d="M353.02,200.097h-8.073v-43.51h8.073c6.88,0,12.456,5.577,12.456,12.456v18.597
		C365.477,194.519,359.899,200.097,353.02,200.097z"/>
	<path style="fill:#FED9A8;" d="M158.981,200.097h8.073v-43.51h-8.073c-6.88,0-12.456,5.577-12.456,12.456v18.597
		C146.525,194.519,152.101,200.097,158.981,200.097z"/>
</g>
<path style="fill:#FDBF00;" d="M272.892,19.96h-33.785c-53.286,0-96.483,43.196-96.483,96.483v36.687h226.751v-36.687
	C369.375,63.157,326.179,19.96,272.892,19.96z"/>
<path style="fill:#E5A900;" d="M272.892,19.96h-28.801c53.285,0,96.483,43.196,96.483,96.483v36.687h28.801v-36.687
	C369.375,63.157,326.179,19.96,272.892,19.96z"/>
<path style="fill:#FECE00;" d="M277.295,7.804h-42.589c-6.685,0-11.859,5.769-11.032,12.301l10.207,80.67
	c1.216,8.54,8.635,14.892,17.392,14.892h9.455c8.757,0,16.176-6.352,17.392-14.892l10.207-80.67
	C289.153,13.573,283.98,7.804,277.295,7.804z"/>
<path style="fill:#FDBF00;" d="M374.433,127.178H137.568c-4.695,0-8.5,3.805-8.5,8.5v8.952c0,4.695,3.805,8.5,8.5,8.5h236.866
	c4.695,0,8.5-3.805,8.5-8.5v-8.952C382.933,130.984,379.127,127.178,374.433,127.178z"/>
<path id="SVGCleanerId_0" style="fill:#E5A900;" d="M374.433,153.13H137.568c-4.695,0-8.5-3.805-8.5-8.5v-8.952
	c0-0.304,0.018-0.605,0.049-0.9c0.45,4.271,4.061,7.6,8.451,7.6h236.866c4.39,0,8.002-3.329,8.451-7.6
	c0.031,0.296,0.049,0.596,0.049,0.9v8.952C382.933,149.325,379.127,153.13,374.433,153.13z"/>
<g>
	<path id="SVGCleanerId_0_1_" style="fill:#E5A900;" d="M374.433,153.13H137.568c-4.695,0-8.5-3.805-8.5-8.5v-8.952
		c0-0.304,0.018-0.605,0.049-0.9c0.45,4.271,4.061,7.6,8.451,7.6h236.866c4.39,0,8.002-3.329,8.451-7.6
		c0.031,0.296,0.049,0.596,0.049,0.9v8.952C382.933,149.325,379.127,153.13,374.433,153.13z"/>
</g>
<g>
	<path style="fill:#8C553C;" d="M205.621,187.012c-4.31,0-7.804-3.494-7.804-7.804v-6.254c0-4.31,3.494-7.804,7.804-7.804
		c4.31,0,7.804,3.494,7.804,7.804v6.254C213.425,183.518,209.931,187.012,205.621,187.012z"/>
	<path style="fill:#8C553C;" d="M306.38,187.012c-4.31,0-7.804-3.494-7.804-7.804v-6.254c0-4.31,3.494-7.804,7.804-7.804
		c4.31,0,7.804,3.494,7.804,7.804v6.254C314.184,183.518,310.69,187.012,306.38,187.012z"/>
</g>
<g>
	<path style="fill:#F4C08E;" d="M349.473,190.54h-4.527v-24.397h4.527c3.857,0,6.985,3.127,6.985,6.985v10.428
		C356.458,187.413,353.331,190.54,349.473,190.54z"/>
	<path style="fill:#F4C08E;" d="M162.527,190.54h4.527v-24.397h-4.527c-3.857,0-6.985,3.127-6.985,6.985v10.428
		C155.543,187.413,158.67,190.54,162.527,190.54z"/>
</g>
<path style="fill:#FDBF00;" d="M416.538,333.271l-39.597-10.326c0,0.059-0.009,0.117-0.009,0.176v41.273
	c0,25.496-16.824,47.934-41.299,55.079l-1.47,0.429c-51.61,15.067-106.467,14.958-158.017-0.315l0,0
	c-24.365-7.219-41.079-29.603-41.079-55.015v-41.45c0-0.059-0.008-0.117-0.009-0.176l-39.597,10.326v170.925h159.493h2.091h159.493
	L416.538,333.271L416.538,333.271z"/>
<path style="fill:#E5A900;" d="M387.775,325.769c0,0.059-0.036,178.427-0.036,178.427h28.8V333.271L387.775,325.769z"/>
<rect x="151.252" y="459.403" style="fill:#FE9901;" width="209.489" height="44.795"/>
<path style="fill:#F2F2F2;" d="M222.783,230.223c-2.927,0-5.001,2.939-3.93,5.664c5.827,14.817,20.262,25.307,37.148,25.307
	c16.886,0,31.321-10.489,37.148-25.306c1.071-2.723-1.003-5.664-3.93-5.664h-66.436V230.223z"/>
<g>
	<path style="fill:#1A1A1A;" d="M509.596,488.469l-7.384-84.982c-2.974-34.235-26.982-62.976-59.74-71.519l-23.963-6.249h-0.001
		l-39.597-10.326h-0.001l-36.001-9.389c-2.623-0.684-5.416,0.043-7.372,1.921c-0.598,0.574-1.204,1.138-1.813,1.698l-20.216-10.828
		l-4.901-16.682c20.462-14.274,36.874-37.656,42.252-61.212c5.465-4.435,9.932-9.976,13.122-16.248
		c5.587-3.612,9.3-9.882,9.3-17.015v-18.597c0-2.883-0.615-5.623-1.705-8.109h2.858c8.99,0,16.304-7.314,16.304-16.304v-8.952
		c0-8.053-5.874-14.742-13.557-16.054v-3.181c0-24.962-8.959-49.115-25.227-68.008c-14.679-17.048-34.453-28.855-56.204-33.733
		c-0.68-3.037-2.098-5.899-4.204-8.288C287.951,2.338,282.757,0,277.295,0h-42.589c-5.463,0-10.656,2.338-14.25,6.416
		c-2.106,2.389-3.524,5.251-4.204,8.288c-21.751,4.877-41.525,16.685-56.204,33.733c-16.268,18.893-25.227,43.046-25.227,68.008
		v3.181c-7.684,1.312-13.558,8.002-13.558,16.054v8.952c0,8.99,7.314,16.304,16.304,16.304h2.858
		c-1.09,2.486-1.705,5.226-1.705,8.109v18.597c0,7.132,3.714,13.402,9.299,17.014c3.181,6.253,7.63,11.78,13.073,16.207
		c5.323,23.602,21.76,47.089,42.254,61.414l-4.853,16.52l-20.216,10.828c-0.609-0.56-1.214-1.124-1.813-1.698
		c-1.956-1.877-4.748-2.604-7.372-1.921l-49.094,12.803l-26.505,6.912h-0.001l-23.963,6.249
		c-32.757,8.542-56.765,37.283-59.74,71.519l-7.384,84.982c-0.524,6.031,1.521,12.048,5.613,16.51
		c4.091,4.462,9.908,7.02,15.962,7.02h71.483h55.792h209.493h55.792h71.483c6.053,0,11.87-2.559,15.962-7.02
		C508.075,500.518,510.12,494.5,509.596,488.469z M353.02,192.293h-0.27v-27.902h0.27c0.31,0,0.613,0.033,0.907,0.092
		c0.149,0.03,0.29,0.085,0.435,0.129c0.137,0.042,0.278,0.074,0.41,0.127c0.201,0.082,0.39,0.19,0.579,0.301
		c0.063,0.037,0.133,0.066,0.195,0.106c0.222,0.145,0.429,0.313,0.626,0.496c0.918,0.85,1.501,2.055,1.501,3.401v18.597
		c0,1.904-1.152,3.54-2.794,4.26C354.285,192.159,353.659,192.293,353.02,192.293z M361.571,116.443v2.931h-87.016
		c0.331-0.214,0.653-0.438,0.974-0.667c0.029-0.021,0.058-0.04,0.087-0.059c0.535-0.386,1.05-0.797,1.554-1.223
		c0.098-0.082,0.196-0.164,0.292-0.249c0.483-0.421,0.951-0.858,1.402-1.314c0.083-0.084,0.163-0.171,0.245-0.256
		c0.447-0.465,0.88-0.943,1.291-1.441c0.018-0.021,0.036-0.041,0.053-0.061c0.418-0.511,0.811-1.043,1.188-1.586
		c0.073-0.104,0.147-0.208,0.217-0.314c0.359-0.533,0.698-1.08,1.017-1.641c0.059-0.105,0.115-0.211,0.174-0.317
		c0.318-0.582,0.621-1.174,0.894-1.782c0.004-0.01,0.009-0.02,0.015-0.03c0.275-0.616,0.517-1.25,0.742-1.892
		c0.041-0.116,0.082-0.23,0.122-0.346c0.209-0.626,0.393-1.263,0.553-1.91c0.028-0.117,0.053-0.233,0.08-0.351
		c0.156-0.677,0.293-1.361,0.393-2.059c0.005-0.041,0.01-0.081,0.017-0.121l7.907-62.495l1.108-8.755
		C333.969,40.37,361.571,75.318,361.571,116.443z M232.164,16.736c0.371-0.421,1.196-1.128,2.542-1.128h42.589
		c1.346,0,2.171,0.707,2.542,1.128c0.343,0.389,0.896,1.216,0.748,2.389l-0.135,1.066v0.002l-2.576,20.364l-7.487,59.169
		c-0.387,2.611-1.867,4.859-3.947,6.326c-0.158,0.111-0.325,0.212-0.49,0.315c-0.076,0.047-0.148,0.1-0.226,0.145
		c-0.121,0.071-0.249,0.131-0.372,0.197c-0.128,0.068-0.252,0.14-0.383,0.202c-0.046,0.022-0.095,0.038-0.142,0.059
		c-0.553,0.251-1.132,0.451-1.731,0.598c-0.391,0.096-0.79,0.169-1.197,0.216c-0.386,0.046-0.775,0.078-1.172,0.078h-9.454
		c-4.828,0-8.97-3.494-9.659-8.137l-10.062-79.533c-0.001-0.004-0.002-0.008-0.002-0.012l-0.133-1.054
		C231.268,17.953,231.822,17.125,232.164,16.736z M136.872,144.63v-8.952c0-0.384,0.312-0.696,0.696-0.696
		c0.887,0,1.735-0.155,2.528-0.427c0.794,0.273,1.643,0.427,2.528,0.427h40.824c4.31,0,7.804-3.494,7.804-7.804
		s-3.494-7.804-7.804-7.804H150.43v-2.931c0-41.125,27.602-76.072,66.694-85.939l9.015,71.25c0.005,0.041,0.01,0.081,0.017,0.121
		c0.099,0.693,0.235,1.373,0.39,2.046c0.028,0.124,0.055,0.249,0.085,0.371c0.158,0.642,0.341,1.273,0.548,1.893
		c0.042,0.124,0.085,0.246,0.129,0.368c0.223,0.636,0.463,1.262,0.735,1.873c0.008,0.02,0.019,0.037,0.027,0.057
		c0.268,0.598,0.565,1.179,0.878,1.751c0.061,0.111,0.12,0.224,0.182,0.334c0.315,0.557,0.652,1.099,1.008,1.628
		c0.075,0.111,0.152,0.22,0.229,0.33c0.375,0.538,0.763,1.065,1.178,1.572c0.023,0.028,0.049,0.055,0.072,0.083
		c0.404,0.489,0.829,0.958,1.268,1.416c0.086,0.089,0.171,0.181,0.258,0.27c0.447,0.453,0.912,0.887,1.391,1.305
		c0.1,0.087,0.203,0.173,0.304,0.258c0.501,0.422,1.011,0.831,1.543,1.214c0.033,0.024,0.069,0.046,0.103,0.071
		c0.316,0.226,0.636,0.447,0.962,0.659h-25.131c-4.31,0-7.804,3.494-7.804,7.804c0,4.31,3.494,7.804,7.804,7.804h157.06
		c0.887,0,1.735-0.155,2.528-0.427c0.794,0.273,1.642,0.427,2.528,0.427c0.384,0,0.696,0.312,0.696,0.696v8.952
		c0,0.384-0.312,0.696-0.696,0.696h-12.805h-16.682H167.054h-16.681h-12.806C137.184,145.326,136.872,145.014,136.872,144.63z
		 M158.981,192.293c-0.64,0-1.264-0.133-1.858-0.393c-1.642-0.719-2.794-2.356-2.794-4.26v-18.597c0-1.28,0.52-2.44,1.359-3.282
		c0.016-0.015,0.032-0.027,0.049-0.042c0.024-0.024,0.054-0.042,0.079-0.066c0.202-0.189,0.416-0.361,0.644-0.51
		c0.053-0.034,0.113-0.059,0.169-0.092c0.197-0.117,0.395-0.229,0.606-0.315c0.118-0.048,0.245-0.076,0.367-0.114
		c0.158-0.05,0.314-0.109,0.478-0.142c0.292-0.058,0.594-0.092,0.904-0.092h0.27v27.902h-0.272V192.293z M175.787,214.755
		c-0.127-0.694-0.24-1.383-0.341-2.065c-0.028-0.19-0.054-0.38-0.08-0.57c-0.091-0.656-0.171-1.306-0.236-1.949
		c-0.032-0.324-0.057-0.647-0.083-0.97c-0.043-0.51-0.086-1.02-0.114-1.52c-0.045-0.851-0.075-1.7-0.075-2.542v-5.042v-39.162
		h162.285v39.162v4.848c0,0.852-0.03,1.711-0.076,2.572c-0.028,0.52-0.075,1.05-0.121,1.58c-0.026,0.315-0.049,0.631-0.081,0.947
		c-0.069,0.664-0.154,1.337-0.249,2.014c-0.026,0.184-0.05,0.367-0.077,0.551c-0.104,0.697-0.224,1.401-0.355,2.109
		c-4.265,22.909-22.491,47.314-43.45,58.87c-0.145,0.08-0.29,0.157-0.435,0.235c-0.673,0.365-1.35,0.714-2.028,1.052
		c-0.209,0.104-0.417,0.21-0.626,0.311c-0.791,0.383-1.584,0.75-2.379,1.095c-0.035,0.016-0.072,0.033-0.107,0.049
		c-0.812,0.35-1.627,0.672-2.444,0.98c-0.25,0.094-0.498,0.181-0.748,0.272c-0.6,0.216-1.201,0.421-1.802,0.614
		c-0.251,0.08-0.5,0.162-0.75,0.238c-0.82,0.25-1.641,0.484-2.462,0.688l-0.976,0.242c-1.603,0.397-3.122,0.765-4.577,1.105
		c-7.159,1.67-12.679,2.614-17.872,2.614c-3.878,0-7.838-0.508-12.589-1.47c-2.992-0.607-6.295-1.391-10.096-2.348
		c-0.821-0.207-1.641-0.444-2.461-0.696c-0.237-0.073-0.474-0.151-0.712-0.228c-0.627-0.203-1.254-0.418-1.878-0.647
		c-0.215-0.078-0.43-0.154-0.645-0.235c-1.689-0.641-3.37-1.371-5.037-2.187c-0.129-0.062-0.257-0.128-0.386-0.193
		c-0.807-0.402-1.612-0.819-2.412-1.259c-0.019-0.01-0.037-0.021-0.057-0.031C198.267,262.209,180.002,237.69,175.787,214.755z
		 M208.744,311.011c1.843-0.987,3.213-2.673,3.803-4.68l4.725-16.082c0.108,0.049,0.216,0.091,0.324,0.138
		c0.73,0.326,1.463,0.642,2.2,0.942c0.399,0.163,0.798,0.317,1.198,0.473c0.593,0.23,1.186,0.461,1.782,0.674
		c0.588,0.211,1.175,0.403,1.762,0.596c0.443,0.146,0.885,0.3,1.33,0.436c1.056,0.324,2.111,0.623,3.164,0.889
		c5.284,1.331,9.847,2.384,14.059,3.115c4.337,0.753,8.301,1.163,12.286,1.174c0.051,0,0.102,0.002,0.153,0.002
		c0.001,0,0.001,0,0.002,0c6.748,0,13.4-1.137,21.914-3.139c0.763-0.179,1.535-0.363,2.329-0.557
		c0.644-0.156,1.299-0.317,1.965-0.483l0.977-0.242c1.062-0.264,2.126-0.562,3.191-0.885c0.472-0.143,0.942-0.306,1.412-0.459
		c0.565-0.185,1.13-0.366,1.695-0.568c0.652-0.231,1.301-0.483,1.95-0.734c0.348-0.135,0.695-0.266,1.042-0.408
		c0.819-0.332,1.633-0.683,2.444-1.045c0.077-0.034,0.154-0.063,0.231-0.099l4.777,16.261c0.589,2.006,1.959,3.692,3.803,4.679
		l17.122,9.17c-18.896,12.787-41.355,19.726-64.377,19.726s-45.481-6.938-64.377-19.726L208.744,311.011z M256.001,355.521
		c32.368,0,63.128-11.804,87.11-33.334l26.018,6.785v35.42c0,21.886-14.672,41.455-35.682,47.589l-1.469,0.429
		c-50.276,14.679-103.394,14.572-153.613-0.306c-20.897-6.191-35.491-25.737-35.491-47.532v-35.599l26.017-6.785
		C192.873,343.717,223.632,355.521,256.001,355.521z M159.058,496.392v-29.188h193.885v29.188H159.058z M368.55,496.392V459.4
		c0-4.31-3.494-7.804-7.804-7.804H151.254c-4.31,0-7.804,3.494-7.804,7.804v36.992h-40.184v-52.534c0-4.31-3.494-7.804-7.804-7.804
		c-4.31,0-7.804,3.494-7.804,7.804v52.534H23.978c-1.715,0-3.297-0.696-4.458-1.96c-1.159-1.264-1.716-2.902-1.567-4.611
		l7.384-84.983c2.405-27.672,21.746-50.886,48.129-57.766l14.192-3.701v71.502c0,4.31,3.494,7.804,7.804,7.804
		c4.31,0,7.804-3.494,7.804-7.804v-75.572l11.072-2.887l12.926-3.37v31.528c0,28.657,19.189,54.357,46.667,62.497
		c53.098,15.732,109.262,15.843,162.421,0.324l1.469-0.43c27.623-8.064,46.915-33.794,46.915-62.57v-31.349l8.821,2.301
		l15.178,3.958v157.091L368.55,496.392L368.55,496.392z M492.479,494.431c-1.159,1.264-2.742,1.96-4.458,1.96h-63.679v-153.02
		l14.192,3.701c26.383,6.88,45.724,30.094,48.129,57.766l7.384,84.983C494.195,491.53,493.638,493.166,492.479,494.431z"/>
	<path style="fill:#1A1A1A;" d="M213.425,179.208v-6.254c0-4.31-3.494-7.804-7.804-7.804c-4.31,0-7.804,3.494-7.804,7.804v6.254
		c0,4.31,3.494,7.804,7.804,7.804C209.931,187.012,213.425,183.518,213.425,179.208z"/>
	<path style="fill:#1A1A1A;" d="M306.38,187.012c4.31,0,7.804-3.494,7.804-7.804v-6.254c0-4.31-3.494-7.804-7.804-7.804
		c-4.31,0-7.804,3.494-7.804,7.804v6.254C298.576,183.518,302.069,187.012,306.38,187.012z"/>
	<path style="fill:#1A1A1A;" d="M256.001,268.997c19.75,0,37.183-11.876,44.411-30.254c1.44-3.664,0.972-7.799-1.253-11.064
		c-2.243-3.293-5.96-5.26-9.94-5.26h-66.437c-3.981,0-7.697,1.967-9.94,5.26c-2.225,3.265-2.692,7.4-1.252,11.064
		C218.817,257.122,236.249,268.997,256.001,268.997z M283.412,238.027c-5.755,9.48-16.009,15.361-27.412,15.361
		c-11.403,0-21.657-5.881-27.412-15.361H283.412z"/>
</g>
<g>
</g>
<g>
</g>
<g>
</g>
<g>
</g>
<g>
</g>
<g>
</g>
<g>
</g>
<g>
</g>
<g>
</g>
<g>
</g>
<g>
</g>
<g>
</g>
<g>
</g>
<g>
</g>
<g>
</g>
</svg>
